<?xml version="1.0" encoding="us-ascii" standalone="no"?><svg xmlns="http://www.w3.org/2000/svg" xmlns:xlink="http://www.w3.org/1999/xlink" contentStyleType="text/css" height="391.5px" preserveAspectRatio="none" style="width:1260px;height:391px;background:#FFFFFF;" version="1.1" viewBox="0 0 1260 391" width="1260px" zoomAndPan="magnify"><defs/><g><!--cluster com--><g id="cluster_com"><path d="M4.25,3.0068 L19.25,3.0068 A1.875,1.875 0 0 1 20.5,4.2568 L24,15.3174 L1255.25,15.3174 A1.25,1.25 0 0 1 1256.5,16.5674 L1256.5,386.7568 A1.25,1.25 0 0 1 1255.25,388.0068 L4.25,388.0068 A1.25,1.25 0 0 1 3,386.7568 L3,4.2568 A1.25,1.25 0 0 1 4.25,3.0068 " fill="none" style="stroke:#000000;stroke-width:0.75;"/><line style="stroke:#000000;stroke-width:0.75;" x1="3" x2="24" y1="15.3174" y2="15.3174"/><text fill="#000000" font-family="sans-serif" font-size="7" font-weight="bold" lengthAdjust="spacing" textLength="14.5" x="5" y="11.5605">com</text></g><!--cluster example--><g id="cluster_example"><path d="M16.25,25.5068 L46.25,25.5068 A1.875,1.875 0 0 1 47.5,26.7568 L51,37.8174 L1243.25,37.8174 A1.25,1.25 0 0 1 1244.5,39.0674 L1244.5,374.7568 A1.25,1.25 0 0 1 1243.25,376.0068 L16.25,376.0068 A1.25,1.25 0 0 1 15,374.7568 L15,26.7568 A1.25,1.25 0 0 1 16.25,25.5068 " fill="none" style="stroke:#000000;stroke-width:0.75;"/><line style="stroke:#000000;stroke-width:0.75;" x1="15" x2="51" y1="37.8174" y2="37.8174"/><text fill="#000000" font-family="sans-serif" font-size="7" font-weight="bold" lengthAdjust="spacing" textLength="29.5" x="17" y="34.0605">example</text></g><!--cluster movie_rating_service--><g id="cluster_movie_rating_service"><path d="M28.25,48.0068 L105.25,48.0068 A1.875,1.875 0 0 1 106.5,49.2568 L110,60.3174 L1231.25,60.3174 A1.25,1.25 0 0 1 1232.5,61.5674 L1232.5,362.7568 A1.25,1.25 0 0 1 1231.25,364.0068 L28.25,364.0068 A1.25,1.25 0 0 1 27,362.7568 L27,49.2568 A1.25,1.25 0 0 1 28.25,48.0068 " fill="none" style="stroke:#000000;stroke-width:0.75;"/><line style="stroke:#000000;stroke-width:0.75;" x1="27" x2="110" y1="60.3174" y2="60.3174"/><text fill="#000000" font-family="sans-serif" font-size="7" font-weight="bold" lengthAdjust="spacing" textLength="76.5" x="29" y="56.5605">movie_rating_service</text></g><!--cluster service--><g id="cluster_service"><path d="M675.25,70.5068 L702.25,70.5068 A1.875,1.875 0 0 1 703.5,71.7568 L707,82.8174 L1219.25,82.8174 A1.25,1.25 0 0 1 1220.5,84.0674 L1220.5,350.7568 A1.25,1.25 0 0 1 1219.25,352.0068 L675.25,352.0068 A1.25,1.25 0 0 1 674,350.7568 L674,71.7568 A1.25,1.25 0 0 1 675.25,70.5068 " fill="none" style="stroke:#000000;stroke-width:0.75;"/><line style="stroke:#000000;stroke-width:0.75;" x1="674" x2="707" y1="82.8174" y2="82.8174"/><text fill="#000000" font-family="sans-serif" font-size="7" font-weight="bold" lengthAdjust="spacing" textLength="26.5" x="676" y="79.0605">service</text></g><!--cluster controller--><g id="cluster_controller"><path d="M40.25,84.5068 L75.25,84.5068 A1.875,1.875 0 0 1 76.5,85.7568 L80,96.8174 L660.75,96.8174 A1.25,1.25 0 0 1 662,98.0674 L662,346.2568 A1.25,1.25 0 0 1 660.75,347.5068 L40.25,347.5068 A1.25,1.25 0 0 1 39,346.2568 L39,85.7568 A1.25,1.25 0 0 1 40.25,84.5068 " fill="none" style="stroke:#000000;stroke-width:0.75;"/><line style="stroke:#000000;stroke-width:0.75;" x1="39" x2="80" y1="96.8174" y2="96.8174"/><text fill="#000000" font-family="sans-serif" font-size="7" font-weight="bold" lengthAdjust="spacing" textLength="34.5" x="41" y="93.0605">controller</text></g><!--class GenreService--><g id="elem_GenreService"><rect codeLine="1" fill="#F1F1F1" height="79.8633" id="GenreService" rx="1.25" ry="1.25" style="stroke:#181818;stroke-width:0.25;" width="121.5" x="711.75" y="103.0068"/><ellipse cx="748.625" cy="111.0068" fill="#ADD1B2" rx="5.5" ry="5.5" style="stroke:#181818;stroke-width:0.5;"/><path d="M750.0078,108.9443 Q750.0859,108.835 750.1797,108.7803 Q750.2734,108.7256 750.3828,108.7256 Q750.5703,108.7256 750.6875,108.8584 Q750.8047,108.9834 750.8047,109.2881 L750.8047,110.0146 Q750.8047,110.3193 750.6875,110.4521 Q750.5703,110.585 750.3828,110.585 Q750.2109,110.585 750.1094,110.4834 Q750.0078,110.3896 749.9531,110.1318 Q749.9297,109.9521 749.8359,109.8584 Q749.6719,109.6709 749.3672,109.5615 Q749.0625,109.4521 748.75,109.4521 Q748.3672,109.4521 748.0469,109.6162 Q747.7344,109.7803 747.4844,110.1553 Q747.2422,110.5303 747.2422,111.0459 L747.2422,111.5928 Q747.2422,112.21 747.6875,112.624 Q748.1328,113.0303 748.9297,113.0303 Q749.3984,113.0303 749.7266,112.9053 Q749.9219,112.8271 750.1328,112.6084 Q750.2656,112.4756 750.3359,112.4365 Q750.4141,112.3975 750.5156,112.3975 Q750.6797,112.3975 750.8047,112.5303 Q750.9375,112.6553 750.9375,112.8271 Q750.9375,112.999 750.7656,113.2021 Q750.5156,113.4912 750.1172,113.6553 Q749.5781,113.8818 748.9297,113.8818 Q748.1719,113.8818 747.5703,113.5693 Q747.0781,113.3193 746.7344,112.7881 Q746.3906,112.249 746.3906,111.6084 L746.3906,111.0303 Q746.3906,110.3662 746.6953,109.7959 Q747.0078,109.2178 747.5547,108.9131 Q748.1016,108.6006 748.7188,108.6006 Q749.0859,108.6006 749.4063,108.6865 Q749.7344,108.7646 750.0078,108.9443 Z " fill="#000000"/><text fill="#000000" font-family="sans-serif" font-size="7" lengthAdjust="spacing" textLength="43.5" x="758.875" y="113.9053">GenreService</text><line style="stroke:#181818;stroke-width:0.25;" x1="712.25" x2="832.75" y1="119.0068" y2="119.0068"/><rect fill="none" height="3" style="stroke:#C82930;stroke-width:0.5;" width="3" x="715.75" y="124.9121"/><text fill="#000000" font-family="sans-serif" font-size="7" lengthAdjust="spacing" textLength="108.5" x="721.75" y="128.5605">GenreRepository genreRepository</text><line style="stroke:#181818;stroke-width:0.25;" x1="712.25" x2="832.75" y1="132.3174" y2="132.3174"/><ellipse cx="717.25" cy="139.7227" fill="#84BE84" rx="1.5" ry="1.5" style="stroke:#038048;stroke-width:0.5;"/><text fill="#000000" font-family="sans-serif" font-size="7" lengthAdjust="spacing" textLength="87" x="721.75" y="141.8711">List&lt;Genre&gt; getAllGenres()</text><ellipse cx="717.25" cy="149.0332" fill="#84BE84" rx="1.5" ry="1.5" style="stroke:#038048;stroke-width:0.5;"/><text fill="#000000" font-family="sans-serif" font-size="7" lengthAdjust="spacing" textLength="86.5" x="721.75" y="151.1816">Genre getGenreById(Long)</text><ellipse cx="717.25" cy="158.3438" fill="#84BE84" rx="1.5" ry="1.5" style="stroke:#038048;stroke-width:0.5;"/><text fill="#000000" font-family="sans-serif" font-size="7" lengthAdjust="spacing" textLength="80" x="721.75" y="160.4922">void createGenre(Genre)</text><ellipse cx="717.25" cy="167.6543" fill="#84BE84" rx="1.5" ry="1.5" style="stroke:#038048;stroke-width:0.5;"/><text fill="#000000" font-family="sans-serif" font-size="7" lengthAdjust="spacing" textLength="100" x="721.75" y="169.8027">void updateGenre(Long,Genre)</text><ellipse cx="717.25" cy="176.9648" fill="#84BE84" rx="1.5" ry="1.5" style="stroke:#038048;stroke-width:0.5;"/><text fill="#000000" font-family="sans-serif" font-size="7" lengthAdjust="spacing" textLength="86.5" x="721.75" y="179.1133">void deleteGenreById(long)</text></g><!--class ReviewService--><g id="elem_ReviewService"><rect codeLine="9" fill="#F1F1F1" height="107.7949" id="ReviewService" rx="1.25" ry="1.25" style="stroke:#181818;stroke-width:0.25;" width="176.5" x="850.75" y="89.0068"/><ellipse cx="913.875" cy="97.0068" fill="#ADD1B2" rx="5.5" ry="5.5" style="stroke:#181818;stroke-width:0.5;"/><path d="M915.2578,94.9443 Q915.3359,94.835 915.4297,94.7803 Q915.5234,94.7256 915.6328,94.7256 Q915.8203,94.7256 915.9375,94.8584 Q916.0547,94.9834 916.0547,95.2881 L916.0547,96.0146 Q916.0547,96.3193 915.9375,96.4521 Q915.8203,96.585 915.6328,96.585 Q915.4609,96.585 915.3594,96.4834 Q915.2578,96.3896 915.2031,96.1318 Q915.1797,95.9521 915.0859,95.8584 Q914.9219,95.6709 914.6172,95.5615 Q914.3125,95.4521 914,95.4521 Q913.6172,95.4521 913.2969,95.6162 Q912.9844,95.7803 912.7344,96.1553 Q912.4922,96.5303 912.4922,97.0459 L912.4922,97.5928 Q912.4922,98.21 912.9375,98.624 Q913.3828,99.0303 914.1797,99.0303 Q914.6484,99.0303 914.9766,98.9053 Q915.1719,98.8271 915.3828,98.6084 Q915.5156,98.4756 915.5859,98.4365 Q915.6641,98.3975 915.7656,98.3975 Q915.9297,98.3975 916.0547,98.5303 Q916.1875,98.6553 916.1875,98.8271 Q916.1875,98.999 916.0156,99.2021 Q915.7656,99.4912 915.3672,99.6553 Q914.8281,99.8818 914.1797,99.8818 Q913.4219,99.8818 912.8203,99.5693 Q912.3281,99.3193 911.9844,98.7881 Q911.6406,98.249 911.6406,97.6084 L911.6406,97.0303 Q911.6406,96.3662 911.9453,95.7959 Q912.2578,95.2178 912.8047,94.9131 Q913.3516,94.6006 913.9688,94.6006 Q914.3359,94.6006 914.6563,94.6865 Q914.9844,94.7646 915.2578,94.9443 Z " fill="#000000"/><text fill="#000000" font-family="sans-serif" font-size="7" lengthAdjust="spacing" textLength="46" x="924.125" y="99.9053">ReviewService</text><line style="stroke:#181818;stroke-width:0.25;" x1="851.25" x2="1026.75" y1="105.0068" y2="105.0068"/><rect fill="none" height="3" style="stroke:#C82930;stroke-width:0.5;" width="3" x="854.75" y="110.9121"/><text fill="#000000" font-family="sans-serif" font-size="7" lengthAdjust="spacing" textLength="112.5" x="860.75" y="114.5605">ReviewRepository reviewRepository</text><line style="stroke:#181818;stroke-width:0.25;" x1="851.25" x2="1026.75" y1="118.3174" y2="118.3174"/><ellipse cx="856.25" cy="125.7227" fill="#84BE84" rx="1.5" ry="1.5" style="stroke:#038048;stroke-width:0.5;"/><text fill="#000000" font-family="sans-serif" font-size="7" lengthAdjust="spacing" textLength="92" x="860.75" y="127.8711">List&lt;Review&gt; getAllReviews()</text><ellipse cx="856.25" cy="135.0332" fill="#84BE84" rx="1.5" ry="1.5" style="stroke:#038048;stroke-width:0.5;"/><text fill="#000000" font-family="sans-serif" font-size="7" lengthAdjust="spacing" textLength="89" x="860.75" y="137.1816">Review getReviewById(long)</text><ellipse cx="856.25" cy="144.3438" fill="#84BE84" rx="1.5" ry="1.5" style="stroke:#038048;stroke-width:0.5;"/><text fill="#000000" font-family="sans-serif" font-size="7" lengthAdjust="spacing" textLength="85" x="860.75" y="146.4922">void createReview(Review)</text><ellipse cx="856.25" cy="153.6543" fill="#84BE84" rx="1.5" ry="1.5" style="stroke:#038048;stroke-width:0.5;"/><text fill="#000000" font-family="sans-serif" font-size="7" lengthAdjust="spacing" textLength="105" x="860.75" y="155.8027">void updateReview(Long,Review)</text><ellipse cx="856.25" cy="162.9648" fill="#84BE84" rx="1.5" ry="1.5" style="stroke:#038048;stroke-width:0.5;"/><text fill="#000000" font-family="sans-serif" font-size="7" lengthAdjust="spacing" textLength="89" x="860.75" y="165.1133">void deleteReviewById(long)</text><ellipse cx="856.25" cy="172.2754" fill="#84BE84" rx="1.5" ry="1.5" style="stroke:#038048;stroke-width:0.5;"/><text fill="#000000" font-family="sans-serif" font-size="7" lengthAdjust="spacing" textLength="142.5" x="860.75" y="174.4238">Optional&lt;Review&gt; getReviewsByFilmId(Long)</text><ellipse cx="856.25" cy="181.5859" fill="#84BE84" rx="1.5" ry="1.5" style="stroke:#038048;stroke-width:0.5;"/><text fill="#000000" font-family="sans-serif" font-size="7" lengthAdjust="spacing" textLength="163.5" x="860.75" y="183.7344">boolean hasAlreadyReceivedUserReview(long,long)</text><ellipse cx="856.25" cy="190.8965" fill="#84BE84" rx="1.5" ry="1.5" style="stroke:#038048;stroke-width:0.5;"/><text fill="#000000" font-family="sans-serif" font-size="7" lengthAdjust="spacing" textLength="126" x="860.75" y="193.0449">List&lt;Review&gt; getReviewsByUserId(long)</text></g><!--class GradeService--><g id="elem_GradeService"><rect codeLine="46" fill="#F1F1F1" height="98.4844" id="GradeService" rx="1.25" ry="1.25" style="stroke:#181818;stroke-width:0.25;" width="156.5" x="1044.75" y="93.7568"/><ellipse cx="1099.125" cy="101.7568" fill="#ADD1B2" rx="5.5" ry="5.5" style="stroke:#181818;stroke-width:0.5;"/><path d="M1100.5078,99.6943 Q1100.5859,99.585 1100.6797,99.5303 Q1100.7734,99.4756 1100.8828,99.4756 Q1101.0703,99.4756 1101.1875,99.6084 Q1101.3047,99.7334 1101.3047,100.0381 L1101.3047,100.7646 Q1101.3047,101.0693 1101.1875,101.2021 Q1101.0703,101.335 1100.8828,101.335 Q1100.7109,101.335 1100.6094,101.2334 Q1100.5078,101.1396 1100.4531,100.8818 Q1100.4297,100.7021 1100.3359,100.6084 Q1100.1719,100.4209 1099.8672,100.3115 Q1099.5625,100.2021 1099.25,100.2021 Q1098.8672,100.2021 1098.5469,100.3662 Q1098.2344,100.5303 1097.9844,100.9053 Q1097.7422,101.2803 1097.7422,101.7959 L1097.7422,102.3428 Q1097.7422,102.96 1098.1875,103.374 Q1098.6328,103.7803 1099.4297,103.7803 Q1099.8984,103.7803 1100.2266,103.6553 Q1100.4219,103.5771 1100.6328,103.3584 Q1100.7656,103.2256 1100.8359,103.1865 Q1100.9141,103.1475 1101.0156,103.1475 Q1101.1797,103.1475 1101.3047,103.2803 Q1101.4375,103.4053 1101.4375,103.5771 Q1101.4375,103.749 1101.2656,103.9521 Q1101.0156,104.2412 1100.6172,104.4053 Q1100.0781,104.6318 1099.4297,104.6318 Q1098.6719,104.6318 1098.0703,104.3193 Q1097.5781,104.0693 1097.2344,103.5381 Q1096.8906,102.999 1096.8906,102.3584 L1096.8906,101.7803 Q1096.8906,101.1162 1097.1953,100.5459 Q1097.5078,99.9678 1098.0547,99.6631 Q1098.6016,99.3506 1099.2188,99.3506 Q1099.5859,99.3506 1099.9063,99.4365 Q1100.2344,99.5146 1100.5078,99.6943 Z " fill="#000000"/><text fill="#000000" font-family="sans-serif" font-size="7" lengthAdjust="spacing" textLength="43.5" x="1109.375" y="104.6553">GradeService</text><line style="stroke:#181818;stroke-width:0.25;" x1="1045.25" x2="1200.75" y1="109.7568" y2="109.7568"/><rect fill="none" height="3" style="stroke:#C82930;stroke-width:0.5;" width="3" x="1048.75" y="115.6621"/><text fill="#000000" font-family="sans-serif" font-size="7" lengthAdjust="spacing" textLength="108.5" x="1054.75" y="119.3105">GradeRepository gradeRepository</text><line style="stroke:#181818;stroke-width:0.25;" x1="1045.25" x2="1200.75" y1="123.0674" y2="123.0674"/><ellipse cx="1050.25" cy="130.4727" fill="#84BE84" rx="1.5" ry="1.5" style="stroke:#038048;stroke-width:0.5;"/><text fill="#000000" font-family="sans-serif" font-size="7" lengthAdjust="spacing" textLength="87" x="1054.75" y="132.6211">List&lt;Grade&gt; getAllGrades()</text><ellipse cx="1050.25" cy="139.7832" fill="#84BE84" rx="1.5" ry="1.5" style="stroke:#038048;stroke-width:0.5;"/><text fill="#000000" font-family="sans-serif" font-size="7" lengthAdjust="spacing" textLength="84" x="1054.75" y="141.9316">Grade getGradeById(long)</text><ellipse cx="1050.25" cy="149.0938" fill="#84BE84" rx="1.5" ry="1.5" style="stroke:#038048;stroke-width:0.5;"/><text fill="#000000" font-family="sans-serif" font-size="7" lengthAdjust="spacing" textLength="80" x="1054.75" y="151.2422">void createGrade(Grade)</text><ellipse cx="1050.25" cy="158.4043" fill="#84BE84" rx="1.5" ry="1.5" style="stroke:#038048;stroke-width:0.5;"/><text fill="#000000" font-family="sans-serif" font-size="7" lengthAdjust="spacing" textLength="100" x="1054.75" y="160.5527">void updateGrade(Long,Grade)</text><ellipse cx="1050.25" cy="167.7148" fill="#84BE84" rx="1.5" ry="1.5" style="stroke:#038048;stroke-width:0.5;"/><text fill="#000000" font-family="sans-serif" font-size="7" lengthAdjust="spacing" textLength="86.5" x="1054.75" y="169.8633">void deleteGradeById(long)</text><ellipse cx="1050.25" cy="177.0254" fill="#84BE84" rx="1.5" ry="1.5" style="stroke:#038048;stroke-width:0.5;"/><text fill="#000000" font-family="sans-serif" font-size="7" lengthAdjust="spacing" textLength="143.5" x="1054.75" y="179.1738">boolean hasUserAlreadyRatedFilm(long,long)</text><ellipse cx="1050.25" cy="186.3359" fill="#84BE84" rx="1.5" ry="1.5" style="stroke:#038048;stroke-width:0.5;"/><text fill="#000000" font-family="sans-serif" font-size="7" lengthAdjust="spacing" textLength="121" x="1054.75" y="188.4844">List&lt;Grade&gt; getGradesByUserId(long)</text></g><!--class ApplicationUserService--><g id="elem_ApplicationUserService"><rect codeLine="72" fill="#F1F1F1" height="98.4844" id="ApplicationUserService" rx="1.25" ry="1.25" style="stroke:#181818;stroke-width:0.25;" width="180.5" x="682.25" y="236.2568"/><ellipse cx="734.125" cy="244.2568" fill="#ADD1B2" rx="5.5" ry="5.5" style="stroke:#181818;stroke-width:0.5;"/><path d="M735.5078,242.1943 Q735.5859,242.085 735.6797,242.0303 Q735.7734,241.9756 735.8828,241.9756 Q736.0703,241.9756 736.1875,242.1084 Q736.3047,242.2334 736.3047,242.5381 L736.3047,243.2646 Q736.3047,243.5693 736.1875,243.7021 Q736.0703,243.835 735.8828,243.835 Q735.7109,243.835 735.6094,243.7334 Q735.5078,243.6396 735.4531,243.3818 Q735.4297,243.2021 735.3359,243.1084 Q735.1719,242.9209 734.8672,242.8115 Q734.5625,242.7021 734.25,242.7021 Q733.8672,242.7021 733.5469,242.8662 Q733.2344,243.0303 732.9844,243.4053 Q732.7422,243.7803 732.7422,244.2959 L732.7422,244.8428 Q732.7422,245.46 733.1875,245.874 Q733.6328,246.2803 734.4297,246.2803 Q734.8984,246.2803 735.2266,246.1553 Q735.4219,246.0771 735.6328,245.8584 Q735.7656,245.7256 735.8359,245.6865 Q735.9141,245.6475 736.0156,245.6475 Q736.1797,245.6475 736.3047,245.7803 Q736.4375,245.9053 736.4375,246.0771 Q736.4375,246.249 736.2656,246.4521 Q736.0156,246.7412 735.6172,246.9053 Q735.0781,247.1318 734.4297,247.1318 Q733.6719,247.1318 733.0703,246.8193 Q732.5781,246.5693 732.2344,246.0381 Q731.8906,245.499 731.8906,244.8584 L731.8906,244.2803 Q731.8906,243.6162 732.1953,243.0459 Q732.5078,242.4678 733.0547,242.1631 Q733.6016,241.8506 734.2188,241.8506 Q734.5859,241.8506 734.9063,241.9365 Q735.2344,242.0146 735.5078,242.1943 Z " fill="#000000"/><text fill="#000000" font-family="sans-serif" font-size="7" lengthAdjust="spacing" textLength="72.5" x="744.375" y="247.1553">ApplicationUserService</text><line style="stroke:#181818;stroke-width:0.25;" x1="682.75" x2="862.25" y1="252.2568" y2="252.2568"/><rect fill="none" height="3" style="stroke:#C82930;stroke-width:0.5;" width="3" x="686.25" y="258.1621"/><text fill="#000000" font-family="sans-serif" font-size="7" lengthAdjust="spacing" textLength="167.5" x="692.25" y="261.8105">ApplicationUserRepository applicationUserRepository</text><rect fill="none" height="3" style="stroke:#C82930;stroke-width:0.5;" width="3" x="686.25" y="267.4727"/><text fill="#000000" font-family="sans-serif" font-size="7" lengthAdjust="spacing" textLength="115.5" x="692.25" y="271.1211">PasswordEncoder passwordEncoder</text><line style="stroke:#181818;stroke-width:0.25;" x1="682.75" x2="862.25" y1="274.8779" y2="274.8779"/><ellipse cx="687.75" cy="282.2832" fill="#84BE84" rx="1.5" ry="1.5" style="stroke:#038048;stroke-width:0.5;"/><text fill="#000000" font-family="sans-serif" font-size="7" lengthAdjust="spacing" textLength="110.5" x="692.25" y="284.4316">List&lt;ApplicationUser&gt; getAllUsers()</text><ellipse cx="687.75" cy="291.5938" fill="#84BE84" rx="1.5" ry="1.5" style="stroke:#038048;stroke-width:0.5;"/><text fill="#000000" font-family="sans-serif" font-size="7" lengthAdjust="spacing" textLength="107.5" x="692.25" y="293.7422">ApplicationUser getUserById(long)</text><ellipse cx="687.75" cy="300.9043" fill="#84BE84" rx="1.5" ry="1.5" style="stroke:#038048;stroke-width:0.5;"/><text fill="#000000" font-family="sans-serif" font-size="7" lengthAdjust="spacing" textLength="103.5" x="692.25" y="303.0527">void createUser(ApplicationUser)</text><ellipse cx="687.75" cy="310.2148" fill="#84BE84" rx="1.5" ry="1.5" style="stroke:#038048;stroke-width:0.5;"/><text fill="#000000" font-family="sans-serif" font-size="7" lengthAdjust="spacing" textLength="113" x="692.25" y="312.3633">Long findUserIdByUsername(String)</text><ellipse cx="687.75" cy="319.5254" fill="#84BE84" rx="1.5" ry="1.5" style="stroke:#038048;stroke-width:0.5;"/><text fill="#000000" font-family="sans-serif" font-size="7" lengthAdjust="spacing" textLength="111.5" x="692.25" y="321.6738">String findUserPasswordById(Long)</text><ellipse cx="687.75" cy="328.8359" fill="#84BE84" rx="1.5" ry="1.5" style="stroke:#038048;stroke-width:0.5;"/><text fill="#000000" font-family="sans-serif" font-size="7" lengthAdjust="spacing" textLength="118" x="692.25" y="330.9844">boolean checkPassword(Long,String)</text></g><!--class FilmService--><g id="elem_FilmService"><rect codeLine="82" fill="#F1F1F1" height="117.1055" id="FilmService" rx="1.25" ry="1.25" style="stroke:#181818;stroke-width:0.25;" width="332" x="880.5" y="227.0068"/><ellipse cx="1026.125" cy="235.0068" fill="#ADD1B2" rx="5.5" ry="5.5" style="stroke:#181818;stroke-width:0.5;"/><path d="M1027.5078,232.9443 Q1027.5859,232.835 1027.6797,232.7803 Q1027.7734,232.7256 1027.8828,232.7256 Q1028.0703,232.7256 1028.1875,232.8584 Q1028.3047,232.9834 1028.3047,233.2881 L1028.3047,234.0146 Q1028.3047,234.3193 1028.1875,234.4521 Q1028.0703,234.585 1027.8828,234.585 Q1027.7109,234.585 1027.6094,234.4834 Q1027.5078,234.3896 1027.4531,234.1318 Q1027.4297,233.9521 1027.3359,233.8584 Q1027.1719,233.6709 1026.8672,233.5615 Q1026.5625,233.4521 1026.25,233.4521 Q1025.8672,233.4521 1025.5469,233.6162 Q1025.2344,233.7803 1024.9844,234.1553 Q1024.7422,234.5303 1024.7422,235.0459 L1024.7422,235.5928 Q1024.7422,236.21 1025.1875,236.624 Q1025.6328,237.0303 1026.4297,237.0303 Q1026.8984,237.0303 1027.2266,236.9053 Q1027.4219,236.8271 1027.6328,236.6084 Q1027.7656,236.4756 1027.8359,236.4365 Q1027.9141,236.3975 1028.0156,236.3975 Q1028.1797,236.3975 1028.3047,236.5303 Q1028.4375,236.6553 1028.4375,236.8271 Q1028.4375,236.999 1028.2656,237.2021 Q1028.0156,237.4912 1027.6172,237.6553 Q1027.0781,237.8818 1026.4297,237.8818 Q1025.6719,237.8818 1025.0703,237.5693 Q1024.5781,237.3193 1024.2344,236.7881 Q1023.8906,236.249 1023.8906,235.6084 L1023.8906,235.0303 Q1023.8906,234.3662 1024.1953,233.7959 Q1024.5078,233.2178 1025.0547,232.9131 Q1025.6016,232.6006 1026.2188,232.6006 Q1026.5859,232.6006 1026.9063,232.6865 Q1027.2344,232.7646 1027.5078,232.9443 Z " fill="#000000"/><text fill="#000000" font-family="sans-serif" font-size="7" lengthAdjust="spacing" textLength="36.5" x="1036.375" y="237.9053">FilmService</text><line style="stroke:#181818;stroke-width:0.25;" x1="881" x2="1212" y1="243.0068" y2="243.0068"/><rect fill="none" height="3" style="stroke:#C82930;stroke-width:0.5;" width="3" x="884.5" y="248.9121"/><text fill="#000000" font-family="sans-serif" font-size="7" lengthAdjust="spacing" textLength="93.5" x="890.5" y="252.5605">FilmRepository filmRepository</text><rect fill="none" height="3" style="stroke:#C82930;stroke-width:0.5;" width="3" x="884.5" y="258.2227"/><text fill="#000000" font-family="sans-serif" font-size="7" lengthAdjust="spacing" textLength="87.5" x="890.5" y="261.8711">GenreService genreService</text><rect fill="none" height="3" style="stroke:#C82930;stroke-width:0.5;" width="3" x="884.5" y="267.5332"/><text fill="#000000" font-family="sans-serif" font-size="7" lengthAdjust="spacing" textLength="146.5" x="890.5" y="271.1816">ApplicationUserService applicationUserService</text><line style="stroke:#181818;stroke-width:0.25;" x1="881" x2="1212" y1="274.9385" y2="274.9385"/><ellipse cx="886" cy="282.3438" fill="#84BE84" rx="1.5" ry="1.5" style="stroke:#038048;stroke-width:0.5;"/><text fill="#000000" font-family="sans-serif" font-size="7" lengthAdjust="spacing" textLength="73" x="890.5" y="284.4922">List&lt;Film&gt; getAllFilms()</text><ellipse cx="886" cy="291.6543" fill="#84BE84" rx="1.5" ry="1.5" style="stroke:#038048;stroke-width:0.5;"/><text fill="#000000" font-family="sans-serif" font-size="7" lengthAdjust="spacing" textLength="70" x="890.5" y="293.8027">Film getFilmById(long)</text><ellipse cx="886" cy="300.9648" fill="#84BE84" rx="1.5" ry="1.5" style="stroke:#038048;stroke-width:0.5;"/><text fill="#000000" font-family="sans-serif" font-size="7" lengthAdjust="spacing" textLength="66" x="890.5" y="303.1133">void createFilm(Film)</text><ellipse cx="886" cy="310.2754" fill="#84BE84" rx="1.5" ry="1.5" style="stroke:#038048;stroke-width:0.5;"/><text fill="#000000" font-family="sans-serif" font-size="7" lengthAdjust="spacing" textLength="86" x="890.5" y="312.4238">void updateFilm(Long,Film)</text><ellipse cx="886" cy="319.5859" fill="#84BE84" rx="1.5" ry="1.5" style="stroke:#038048;stroke-width:0.5;"/><text fill="#000000" font-family="sans-serif" font-size="7" lengthAdjust="spacing" textLength="79.5" x="890.5" y="321.7344">void deleteFilmById(long)</text><ellipse cx="886" cy="328.8965" fill="#84BE84" rx="1.5" ry="1.5" style="stroke:#038048;stroke-width:0.5;"/><text fill="#000000" font-family="sans-serif" font-size="7" lengthAdjust="spacing" textLength="319" x="890.5" y="331.0449">ArrayList&lt;Film&gt; findFilmsByGenresAndReleaseDateAndRating(Genre,Integer,Integer,Double,Double)</text><ellipse cx="886" cy="338.207" fill="#84BE84" rx="1.5" ry="1.5" style="stroke:#038048;stroke-width:0.5;"/><text fill="#000000" font-family="sans-serif" font-size="7" lengthAdjust="spacing" textLength="135" x="890.5" y="340.3555">List&lt;Long&gt; getLikedFilmIdsByUserId(Long)</text></g><!--class AuthController--><g id="elem_AuthController"><rect codeLine="20" fill="#F1F1F1" height="70.5527" id="AuthController" rx="1.25" ry="1.25" style="stroke:#181818;stroke-width:0.25;" width="180.5" x="62.25" y="107.7568"/><ellipse cx="127.625" cy="115.7568" fill="#ADD1B2" rx="5.5" ry="5.5" style="stroke:#181818;stroke-width:0.5;"/><path d="M129.0078,113.6943 Q129.0859,113.585 129.1797,113.5303 Q129.2734,113.4756 129.3828,113.4756 Q129.5703,113.4756 129.6875,113.6084 Q129.8047,113.7334 129.8047,114.0381 L129.8047,114.7646 Q129.8047,115.0693 129.6875,115.2021 Q129.5703,115.335 129.3828,115.335 Q129.2109,115.335 129.1094,115.2334 Q129.0078,115.1396 128.9531,114.8818 Q128.9297,114.7021 128.8359,114.6084 Q128.6719,114.4209 128.3672,114.3115 Q128.0625,114.2021 127.75,114.2021 Q127.3672,114.2021 127.0469,114.3662 Q126.7344,114.5303 126.4844,114.9053 Q126.2422,115.2803 126.2422,115.7959 L126.2422,116.3428 Q126.2422,116.96 126.6875,117.374 Q127.1328,117.7803 127.9297,117.7803 Q128.3984,117.7803 128.7266,117.6553 Q128.9219,117.5771 129.1328,117.3584 Q129.2656,117.2256 129.3359,117.1865 Q129.4141,117.1475 129.5156,117.1475 Q129.6797,117.1475 129.8047,117.2803 Q129.9375,117.4053 129.9375,117.5771 Q129.9375,117.749 129.7656,117.9521 Q129.5156,118.2412 129.1172,118.4053 Q128.5781,118.6318 127.9297,118.6318 Q127.1719,118.6318 126.5703,118.3193 Q126.0781,118.0693 125.7344,117.5381 Q125.3906,116.999 125.3906,116.3584 L125.3906,115.7803 Q125.3906,115.1162 125.6953,114.5459 Q126.0078,113.9678 126.5547,113.6631 Q127.1016,113.3506 127.7188,113.3506 Q128.0859,113.3506 128.4063,113.4365 Q128.7344,113.5146 129.0078,113.6943 Z " fill="#000000"/><text fill="#000000" font-family="sans-serif" font-size="7" lengthAdjust="spacing" textLength="45.5" x="137.875" y="118.6553">AuthController</text><line style="stroke:#181818;stroke-width:0.25;" x1="62.75" x2="242.25" y1="123.7568" y2="123.7568"/><rect fill="none" height="3" style="stroke:#C82930;stroke-width:0.5;" width="3" x="66.25" y="129.6621"/><text fill="#000000" font-family="sans-serif" font-size="7" lengthAdjust="spacing" textLength="167.5" x="72.25" y="133.3105">ApplicationUserRepository applicationUserRepository</text><rect fill="none" height="3" style="stroke:#C82930;stroke-width:0.5;" width="3" x="66.25" y="138.9727"/><text fill="#000000" font-family="sans-serif" font-size="7" lengthAdjust="spacing" textLength="146.5" x="72.25" y="142.6211">ApplicationUserService applicationUserService</text><line style="stroke:#181818;stroke-width:0.25;" x1="62.75" x2="242.25" y1="146.3779" y2="146.3779"/><ellipse cx="67.75" cy="153.7832" fill="#84BE84" rx="1.5" ry="1.5" style="stroke:#038048;stroke-width:0.5;"/><text fill="#000000" font-family="sans-serif" font-size="7" lengthAdjust="spacing" textLength="44" x="72.25" y="155.9316">String signin()</text><ellipse cx="67.75" cy="163.0938" fill="#84BE84" rx="1.5" ry="1.5" style="stroke:#038048;stroke-width:0.5;"/><text fill="#000000" font-family="sans-serif" font-size="7" lengthAdjust="spacing" textLength="65.5" x="72.25" y="165.2422">String signup(Model)</text><ellipse cx="67.75" cy="172.4043" fill="#84BE84" rx="1.5" ry="1.5" style="stroke:#038048;stroke-width:0.5;"/><text fill="#000000" font-family="sans-serif" font-size="7" lengthAdjust="spacing" textLength="116.5" x="72.25" y="174.5527">String signup(ApplicationUser,Model)</text></g><!--class ApplicationUserController--><g id="elem_ApplicationUserController"><rect codeLine="27" fill="#F1F1F1" height="51.9316" id="ApplicationUserController" rx="1.25" ry="1.25" style="stroke:#181818;stroke-width:0.25;" width="159.5" x="260.25" y="117.0068"/><ellipse cx="297.875" cy="125.0068" fill="#ADD1B2" rx="5.5" ry="5.5" style="stroke:#181818;stroke-width:0.5;"/><path d="M299.2578,122.9443 Q299.3359,122.835 299.4297,122.7803 Q299.5234,122.7256 299.6328,122.7256 Q299.8203,122.7256 299.9375,122.8584 Q300.0547,122.9834 300.0547,123.2881 L300.0547,124.0146 Q300.0547,124.3193 299.9375,124.4521 Q299.8203,124.585 299.6328,124.585 Q299.4609,124.585 299.3594,124.4834 Q299.2578,124.3896 299.2031,124.1318 Q299.1797,123.9521 299.0859,123.8584 Q298.9219,123.6709 298.6172,123.5615 Q298.3125,123.4521 298,123.4521 Q297.6172,123.4521 297.2969,123.6162 Q296.9844,123.7803 296.7344,124.1553 Q296.4922,124.5303 296.4922,125.0459 L296.4922,125.5928 Q296.4922,126.21 296.9375,126.624 Q297.3828,127.0303 298.1797,127.0303 Q298.6484,127.0303 298.9766,126.9053 Q299.1719,126.8271 299.3828,126.6084 Q299.5156,126.4756 299.5859,126.4365 Q299.6641,126.3975 299.7656,126.3975 Q299.9297,126.3975 300.0547,126.5303 Q300.1875,126.6553 300.1875,126.8271 Q300.1875,126.999 300.0156,127.2021 Q299.7656,127.4912 299.3672,127.6553 Q298.8281,127.8818 298.1797,127.8818 Q297.4219,127.8818 296.8203,127.5693 Q296.3281,127.3193 295.9844,126.7881 Q295.6406,126.249 295.6406,125.6084 L295.6406,125.0303 Q295.6406,124.3662 295.9453,123.7959 Q296.2578,123.2178 296.8047,122.9131 Q297.3516,122.6006 297.9688,122.6006 Q298.3359,122.6006 298.6563,122.6865 Q298.9844,122.7646 299.2578,122.9443 Z " fill="#000000"/><text fill="#000000" font-family="sans-serif" font-size="7" lengthAdjust="spacing" textLength="80" x="308.125" y="127.9053">ApplicationUserController</text><line style="stroke:#181818;stroke-width:0.25;" x1="260.75" x2="419.25" y1="133.0068" y2="133.0068"/><rect fill="none" height="3" style="stroke:#C82930;stroke-width:0.5;" width="3" x="264.25" y="138.9121"/><text fill="#000000" font-family="sans-serif" font-size="7" lengthAdjust="spacing" textLength="146.5" x="270.25" y="142.5605">ApplicationUserService applicationUserService</text><line style="stroke:#181818;stroke-width:0.25;" x1="260.75" x2="419.25" y1="146.3174" y2="146.3174"/><ellipse cx="265.75" cy="153.7227" fill="#84BE84" rx="1.5" ry="1.5" style="stroke:#038048;stroke-width:0.5;"/><text fill="#000000" font-family="sans-serif" font-size="7" lengthAdjust="spacing" textLength="110.5" x="270.25" y="155.8711">List&lt;ApplicationUser&gt; getAllUsers()</text><ellipse cx="265.75" cy="163.0332" fill="#84BE84" rx="1.5" ry="1.5" style="stroke:#038048;stroke-width:0.5;"/><text fill="#000000" font-family="sans-serif" font-size="7" lengthAdjust="spacing" textLength="107.5" x="270.25" y="165.1816">ApplicationUser getUserById(long)</text></g><!--class ProfilePage--><g id="elem_ProfilePage"><rect codeLine="32" fill="#F1F1F1" height="79.8633" id="ProfilePage" rx="1.25" ry="1.25" style="stroke:#181818;stroke-width:0.25;" width="159.5" x="437.25" y="103.0068"/><ellipse cx="496.625" cy="111.0068" fill="#ADD1B2" rx="5.5" ry="5.5" style="stroke:#181818;stroke-width:0.5;"/><path d="M498.0078,108.9443 Q498.0859,108.835 498.1797,108.7803 Q498.2734,108.7256 498.3828,108.7256 Q498.5703,108.7256 498.6875,108.8584 Q498.8047,108.9834 498.8047,109.2881 L498.8047,110.0146 Q498.8047,110.3193 498.6875,110.4521 Q498.5703,110.585 498.3828,110.585 Q498.2109,110.585 498.1094,110.4834 Q498.0078,110.3896 497.9531,110.1318 Q497.9297,109.9521 497.8359,109.8584 Q497.6719,109.6709 497.3672,109.5615 Q497.0625,109.4521 496.75,109.4521 Q496.3672,109.4521 496.0469,109.6162 Q495.7344,109.7803 495.4844,110.1553 Q495.2422,110.5303 495.2422,111.0459 L495.2422,111.5928 Q495.2422,112.21 495.6875,112.624 Q496.1328,113.0303 496.9297,113.0303 Q497.3984,113.0303 497.7266,112.9053 Q497.9219,112.8271 498.1328,112.6084 Q498.2656,112.4756 498.3359,112.4365 Q498.4141,112.3975 498.5156,112.3975 Q498.6797,112.3975 498.8047,112.5303 Q498.9375,112.6553 498.9375,112.8271 Q498.9375,112.999 498.7656,113.2021 Q498.5156,113.4912 498.1172,113.6553 Q497.5781,113.8818 496.9297,113.8818 Q496.1719,113.8818 495.5703,113.5693 Q495.0781,113.3193 494.7344,112.7881 Q494.3906,112.249 494.3906,111.6084 L494.3906,111.0303 Q494.3906,110.3662 494.6953,109.7959 Q495.0078,109.2178 495.5547,108.9131 Q496.1016,108.6006 496.7188,108.6006 Q497.0859,108.6006 497.4063,108.6865 Q497.7344,108.7646 498.0078,108.9443 Z " fill="#000000"/><text fill="#000000" font-family="sans-serif" font-size="7" lengthAdjust="spacing" textLength="36.5" x="506.875" y="113.9053">ProfilePage</text><line style="stroke:#181818;stroke-width:0.25;" x1="437.75" x2="596.25" y1="119.0068" y2="119.0068"/><rect fill="none" height="3" style="stroke:#C82930;stroke-width:0.5;" width="3" x="441.25" y="124.9121"/><text fill="#000000" font-family="sans-serif" font-size="7" lengthAdjust="spacing" textLength="146.5" x="447.25" y="128.5605">ApplicationUserService applicationUserService</text><rect fill="none" height="3" style="stroke:#C82930;stroke-width:0.5;" width="3" x="441.25" y="134.2227"/><text fill="#000000" font-family="sans-serif" font-size="7" lengthAdjust="spacing" textLength="91.5" x="447.25" y="137.8711">ReviewService reviewService</text><rect fill="none" height="3" style="stroke:#C82930;stroke-width:0.5;" width="3" x="441.25" y="143.5332"/><text fill="#000000" font-family="sans-serif" font-size="7" lengthAdjust="spacing" textLength="87.5" x="447.25" y="147.1816">GradeService gradeService</text><rect fill="none" height="3" style="stroke:#C82930;stroke-width:0.5;" width="3" x="441.25" y="152.8438"/><text fill="#000000" font-family="sans-serif" font-size="7" lengthAdjust="spacing" textLength="72.5" x="447.25" y="156.4922">FilmService filmService</text><line style="stroke:#181818;stroke-width:0.25;" x1="437.75" x2="596.25" y1="160.249" y2="160.249"/><ellipse cx="442.75" cy="167.6543" fill="#84BE84" rx="1.5" ry="1.5" style="stroke:#038048;stroke-width:0.5;"/><text fill="#000000" font-family="sans-serif" font-size="7" lengthAdjust="spacing" textLength="124" x="447.25" y="169.8027">String showUserProfile(Model,Principal)</text><ellipse cx="442.75" cy="176.9648" fill="#84BE84" rx="1.5" ry="1.5" style="stroke:#038048;stroke-width:0.5;"/><text fill="#000000" font-family="sans-serif" font-size="7" lengthAdjust="spacing" textLength="86" x="447.25" y="179.1133">String deleteReview(String)</text></g><!--class HomePage--><g id="elem_HomePage"><rect codeLine="40" fill="#F1F1F1" height="61.2422" id="HomePage" rx="1.25" ry="1.25" style="stroke:#181818;stroke-width:0.25;" width="210.5" x="47.25" y="255.0068"/><ellipse cx="133.125" cy="263.0068" fill="#ADD1B2" rx="5.5" ry="5.5" style="stroke:#181818;stroke-width:0.5;"/><path d="M134.5078,260.9443 Q134.5859,260.835 134.6797,260.7803 Q134.7734,260.7256 134.8828,260.7256 Q135.0703,260.7256 135.1875,260.8584 Q135.3047,260.9834 135.3047,261.2881 L135.3047,262.0146 Q135.3047,262.3193 135.1875,262.4521 Q135.0703,262.585 134.8828,262.585 Q134.7109,262.585 134.6094,262.4834 Q134.5078,262.3896 134.4531,262.1318 Q134.4297,261.9521 134.3359,261.8584 Q134.1719,261.6709 133.8672,261.5615 Q133.5625,261.4521 133.25,261.4521 Q132.8672,261.4521 132.5469,261.6162 Q132.2344,261.7803 131.9844,262.1553 Q131.7422,262.5303 131.7422,263.0459 L131.7422,263.5928 Q131.7422,264.21 132.1875,264.624 Q132.6328,265.0303 133.4297,265.0303 Q133.8984,265.0303 134.2266,264.9053 Q134.4219,264.8271 134.6328,264.6084 Q134.7656,264.4756 134.8359,264.4365 Q134.9141,264.3975 135.0156,264.3975 Q135.1797,264.3975 135.3047,264.5303 Q135.4375,264.6553 135.4375,264.8271 Q135.4375,264.999 135.2656,265.2021 Q135.0156,265.4912 134.6172,265.6553 Q134.0781,265.8818 133.4297,265.8818 Q132.6719,265.8818 132.0703,265.5693 Q131.5781,265.3193 131.2344,264.7881 Q130.8906,264.249 130.8906,263.6084 L130.8906,263.0303 Q130.8906,262.3662 131.1953,261.7959 Q131.5078,261.2178 132.0547,260.9131 Q132.6016,260.6006 133.2188,260.6006 Q133.5859,260.6006 133.9063,260.6865 Q134.2344,260.7646 134.5078,260.9443 Z " fill="#000000"/><text fill="#000000" font-family="sans-serif" font-size="7" lengthAdjust="spacing" textLength="34.5" x="143.375" y="265.9053">HomePage</text><line style="stroke:#181818;stroke-width:0.25;" x1="47.75" x2="257.25" y1="271.0068" y2="271.0068"/><rect fill="none" height="3" style="stroke:#C82930;stroke-width:0.5;" width="3" x="51.25" y="276.9121"/><text fill="#000000" font-family="sans-serif" font-size="7" lengthAdjust="spacing" textLength="72.5" x="57.25" y="280.5605">FilmService filmService</text><rect fill="none" height="3" style="stroke:#C82930;stroke-width:0.5;" width="3" x="51.25" y="286.2227"/><text fill="#000000" font-family="sans-serif" font-size="7" lengthAdjust="spacing" textLength="87.5" x="57.25" y="289.8711">GenreService genreService</text><line style="stroke:#181818;stroke-width:0.25;" x1="47.75" x2="257.25" y1="293.6279" y2="293.6279"/><ellipse cx="52.75" cy="301.0332" fill="#84BE84" rx="1.5" ry="1.5" style="stroke:#038048;stroke-width:0.5;"/><text fill="#000000" font-family="sans-serif" font-size="7" lengthAdjust="spacing" textLength="78.5" x="57.25" y="303.1816">String homePage(Model)</text><ellipse cx="52.75" cy="310.3438" fill="#84BE84" rx="1.5" ry="1.5" style="stroke:#038048;stroke-width:0.5;"/><text fill="#000000" font-family="sans-serif" font-size="7" lengthAdjust="spacing" textLength="197.5" x="57.25" y="312.4922">String homePage(Model,Genre,Integer,Integer,Double,Double)</text></g><!--class AdminPage--><g id="elem_AdminPage"><rect codeLine="56" fill="#F1F1F1" height="51.9316" id="AdminPage" rx="1.25" ry="1.25" style="stroke:#181818;stroke-width:0.25;" width="159.5" x="275.25" y="259.5068"/><ellipse cx="334.875" cy="267.5068" fill="#ADD1B2" rx="5.5" ry="5.5" style="stroke:#181818;stroke-width:0.5;"/><path d="M336.2578,265.4443 Q336.3359,265.335 336.4297,265.2803 Q336.5234,265.2256 336.6328,265.2256 Q336.8203,265.2256 336.9375,265.3584 Q337.0547,265.4834 337.0547,265.7881 L337.0547,266.5146 Q337.0547,266.8193 336.9375,266.9521 Q336.8203,267.085 336.6328,267.085 Q336.4609,267.085 336.3594,266.9834 Q336.2578,266.8896 336.2031,266.6318 Q336.1797,266.4521 336.0859,266.3584 Q335.9219,266.1709 335.6172,266.0615 Q335.3125,265.9521 335,265.9521 Q334.6172,265.9521 334.2969,266.1162 Q333.9844,266.2803 333.7344,266.6553 Q333.4922,267.0303 333.4922,267.5459 L333.4922,268.0928 Q333.4922,268.71 333.9375,269.124 Q334.3828,269.5303 335.1797,269.5303 Q335.6484,269.5303 335.9766,269.4053 Q336.1719,269.3271 336.3828,269.1084 Q336.5156,268.9756 336.5859,268.9365 Q336.6641,268.8975 336.7656,268.8975 Q336.9297,268.8975 337.0547,269.0303 Q337.1875,269.1553 337.1875,269.3271 Q337.1875,269.499 337.0156,269.7021 Q336.7656,269.9912 336.3672,270.1553 Q335.8281,270.3818 335.1797,270.3818 Q334.4219,270.3818 333.8203,270.0693 Q333.3281,269.8193 332.9844,269.2881 Q332.6406,268.749 332.6406,268.1084 L332.6406,267.5303 Q332.6406,266.8662 332.9453,266.2959 Q333.2578,265.7178 333.8047,265.4131 Q334.3516,265.1006 334.9688,265.1006 Q335.3359,265.1006 335.6563,265.1865 Q335.9844,265.2646 336.2578,265.4443 Z " fill="#000000"/><text fill="#000000" font-family="sans-serif" font-size="7" lengthAdjust="spacing" textLength="36" x="345.125" y="270.4053">AdminPage</text><line style="stroke:#181818;stroke-width:0.25;" x1="275.75" x2="434.25" y1="275.5068" y2="275.5068"/><rect fill="none" height="3" style="stroke:#C82930;stroke-width:0.5;" width="3" x="279.25" y="281.4121"/><text fill="#000000" font-family="sans-serif" font-size="7" lengthAdjust="spacing" textLength="146.5" x="285.25" y="285.0605">ApplicationUserService applicationUserService</text><rect fill="none" height="3" style="stroke:#C82930;stroke-width:0.5;" width="3" x="279.25" y="290.7227"/><text fill="#000000" font-family="sans-serif" font-size="7" lengthAdjust="spacing" textLength="72.5" x="285.25" y="294.3711">FilmService filmService</text><line style="stroke:#181818;stroke-width:0.25;" x1="275.75" x2="434.25" y1="298.1279" y2="298.1279"/><ellipse cx="280.75" cy="305.5332" fill="#84BE84" rx="1.5" ry="1.5" style="stroke:#038048;stroke-width:0.5;"/><text fill="#000000" font-family="sans-serif" font-size="7" lengthAdjust="spacing" textLength="124" x="285.25" y="307.6816">String showUserProfile(Model,Principal)</text></g><!--class FilmPage--><g id="elem_FilmPage"><rect codeLine="61" fill="#F1F1F1" height="107.7949" id="FilmPage" rx="1.25" ry="1.25" style="stroke:#181818;stroke-width:0.25;" width="201.5" x="452.25" y="231.5068"/><ellipse cx="536.125" cy="239.5068" fill="#ADD1B2" rx="5.5" ry="5.5" style="stroke:#181818;stroke-width:0.5;"/><path d="M537.5078,237.4443 Q537.5859,237.335 537.6797,237.2803 Q537.7734,237.2256 537.8828,237.2256 Q538.0703,237.2256 538.1875,237.3584 Q538.3047,237.4834 538.3047,237.7881 L538.3047,238.5146 Q538.3047,238.8193 538.1875,238.9521 Q538.0703,239.085 537.8828,239.085 Q537.7109,239.085 537.6094,238.9834 Q537.5078,238.8896 537.4531,238.6318 Q537.4297,238.4521 537.3359,238.3584 Q537.1719,238.1709 536.8672,238.0615 Q536.5625,237.9521 536.25,237.9521 Q535.8672,237.9521 535.5469,238.1162 Q535.2344,238.2803 534.9844,238.6553 Q534.7422,239.0303 534.7422,239.5459 L534.7422,240.0928 Q534.7422,240.71 535.1875,241.124 Q535.6328,241.5303 536.4297,241.5303 Q536.8984,241.5303 537.2266,241.4053 Q537.4219,241.3271 537.6328,241.1084 Q537.7656,240.9756 537.8359,240.9365 Q537.9141,240.8975 538.0156,240.8975 Q538.1797,240.8975 538.3047,241.0303 Q538.4375,241.1553 538.4375,241.3271 Q538.4375,241.499 538.2656,241.7021 Q538.0156,241.9912 537.6172,242.1553 Q537.0781,242.3818 536.4297,242.3818 Q535.6719,242.3818 535.0703,242.0693 Q534.5781,241.8193 534.2344,241.2881 Q533.8906,240.749 533.8906,240.1084 L533.8906,239.5303 Q533.8906,238.8662 534.1953,238.2959 Q534.5078,237.7178 535.0547,237.4131 Q535.6016,237.1006 536.2188,237.1006 Q536.5859,237.1006 536.9063,237.1865 Q537.2344,237.2646 537.5078,237.4443 Z " fill="#000000"/><text fill="#000000" font-family="sans-serif" font-size="7" lengthAdjust="spacing" textLength="29.5" x="546.375" y="242.4053">FilmPage</text><line style="stroke:#181818;stroke-width:0.25;" x1="452.75" x2="653.25" y1="247.5068" y2="247.5068"/><rect fill="none" height="3" style="stroke:#C82930;stroke-width:0.5;" width="3" x="456.25" y="253.4121"/><text fill="#000000" font-family="sans-serif" font-size="7" lengthAdjust="spacing" textLength="72.5" x="462.25" y="257.0605">FilmService filmService</text><rect fill="none" height="3" style="stroke:#C82930;stroke-width:0.5;" width="3" x="456.25" y="262.7227"/><text fill="#000000" font-family="sans-serif" font-size="7" lengthAdjust="spacing" textLength="87.5" x="462.25" y="266.3711">GenreService genreService</text><rect fill="none" height="3" style="stroke:#C82930;stroke-width:0.5;" width="3" x="456.25" y="272.0332"/><text fill="#000000" font-family="sans-serif" font-size="7" lengthAdjust="spacing" textLength="146.5" x="462.25" y="275.6816">ApplicationUserService applicationUserService</text><rect fill="none" height="3" style="stroke:#C82930;stroke-width:0.5;" width="3" x="456.25" y="281.3438"/><text fill="#000000" font-family="sans-serif" font-size="7" lengthAdjust="spacing" textLength="87.5" x="462.25" y="284.9922">GradeService gradeService</text><rect fill="none" height="3" style="stroke:#C82930;stroke-width:0.5;" width="3" x="456.25" y="290.6543"/><text fill="#000000" font-family="sans-serif" font-size="7" lengthAdjust="spacing" textLength="91.5" x="462.25" y="294.3027">ReviewService reviewService</text><line style="stroke:#181818;stroke-width:0.25;" x1="452.75" x2="653.25" y1="298.0596" y2="298.0596"/><ellipse cx="457.75" cy="305.4648" fill="#84BE84" rx="1.5" ry="1.5" style="stroke:#038048;stroke-width:0.5;"/><text fill="#000000" font-family="sans-serif" font-size="7" lengthAdjust="spacing" textLength="170" x="462.25" y="307.6133">String getFilmDetails(Long,Model,HttpServletRequest)</text><ellipse cx="457.75" cy="314.7754" fill="#84BE84" rx="1.5" ry="1.5" style="stroke:#038048;stroke-width:0.5;"/><text fill="#000000" font-family="sans-serif" font-size="7" lengthAdjust="spacing" textLength="141" x="462.25" y="316.9238">ResponseEntity&lt;String&gt; likeMovie(long,long)</text><ellipse cx="457.75" cy="324.0859" fill="#84BE84" rx="1.5" ry="1.5" style="stroke:#038048;stroke-width:0.5;"/><text fill="#000000" font-family="sans-serif" font-size="7" lengthAdjust="spacing" textLength="186" x="462.25" y="326.2344">ResponseEntity&lt;String&gt; submitGrade(Map&lt;String,Object&gt;)</text><ellipse cx="457.75" cy="333.3965" fill="#84BE84" rx="1.5" ry="1.5" style="stroke:#038048;stroke-width:0.5;"/><text fill="#000000" font-family="sans-serif" font-size="7" lengthAdjust="spacing" textLength="188.5" x="462.25" y="335.5449">ResponseEntity&lt;String&gt; submitReview(Map&lt;String,Object&gt;)</text></g><!--SRC=[hLTVJzim47_dK-Gnqxf-0eHK1Xj88AgYFICtEL8FnyuSjon2VFVvV7PgfosiWPVOTp_xVF-lBGHhswnGzHJ-iheHCAtLXiE3PeRBwg45lU45JCFw4wI6UoAobvDlcMCie54jDqftMPNI9r-p6zwQKtVipA9c9eGZsloB1TqMsMvptbsN-OsI5K8RnSkiqC0CE31ttnvPDsMFu9L92fSWmCDEgd1INq-Au-nTW0MVOuE94rci1unWCXqCDXD5HjCU0Tf52YPc4vhJCZ3SOyxomG4oVO_ekyPm9Pc8LVDwdNS_kAWZxo-L4i1ajcBjJ5Xjocu11V0DbB-iR_phA7WIf0-DxYNZXUCZK2Xfj182z7IsDgllFUcYC6iQmGk6zf0-VJZO8MJtLWWhsyks9jqRRLNAMbv9Bbte8iwwoM-LzVKkU_3Cn1yRPNegwcqll6kF2z7WKaXGt5Dw3WuWZkkOCeeicMlro0NCMGKZT0zr5uxfcC8sf5dPzwKg8Yo6cHsWn-q-2jjAFUDZNaKAwsHkiO8tB0vmN5evySPvuqhLMrSSKj1trzwiYDYgjFAITf8n1QWzJgwbWSgcP5Wlr7efm2yZ-cFYzvSGY7WUf7G_3v3TpmCa_3p0hPi7k3dK61sOk-zm7ZY4va42-tcm8pNgSvW2eTTPKIM6PK-BswfEUdz6WojhBaTNniVpUupE-Eg7ClXuGzygyhVQG-y86pFKz08CuwAbD25dN1dJu761S-lF6bf3Wxfjb6pXKXfkkbEISfO9_WItw9uqEmwSRjVBcbEkvBUiyVp9tV8t5ERitOk-sUoxUNIr7d3u-84wjyy_ArrUoiAwKMTDId_Yo4dg7x7Xb7NrQO_Q_9CbLIHLfcGrzBswJuLmAbYG_FGCJQ5OGV4KJb2w7DtqmngNI2YPoCkF2VcfXUE3W0y6p-EUF8-xK1U7tEqQ8Nu6pTRndLSIa5hjZi2PrgoBDC48E3tEE_f3C9FbmbvbBLnOuKWvJ-R_DRcyaQYDC_B6rcX9lsct7PhY-_eF]--></g></svg>