<?xml version="1.0" encoding="us-ascii" standalone="no"?><svg xmlns="http://www.w3.org/2000/svg" xmlns:xlink="http://www.w3.org/1999/xlink" contentStyleType="text/css" height="413.2px" preserveAspectRatio="none" style="width:1615px;height:413px;background:#FFFFFF;" version="1.1" viewBox="0 0 1615 413" width="1615.2px" zoomAndPan="magnify"><defs/><g><!--cluster com--><g id="cluster_com"><path d="M3.4,190.4055 L15.4,190.4055 A1.5,1.5 0 0 1 16.4,191.4055 L19.2,200.2539 L1611.4,200.2539 A1,1 0 0 1 1612.4,201.2539 L1612.4,409.4055 A1,1 0 0 1 1611.4,410.4055 L3.4,410.4055 A1,1 0 0 1 2.4,409.4055 L2.4,191.4055 A1,1 0 0 1 3.4,190.4055 " fill="none" style="stroke:#000000;stroke-width:0.6000000000000001;"/><line style="stroke:#000000;stroke-width:0.6000000000000001;" x1="2.4" x2="19.2" y1="200.2539" y2="200.2539"/><text fill="#000000" font-family="sans-serif" font-size="5.6" font-weight="bold" lengthAdjust="spacing" textLength="11.6" x="4" y="197.2484">com</text></g><!--cluster example--><g id="cluster_example"><path d="M13,208.4055 L37,208.4055 A1.5,1.5 0 0 1 38,209.4055 L40.8,218.2539 L1601.8,218.2539 A1,1 0 0 1 1602.8,219.2539 L1602.8,399.8055 A1,1 0 0 1 1601.8,400.8055 L13,400.8055 A1,1 0 0 1 12,399.8055 L12,209.4055 A1,1 0 0 1 13,208.4055 " fill="none" style="stroke:#000000;stroke-width:0.6000000000000001;"/><line style="stroke:#000000;stroke-width:0.6000000000000001;" x1="12" x2="40.8" y1="218.2539" y2="218.2539"/><text fill="#000000" font-family="sans-serif" font-size="5.6" font-weight="bold" lengthAdjust="spacing" textLength="23.6" x="13.6" y="215.2484">example</text></g><!--cluster movie_rating_service--><g id="cluster_movie_rating_service"><path d="M22.6,226.4055 L84.2,226.4055 A1.5,1.5 0 0 1 85.2,227.4055 L88,236.2539 L1592.2,236.2539 A1,1 0 0 1 1593.2,237.2539 L1593.2,390.2055 A1,1 0 0 1 1592.2,391.2055 L22.6,391.2055 A1,1 0 0 1 21.6,390.2055 L21.6,227.4055 A1,1 0 0 1 22.6,226.4055 " fill="none" style="stroke:#000000;stroke-width:0.6000000000000001;"/><line style="stroke:#000000;stroke-width:0.6000000000000001;" x1="21.6" x2="88" y1="236.2539" y2="236.2539"/><text fill="#000000" font-family="sans-serif" font-size="5.6" font-weight="bold" lengthAdjust="spacing" textLength="61.2" x="23.2" y="233.2484">movie_rating_service</text></g><!--cluster repositories--><g id="cluster_repositories"><path d="M691,281.6055 L725.8,281.6055 A1.5,1.5 0 0 1 726.8,282.6055 L729.6,291.4539 L1582.6,291.4539 A1,1 0 0 1 1583.6,292.4539 L1583.6,343.4055 A1,1 0 0 1 1582.6,344.4055 L691,344.4055 A1,1 0 0 1 690,343.4055 L690,282.6055 A1,1 0 0 1 691,281.6055 " fill="none" style="stroke:#000000;stroke-width:0.6000000000000001;"/><line style="stroke:#000000;stroke-width:0.6000000000000001;" x1="690" x2="729.6" y1="291.4539" y2="291.4539"/><text fill="#000000" font-family="sans-serif" font-size="5.6" font-weight="bold" lengthAdjust="spacing" textLength="34.4" x="691.6" y="288.4484">repositories</text></g><!--cluster config--><g id="cluster_config"><path d="M32.2,244.4055 L50.2,244.4055 A1.5,1.5 0 0 1 51.2,245.4055 L54,254.2539 L679.4,254.2539 A1,1 0 0 1 680.4,255.2539 L680.4,380.6055 A1,1 0 0 1 679.4,381.6055 L32.2,381.6055 A1,1 0 0 1 31.2,380.6055 L31.2,245.4055 A1,1 0 0 1 32.2,244.4055 " fill="none" style="stroke:#000000;stroke-width:0.6000000000000001;"/><line style="stroke:#000000;stroke-width:0.6000000000000001;" x1="31.2" x2="54" y1="254.2539" y2="254.2539"/><text fill="#000000" font-family="sans-serif" font-size="5.6" font-weight="bold" lengthAdjust="spacing" textLength="17.6" x="32.8" y="251.2484">config</text></g><!--cluster org--><g id="cluster_org"><path d="M613,2.4055 L623,2.4055 A1.5,1.5 0 0 1 624,3.4055 L626.8,12.2539 L1068.2,12.2539 A1,1 0 0 1 1069.2,13.2539 L1069.2,179.8055 A1,1 0 0 1 1068.2,180.8055 L613,180.8055 A1,1 0 0 1 612,179.8055 L612,3.4055 A1,1 0 0 1 613,2.4055 " fill="none" style="stroke:#000000;stroke-width:0.6000000000000001;"/><line style="stroke:#000000;stroke-width:0.6000000000000001;" x1="612" x2="626.8" y1="12.2539" y2="12.2539"/><text fill="#000000" font-family="sans-serif" font-size="5.6" font-weight="bold" lengthAdjust="spacing" textLength="9.6" x="613.6" y="9.2484">org</text></g><!--cluster springframework--><g id="cluster_springframework"><path d="M622.6,20.4055 L670.6,20.4055 A1.5,1.5 0 0 1 671.6,21.4055 L674.4,30.2539 L1058.6,30.2539 A1,1 0 0 1 1059.6,31.2539 L1059.6,170.2055 A1,1 0 0 1 1058.6,171.2055 L622.6,171.2055 A1,1 0 0 1 621.6,170.2055 L621.6,21.4055 A1,1 0 0 1 622.6,20.4055 " fill="none" style="stroke:#000000;stroke-width:0.6000000000000001;"/><line style="stroke:#000000;stroke-width:0.6000000000000001;" x1="621.6" x2="674.4" y1="30.2539" y2="30.2539"/><text fill="#000000" font-family="sans-serif" font-size="5.6" font-weight="bold" lengthAdjust="spacing" textLength="47.6" x="623.2" y="27.2484">springframework</text></g><!--cluster data--><g id="cluster_data"><path d="M951,56.4055 L963.4,56.4055 A1.5,1.5 0 0 1 964.4,57.4055 L967.2,66.2539 L1049,66.2539 A1,1 0 0 1 1050,67.2539 L1050,151.0055 A1,1 0 0 1 1049,152.0055 L951,152.0055 A1,1 0 0 1 950,151.0055 L950,57.4055 A1,1 0 0 1 951,56.4055 " fill="none" style="stroke:#000000;stroke-width:0.6000000000000001;"/><line style="stroke:#000000;stroke-width:0.6000000000000001;" x1="950" x2="967.2" y1="66.2539" y2="66.2539"/><text fill="#000000" font-family="sans-serif" font-size="5.6" font-weight="bold" lengthAdjust="spacing" textLength="12" x="951.6" y="63.2484">data</text></g><!--cluster jpa--><g id="cluster_jpa"><path d="M960.6,74.4055 L969.4,74.4055 A1.5,1.5 0 0 1 970.4,75.4055 L973.2,84.2539 L1039.4,84.2539 A1,1 0 0 1 1040.4,85.2539 L1040.4,141.4055 A1,1 0 0 1 1039.4,142.4055 L960.6,142.4055 A1,1 0 0 1 959.6,141.4055 L959.6,75.4055 A1,1 0 0 1 960.6,74.4055 " fill="none" style="stroke:#000000;stroke-width:0.6000000000000001;"/><line style="stroke:#000000;stroke-width:0.6000000000000001;" x1="959.6" x2="973.2" y1="84.2539" y2="84.2539"/><text fill="#000000" font-family="sans-serif" font-size="5.6" font-weight="bold" lengthAdjust="spacing" textLength="8.4" x="961.2" y="81.2484">jpa</text></g><!--cluster repository--><g id="cluster_repository"><path d="M970.2,92.4055 L999.4,92.4055 A1.5,1.5 0 0 1 1000.4,93.4055 L1003.2,102.2539 L1029.8,102.2539 A1,1 0 0 1 1030.8,103.2539 L1030.8,131.8055 A1,1 0 0 1 1029.8,132.8055 L970.2,132.8055 A1,1 0 0 1 969.2,131.8055 L969.2,93.4055 A1,1 0 0 1 970.2,92.4055 " fill="none" style="stroke:#000000;stroke-width:0.6000000000000001;"/><line style="stroke:#000000;stroke-width:0.6000000000000001;" x1="969.2" x2="1003.2" y1="102.2539" y2="102.2539"/><text fill="#000000" font-family="sans-serif" font-size="5.6" font-weight="bold" lengthAdjust="spacing" textLength="28.8" x="970.8" y="99.2484">repository</text></g><!--cluster security--><g id="cluster_security"><path d="M773.8,56.4055 L796.6,56.4055 A1.5,1.5 0 0 1 797.6,57.4055 L800.4,66.2539 L939.4,66.2539 A1,1 0 0 1 940.4,67.2539 L940.4,151.0055 A1,1 0 0 1 939.4,152.0055 L773.8,152.0055 A1,1 0 0 1 772.8,151.0055 L772.8,57.4055 A1,1 0 0 1 773.8,56.4055 " fill="none" style="stroke:#000000;stroke-width:0.6000000000000001;"/><line style="stroke:#000000;stroke-width:0.6000000000000001;" x1="772.8" x2="800.4" y1="66.2539" y2="66.2539"/><text fill="#000000" font-family="sans-serif" font-size="5.6" font-weight="bold" lengthAdjust="spacing" textLength="22.4" x="774.4" y="63.2484">security</text></g><!--cluster core--><g id="cluster_core"><path d="M783.4,74.4055 L796.6,74.4055 A1.5,1.5 0 0 1 797.6,75.4055 L800.4,84.2539 L929.8,84.2539 A1,1 0 0 1 930.8,85.2539 L930.8,141.4055 A1,1 0 0 1 929.8,142.4055 L783.4,142.4055 A1,1 0 0 1 782.4,141.4055 L782.4,75.4055 A1,1 0 0 1 783.4,74.4055 " fill="none" style="stroke:#000000;stroke-width:0.6000000000000001;"/><line style="stroke:#000000;stroke-width:0.6000000000000001;" x1="782.4" x2="800.4" y1="84.2539" y2="84.2539"/><text fill="#000000" font-family="sans-serif" font-size="5.6" font-weight="bold" lengthAdjust="spacing" textLength="12.8" x="784" y="81.2484">core</text></g><!--cluster userdetails--><g id="cluster_userdetails"><path d="M793,92.4055 L825,92.4055 A1.5,1.5 0 0 1 826,93.4055 L828.8,102.2539 L920.2,102.2539 A1,1 0 0 1 921.2,103.2539 L921.2,131.8055 A1,1 0 0 1 920.2,132.8055 L793,132.8055 A1,1 0 0 1 792,131.8055 L792,93.4055 A1,1 0 0 1 793,92.4055 " fill="none" style="stroke:#000000;stroke-width:0.6000000000000001;"/><line style="stroke:#000000;stroke-width:0.6000000000000001;" x1="792" x2="828.8" y1="102.2539" y2="102.2539"/><text fill="#000000" font-family="sans-serif" font-size="5.6" font-weight="bold" lengthAdjust="spacing" textLength="31.6" x="793.6" y="99.2484">userdetails</text></g><!--cluster web--><g id="cluster_web"><path d="M632.2,38.4055 L644.2,38.4055 A1.5,1.5 0 0 1 645.2,39.4055 L648,48.2539 L762.2,48.2539 A1,1 0 0 1 763.2,49.2539 L763.2,160.6055 A1,1 0 0 1 762.2,161.6055 L632.2,161.6055 A1,1 0 0 1 631.2,160.6055 L631.2,39.4055 A1,1 0 0 1 632.2,38.4055 " fill="none" style="stroke:#000000;stroke-width:0.6000000000000001;"/><line style="stroke:#000000;stroke-width:0.6000000000000001;" x1="631.2" x2="648" y1="48.2539" y2="48.2539"/><text fill="#000000" font-family="sans-serif" font-size="5.6" font-weight="bold" lengthAdjust="spacing" textLength="11.6" x="632.8" y="45.2484">web</text></g><!--cluster servlet--><g id="cluster_servlet"><path d="M641.8,56.4055 L662.2,56.4055 A1.5,1.5 0 0 1 663.2,57.4055 L666,66.2539 L752.6,66.2539 A1,1 0 0 1 753.6,67.2539 L753.6,151.0055 A1,1 0 0 1 752.6,152.0055 L641.8,152.0055 A1,1 0 0 1 640.8,151.0055 L640.8,57.4055 A1,1 0 0 1 641.8,56.4055 " fill="none" style="stroke:#000000;stroke-width:0.6000000000000001;"/><line style="stroke:#000000;stroke-width:0.6000000000000001;" x1="640.8" x2="666" y1="66.2539" y2="66.2539"/><text fill="#000000" font-family="sans-serif" font-size="5.6" font-weight="bold" lengthAdjust="spacing" textLength="20" x="642.4" y="63.2484">servlet</text></g><!--cluster config--><g id="cluster_config"><path d="M651.4,74.4055 L669.4,74.4055 A1.5,1.5 0 0 1 670.4,75.4055 L673.2,84.2539 L743,84.2539 A1,1 0 0 1 744,85.2539 L744,141.4055 A1,1 0 0 1 743,142.4055 L651.4,142.4055 A1,1 0 0 1 650.4,141.4055 L650.4,75.4055 A1,1 0 0 1 651.4,74.4055 " fill="none" style="stroke:#000000;stroke-width:0.6000000000000001;"/><line style="stroke:#000000;stroke-width:0.6000000000000001;" x1="650.4" x2="673.2" y1="84.2539" y2="84.2539"/><text fill="#000000" font-family="sans-serif" font-size="5.6" font-weight="bold" lengthAdjust="spacing" textLength="17.6" x="652" y="81.2484">config</text></g><!--cluster annotation--><g id="cluster_annotation"><path d="M661,92.4055 L691.4,92.4055 A1.5,1.5 0 0 1 692.4,93.4055 L695.2,102.2539 L733.4,102.2539 A1,1 0 0 1 734.4,103.2539 L734.4,131.8055 A1,1 0 0 1 733.4,132.8055 L661,132.8055 A1,1 0 0 1 660,131.8055 L660,93.4055 A1,1 0 0 1 661,92.4055 " fill="none" style="stroke:#000000;stroke-width:0.6000000000000001;"/><line style="stroke:#000000;stroke-width:0.6000000000000001;" x1="660" x2="695.2" y1="102.2539" y2="102.2539"/><text fill="#000000" font-family="sans-serif" font-size="5.6" font-weight="bold" lengthAdjust="spacing" textLength="30" x="661.6" y="99.2484">annotation</text></g><!--class GenreRepository--><g id="elem_GenreRepository"><rect codeLine="1" fill="#F1F1F1" height="19.2" id="GenreRepository" rx="1" ry="1" style="stroke:#181818;stroke-width:0.20000000000000004;" width="56" x="1521.2" y="307.6055"/><ellipse cx="1527.2" cy="314.0055" fill="#B4A7E5" rx="4.4" ry="4.4" style="stroke:#181818;stroke-width:0.4000000000000001;"/><path d="M1527.5813,312.6617 L1527.5813,315.3242 L1528.2688,315.3242 Q1528.5125,315.3242 1528.6188,315.418 Q1528.725,315.5117 1528.725,315.668 Q1528.725,315.818 1528.6188,315.9117 Q1528.5125,316.0055 1528.2688,316.0055 L1526.2125,316.0055 Q1525.9688,316.0055 1525.8625,315.9117 Q1525.7563,315.818 1525.7563,315.6617 Q1525.7563,315.5117 1525.8625,315.418 Q1525.9688,315.3242 1526.2125,315.3242 L1526.9,315.3242 L1526.9,312.6617 L1526.2125,312.6617 Q1525.9688,312.6617 1525.8625,312.568 Q1525.7563,312.4742 1525.7563,312.318 Q1525.7563,312.168 1525.8625,312.0742 Q1525.9688,311.9805 1526.2125,311.9805 L1528.2688,311.9805 Q1528.5125,311.9805 1528.6188,312.0742 Q1528.725,312.168 1528.725,312.318 Q1528.725,312.4742 1528.6188,312.568 Q1528.5125,312.6617 1528.2688,312.6617 L1527.5813,312.6617 Z " fill="#000000"/><text fill="#000000" font-family="sans-serif" font-size="5.6" font-style="italic" lengthAdjust="spacing" textLength="43.2" x="1532.8" y="316.3242">GenreRepository</text><line style="stroke:#181818;stroke-width:0.20000000000000004;" x1="1521.6" x2="1576.8" y1="320.4055" y2="320.4055"/><line style="stroke:#181818;stroke-width:0.20000000000000004;" x1="1521.6" x2="1576.8" y1="323.6055" y2="323.6055"/></g><!--class ReviewRepository--><g id="elem_ReviewRepository"><rect codeLine="9" fill="#F1F1F1" height="41.5453" id="ReviewRepository" rx="1" ry="1" style="stroke:#181818;stroke-width:0.20000000000000004;" width="131.2" x="1376" y="296.4055"/><ellipse cx="1417.5" cy="302.8055" fill="#B4A7E5" rx="4.4" ry="4.4" style="stroke:#181818;stroke-width:0.4000000000000001;"/><path d="M1417.8813,301.4617 L1417.8813,304.1242 L1418.5688,304.1242 Q1418.8125,304.1242 1418.9188,304.218 Q1419.025,304.3117 1419.025,304.468 Q1419.025,304.618 1418.9188,304.7117 Q1418.8125,304.8055 1418.5688,304.8055 L1416.5125,304.8055 Q1416.2688,304.8055 1416.1625,304.7117 Q1416.0563,304.618 1416.0563,304.4617 Q1416.0563,304.3117 1416.1625,304.218 Q1416.2688,304.1242 1416.5125,304.1242 L1417.2,304.1242 L1417.2,301.4617 L1416.5125,301.4617 Q1416.2688,301.4617 1416.1625,301.368 Q1416.0563,301.2742 1416.0563,301.118 Q1416.0563,300.968 1416.1625,300.8742 Q1416.2688,300.7805 1416.5125,300.7805 L1418.5688,300.7805 Q1418.8125,300.7805 1418.9188,300.8742 Q1419.025,300.968 1419.025,301.118 Q1419.025,301.2742 1418.9188,301.368 Q1418.8125,301.4617 1418.5688,301.4617 L1417.8813,301.4617 Z " fill="#000000"/><text fill="#000000" font-family="sans-serif" font-size="5.6" font-style="italic" lengthAdjust="spacing" textLength="44.8" x="1425.7" y="305.1242">ReviewRepository</text><line style="stroke:#181818;stroke-width:0.20000000000000004;" x1="1376.4" x2="1506.8" y1="309.2055" y2="309.2055"/><line style="stroke:#181818;stroke-width:0.20000000000000004;" x1="1376.4" x2="1506.8" y1="312.4055" y2="312.4055"/><polygon fill="#4177AF" points="1380.4,316.7297,1378.8,319.1297,1382,319.1297" style="stroke:#1963A0;stroke-width:0.4000000000000001;"/><text fill="#000000" font-family="sans-serif" font-size="5.6" lengthAdjust="spacing" textLength="120.8" x="1384" y="320.0484">Optional&lt;Review&gt; findReviewByFilmFilmId(long)</text><polygon fill="#4177AF" points="1380.4,324.1781,1378.8,326.5781,1382,326.5781" style="stroke:#1963A0;stroke-width:0.4000000000000001;"/><text fill="#000000" font-family="sans-serif" font-size="5.6" lengthAdjust="spacing" textLength="102" x="1384" y="327.4969">List&lt;Review&gt; findReviewsByUserId(long)</text><polygon fill="#4177AF" points="1380.4,331.6266,1378.8,334.0266,1382,334.0266" style="stroke:#1963A0;stroke-width:0.4000000000000001;"/><text fill="#000000" font-family="sans-serif" font-size="5.6" lengthAdjust="spacing" textLength="120.8" x="1384" y="334.9453">boolean existsByUserIdAndFilmFilmId(long,long)</text></g><!--class GradeRepository--><g id="elem_GradeRepository"><rect codeLine="18" fill="#F1F1F1" height="34.0969" id="GradeRepository" rx="1" ry="1" style="stroke:#181818;stroke-width:0.20000000000000004;" width="131.2" x="1230.8" y="300.2055"/><ellipse cx="1273.1" cy="306.6055" fill="#B4A7E5" rx="4.4" ry="4.4" style="stroke:#181818;stroke-width:0.4000000000000001;"/><path d="M1273.4813,305.2617 L1273.4813,307.9242 L1274.1688,307.9242 Q1274.4125,307.9242 1274.5188,308.018 Q1274.625,308.1117 1274.625,308.268 Q1274.625,308.418 1274.5188,308.5117 Q1274.4125,308.6055 1274.1688,308.6055 L1272.1125,308.6055 Q1271.8688,308.6055 1271.7625,308.5117 Q1271.6563,308.418 1271.6563,308.2617 Q1271.6563,308.1117 1271.7625,308.018 Q1271.8688,307.9242 1272.1125,307.9242 L1272.8,307.9242 L1272.8,305.2617 L1272.1125,305.2617 Q1271.8688,305.2617 1271.7625,305.168 Q1271.6563,305.0742 1271.6563,304.918 Q1271.6563,304.768 1271.7625,304.6742 Q1271.8688,304.5805 1272.1125,304.5805 L1274.1688,304.5805 Q1274.4125,304.5805 1274.5188,304.6742 Q1274.625,304.768 1274.625,304.918 Q1274.625,305.0742 1274.5188,305.168 Q1274.4125,305.2617 1274.1688,305.2617 L1273.4813,305.2617 Z " fill="#000000"/><text fill="#000000" font-family="sans-serif" font-size="5.6" font-style="italic" lengthAdjust="spacing" textLength="43.2" x="1281.3" y="308.9242">GradeRepository</text><line style="stroke:#181818;stroke-width:0.20000000000000004;" x1="1231.2" x2="1361.6" y1="313.0055" y2="313.0055"/><line style="stroke:#181818;stroke-width:0.20000000000000004;" x1="1231.2" x2="1361.6" y1="316.2055" y2="316.2055"/><polygon fill="#4177AF" points="1235.2,320.5297,1233.6,322.9297,1236.8,322.9297" style="stroke:#1963A0;stroke-width:0.4000000000000001;"/><text fill="#000000" font-family="sans-serif" font-size="5.6" lengthAdjust="spacing" textLength="120.8" x="1238.8" y="323.8484">boolean existsByUserIdAndFilmFilmId(long,long)</text><polygon fill="#4177AF" points="1235.2,327.9781,1233.6,330.3781,1236.8,330.3781" style="stroke:#1963A0;stroke-width:0.4000000000000001;"/><text fill="#000000" font-family="sans-serif" font-size="5.6" lengthAdjust="spacing" textLength="98" x="1238.8" y="331.2969">List&lt;Grade&gt; findGradesByUserId(long)</text></g><!--class ApplicationUserRepository--><g id="elem_ApplicationUserRepository"><rect codeLine="40" fill="#F1F1F1" height="34.0969" id="ApplicationUserRepository" rx="1" ry="1" style="stroke:#181818;stroke-width:0.20000000000000004;" width="166.4" x="1050.4" y="300.2055"/><ellipse cx="1098.5" cy="306.6055" fill="#B4A7E5" rx="4.4" ry="4.4" style="stroke:#181818;stroke-width:0.4000000000000001;"/><path d="M1098.8813,305.2617 L1098.8813,307.9242 L1099.5688,307.9242 Q1099.8125,307.9242 1099.9188,308.018 Q1100.025,308.1117 1100.025,308.268 Q1100.025,308.418 1099.9188,308.5117 Q1099.8125,308.6055 1099.5688,308.6055 L1097.5125,308.6055 Q1097.2688,308.6055 1097.1625,308.5117 Q1097.0563,308.418 1097.0563,308.2617 Q1097.0563,308.1117 1097.1625,308.018 Q1097.2688,307.9242 1097.5125,307.9242 L1098.2,307.9242 L1098.2,305.2617 L1097.5125,305.2617 Q1097.2688,305.2617 1097.1625,305.168 Q1097.0563,305.0742 1097.0563,304.918 Q1097.0563,304.768 1097.1625,304.6742 Q1097.2688,304.5805 1097.5125,304.5805 L1099.5688,304.5805 Q1099.8125,304.5805 1099.9188,304.6742 Q1100.025,304.768 1100.025,304.918 Q1100.025,305.0742 1099.9188,305.168 Q1099.8125,305.2617 1099.5688,305.2617 L1098.8813,305.2617 Z " fill="#000000"/><text fill="#000000" font-family="sans-serif" font-size="5.6" font-style="italic" lengthAdjust="spacing" textLength="66.8" x="1106.7" y="308.9242">ApplicationUserRepository</text><line style="stroke:#181818;stroke-width:0.20000000000000004;" x1="1050.8" x2="1216.4" y1="313.0055" y2="313.0055"/><line style="stroke:#181818;stroke-width:0.20000000000000004;" x1="1050.8" x2="1216.4" y1="316.2055" y2="316.2055"/><polygon fill="#4177AF" points="1054.8,320.5297,1053.2,322.9297,1056.4,322.9297" style="stroke:#1963A0;stroke-width:0.4000000000000001;"/><text fill="#000000" font-family="sans-serif" font-size="5.6" lengthAdjust="spacing" textLength="156" x="1058.4" y="323.8484">Optional&lt;ApplicationUser&gt; findApplicationUserByLogin(String)</text><polygon fill="#4177AF" points="1054.8,327.9781,1053.2,330.3781,1056.4,330.3781" style="stroke:#1963A0;stroke-width:0.4000000000000001;"/><text fill="#000000" font-family="sans-serif" font-size="5.6" lengthAdjust="spacing" textLength="114.8" x="1058.4" y="331.2969">Boolean existsApplicationUserByLogin(String)</text></g><!--class FilmRepository--><g id="elem_FilmRepository"><rect codeLine="44" fill="#F1F1F1" height="41.5453" id="FilmRepository" rx="1" ry="1" style="stroke:#181818;stroke-width:0.20000000000000004;" width="339.6" x="696.6" y="296.4055"/><ellipse cx="845.9" cy="302.8055" fill="#B4A7E5" rx="4.4" ry="4.4" style="stroke:#181818;stroke-width:0.4000000000000001;"/><path d="M846.2813,301.4617 L846.2813,304.1242 L846.9688,304.1242 Q847.2125,304.1242 847.3188,304.218 Q847.425,304.3117 847.425,304.468 Q847.425,304.618 847.3188,304.7117 Q847.2125,304.8055 846.9688,304.8055 L844.9125,304.8055 Q844.6688,304.8055 844.5625,304.7117 Q844.4563,304.618 844.4563,304.4617 Q844.4563,304.3117 844.5625,304.218 Q844.6688,304.1242 844.9125,304.1242 L845.6,304.1242 L845.6,301.4617 L844.9125,301.4617 Q844.6688,301.4617 844.5625,301.368 Q844.4563,301.2742 844.4563,301.118 Q844.4563,300.968 844.5625,300.8742 Q844.6688,300.7805 844.9125,300.7805 L846.9688,300.7805 Q847.2125,300.7805 847.3188,300.8742 Q847.425,300.968 847.425,301.118 Q847.425,301.2742 847.3188,301.368 Q847.2125,301.4617 846.9688,301.4617 L846.2813,301.4617 Z " fill="#000000"/><text fill="#000000" font-family="sans-serif" font-size="5.6" font-style="italic" lengthAdjust="spacing" textLength="37.6" x="854.1" y="305.1242">FilmRepository</text><line style="stroke:#181818;stroke-width:0.20000000000000004;" x1="697" x2="1035.8" y1="309.2055" y2="309.2055"/><line style="stroke:#181818;stroke-width:0.20000000000000004;" x1="697" x2="1035.8" y1="312.4055" y2="312.4055"/><polygon fill="#4177AF" points="701,316.7297,699.4,319.1297,702.6,319.1297" style="stroke:#1963A0;stroke-width:0.4000000000000001;"/><text fill="#000000" font-family="sans-serif" font-size="5.6" lengthAdjust="spacing" textLength="329.2" x="704.6" y="320.0484">ArrayList&lt;Film&gt; findFilmsByGenresContainsAndReleaseDateBetweenAndAverageRatingBetween(Genre,Date,Date,double,double)</text><polygon fill="#4177AF" points="701,324.1781,699.4,326.5781,702.6,326.5781" style="stroke:#1963A0;stroke-width:0.4000000000000001;"/><text fill="#000000" font-family="sans-serif" font-size="5.6" lengthAdjust="spacing" textLength="260.4" x="704.6" y="327.4969">ArrayList&lt;Film&gt; findFilmsByReleaseDateBetweenAndAverageRatingBetween(Date,Date,double,double)</text><polygon fill="#4177AF" points="701,331.6266,699.4,334.0266,702.6,334.0266" style="stroke:#1963A0;stroke-width:0.4000000000000001;"/><text fill="#000000" font-family="sans-serif" font-size="5.6" lengthAdjust="spacing" textLength="102.4" x="704.6" y="334.9453">List&lt;Film&gt; findLikedFilmsByUserId(Long)</text></g><!--class SecurityConfig--><g id="elem_SecurityConfig"><rect codeLine="3" fill="#F1F1F1" height="48.9938" id="SecurityConfig" rx="1" ry="1" style="stroke:#181818;stroke-width:0.20000000000000004;" width="150.4" x="523.6" y="292.8055"/><ellipse cx="578.7" cy="299.2055" fill="#ADD1B2" rx="4.4" ry="4.4" style="stroke:#181818;stroke-width:0.4000000000000001;"/><path d="M579.8063,297.5555 Q579.8688,297.468 579.9438,297.4242 Q580.0188,297.3805 580.1063,297.3805 Q580.2563,297.3805 580.35,297.4867 Q580.4438,297.5867 580.4438,297.8305 L580.4438,298.4117 Q580.4438,298.6555 580.35,298.7617 Q580.2563,298.868 580.1063,298.868 Q579.9688,298.868 579.8875,298.7867 Q579.8063,298.7117 579.7625,298.5055 Q579.7438,298.3617 579.6688,298.2867 Q579.5375,298.1367 579.2938,298.0492 Q579.05,297.9617 578.8,297.9617 Q578.4938,297.9617 578.2375,298.093 Q577.9875,298.2242 577.7875,298.5242 Q577.5938,298.8242 577.5938,299.2367 L577.5938,299.6742 Q577.5938,300.168 577.95,300.4992 Q578.3063,300.8242 578.9438,300.8242 Q579.3188,300.8242 579.5813,300.7242 Q579.7375,300.6617 579.9063,300.4867 Q580.0125,300.3805 580.0688,300.3492 Q580.1313,300.318 580.2125,300.318 Q580.3438,300.318 580.4438,300.4242 Q580.55,300.5242 580.55,300.6617 Q580.55,300.7992 580.4125,300.9617 Q580.2125,301.193 579.8938,301.3242 Q579.4625,301.5055 578.9438,301.5055 Q578.3375,301.5055 577.8563,301.2555 Q577.4625,301.0555 577.1875,300.6305 Q576.9125,300.1992 576.9125,299.6867 L576.9125,299.2242 Q576.9125,298.693 577.1563,298.2367 Q577.4063,297.7742 577.8438,297.5305 Q578.2813,297.2805 578.775,297.2805 Q579.0688,297.2805 579.325,297.3492 Q579.5875,297.4117 579.8063,297.5555 Z " fill="#000000"/><text fill="#000000" font-family="sans-serif" font-size="5.6" lengthAdjust="spacing" textLength="36.8" x="586.9" y="301.5242">SecurityConfig</text><line style="stroke:#181818;stroke-width:0.20000000000000004;" x1="524" x2="673.6" y1="305.6055" y2="305.6055"/><rect fill="none" height="2.4" style="stroke:#C82930;stroke-width:0.4000000000000001;" width="2.4" x="526.8" y="310.3297"/><text fill="#000000" font-family="sans-serif" font-size="5.6" lengthAdjust="spacing" textLength="106.4" x="531.6" y="313.2484">UserDetailsServiceImpl userDetailsService</text><line style="stroke:#181818;stroke-width:0.20000000000000004;" x1="524" x2="673.6" y1="316.2539" y2="316.2539"/><ellipse cx="528" cy="322.1781" fill="#84BE84" rx="1.2" ry="1.2" style="stroke:#038048;stroke-width:0.4000000000000001;"/><text fill="#000000" font-family="sans-serif" font-size="5.6" lengthAdjust="spacing" textLength="140" x="531.6" y="323.8969">DaoAuthenticationProvider daoAuthenticationProvider()</text><ellipse cx="528" cy="329.6266" fill="#84BE84" rx="1.2" ry="1.2" style="stroke:#038048;stroke-width:0.4000000000000001;"/><text fill="#000000" font-family="sans-serif" font-size="5.6" lengthAdjust="spacing" textLength="131.2" x="531.6" y="331.3453">SecurityFilterChain securityFilterChain(HttpSecurity)</text><ellipse cx="528" cy="337.075" fill="#84BE84" rx="1.2" ry="1.2" style="stroke:#038048;stroke-width:0.4000000000000001;"/><text fill="#000000" font-family="sans-serif" font-size="5.6" lengthAdjust="spacing" textLength="96.4" x="531.6" y="338.7938">PasswordEncoder passwordEncoder()</text></g><!--class UserDetailsServiceImpl--><g id="elem_UserDetailsServiceImpl"><rect codeLine="14" fill="#F1F1F1" height="34.0969" id="UserDetailsServiceImpl" rx="1" ry="1" style="stroke:#181818;stroke-width:0.20000000000000004;" width="144.4" x="365" y="300.2055"/><ellipse cx="406.7" cy="306.6055" fill="#ADD1B2" rx="4.4" ry="4.4" style="stroke:#181818;stroke-width:0.4000000000000001;"/><path d="M407.8063,304.9555 Q407.8688,304.868 407.9438,304.8242 Q408.0188,304.7805 408.1063,304.7805 Q408.2563,304.7805 408.35,304.8867 Q408.4438,304.9867 408.4438,305.2305 L408.4438,305.8117 Q408.4438,306.0555 408.35,306.1617 Q408.2563,306.268 408.1063,306.268 Q407.9688,306.268 407.8875,306.1867 Q407.8063,306.1117 407.7625,305.9055 Q407.7438,305.7617 407.6688,305.6867 Q407.5375,305.5367 407.2938,305.4492 Q407.05,305.3617 406.8,305.3617 Q406.4938,305.3617 406.2375,305.493 Q405.9875,305.6242 405.7875,305.9242 Q405.5938,306.2242 405.5938,306.6367 L405.5938,307.0742 Q405.5938,307.568 405.95,307.8992 Q406.3063,308.2242 406.9438,308.2242 Q407.3188,308.2242 407.5813,308.1242 Q407.7375,308.0617 407.9063,307.8867 Q408.0125,307.7805 408.0688,307.7492 Q408.1313,307.718 408.2125,307.718 Q408.3438,307.718 408.4438,307.8242 Q408.55,307.9242 408.55,308.0617 Q408.55,308.1992 408.4125,308.3617 Q408.2125,308.593 407.8938,308.7242 Q407.4625,308.9055 406.9438,308.9055 Q406.3375,308.9055 405.8563,308.6555 Q405.4625,308.4555 405.1875,308.0305 Q404.9125,307.5992 404.9125,307.0867 L404.9125,306.6242 Q404.9125,306.093 405.1563,305.6367 Q405.4063,305.1742 405.8438,304.9305 Q406.2813,304.6805 406.775,304.6805 Q407.0688,304.6805 407.325,304.7492 Q407.5875,304.8117 407.8063,304.9555 Z " fill="#000000"/><text fill="#000000" font-family="sans-serif" font-size="5.6" lengthAdjust="spacing" textLength="57.6" x="414.9" y="308.9242">UserDetailsServiceImpl</text><line style="stroke:#181818;stroke-width:0.20000000000000004;" x1="365.4" x2="509" y1="313.0055" y2="313.0055"/><rect fill="none" height="2.4" style="stroke:#C82930;stroke-width:0.4000000000000001;" width="2.4" x="368.2" y="317.7297"/><text fill="#000000" font-family="sans-serif" font-size="5.6" lengthAdjust="spacing" textLength="134" x="373" y="320.6484">ApplicationUserRepository applicationUserRepository</text><line style="stroke:#181818;stroke-width:0.20000000000000004;" x1="365.4" x2="509" y1="323.6539" y2="323.6539"/><ellipse cx="369.4" cy="329.5781" fill="#84BE84" rx="1.2" ry="1.2" style="stroke:#038048;stroke-width:0.4000000000000001;"/><text fill="#000000" font-family="sans-serif" font-size="5.6" lengthAdjust="spacing" textLength="113.6" x="373" y="331.2969">UserDetailsImpl loadUserByUsername(String)</text></g><!--class MvcConfig--><g id="elem_MvcConfig"><rect codeLine="22" fill="#F1F1F1" height="26.6484" id="MvcConfig" rx="1" ry="1" style="stroke:#181818;stroke-width:0.20000000000000004;" width="147.6" x="37.8" y="303.8055"/><ellipse cx="96.7" cy="310.2055" fill="#ADD1B2" rx="4.4" ry="4.4" style="stroke:#181818;stroke-width:0.4000000000000001;"/><path d="M97.8063,308.5555 Q97.8688,308.468 97.9438,308.4242 Q98.0188,308.3805 98.1063,308.3805 Q98.2563,308.3805 98.35,308.4867 Q98.4438,308.5867 98.4438,308.8305 L98.4438,309.4117 Q98.4438,309.6555 98.35,309.7617 Q98.2563,309.868 98.1063,309.868 Q97.9688,309.868 97.8875,309.7867 Q97.8063,309.7117 97.7625,309.5055 Q97.7438,309.3617 97.6688,309.2867 Q97.5375,309.1367 97.2938,309.0492 Q97.05,308.9617 96.8,308.9617 Q96.4938,308.9617 96.2375,309.093 Q95.9875,309.2242 95.7875,309.5242 Q95.5938,309.8242 95.5938,310.2367 L95.5938,310.6742 Q95.5938,311.168 95.95,311.4992 Q96.3063,311.8242 96.9438,311.8242 Q97.3188,311.8242 97.5813,311.7242 Q97.7375,311.6617 97.9063,311.4867 Q98.0125,311.3805 98.0688,311.3492 Q98.1313,311.318 98.2125,311.318 Q98.3438,311.318 98.4438,311.4242 Q98.55,311.5242 98.55,311.6617 Q98.55,311.7992 98.4125,311.9617 Q98.2125,312.193 97.8938,312.3242 Q97.4625,312.5055 96.9438,312.5055 Q96.3375,312.5055 95.8563,312.2555 Q95.4625,312.0555 95.1875,311.6305 Q94.9125,311.1992 94.9125,310.6867 L94.9125,310.2242 Q94.9125,309.693 95.1563,309.2367 Q95.4063,308.7742 95.8438,308.5305 Q96.2813,308.2805 96.775,308.2805 Q97.0688,308.2805 97.325,308.3492 Q97.5875,308.4117 97.8063,308.5555 Z " fill="#000000"/><text fill="#000000" font-family="sans-serif" font-size="5.6" lengthAdjust="spacing" textLength="26.4" x="104.9" y="312.5242">MvcConfig</text><line style="stroke:#181818;stroke-width:0.20000000000000004;" x1="38.2" x2="185" y1="316.6055" y2="316.6055"/><line style="stroke:#181818;stroke-width:0.20000000000000004;" x1="38.2" x2="185" y1="319.8055" y2="319.8055"/><ellipse cx="42.2" cy="325.7297" fill="#84BE84" rx="1.2" ry="1.2" style="stroke:#038048;stroke-width:0.4000000000000001;"/><text fill="#000000" font-family="sans-serif" font-size="5.6" lengthAdjust="spacing" textLength="137.2" x="45.8" y="327.4484">void addResourceHandlers(ResourceHandlerRegistry)</text></g><!--class UserDetailsImpl--><g id="elem_UserDetailsImpl"><rect codeLine="25" fill="#F1F1F1" height="116.0297" id="UserDetailsImpl" rx="1" ry="1" style="stroke:#181818;stroke-width:0.20000000000000004;" width="151.2" x="199.6" y="259.2055"/><ellipse cx="254.1" cy="265.6055" fill="#ADD1B2" rx="4.4" ry="4.4" style="stroke:#181818;stroke-width:0.4000000000000001;"/><path d="M255.2063,263.9555 Q255.2688,263.868 255.3438,263.8242 Q255.4188,263.7805 255.5063,263.7805 Q255.6563,263.7805 255.75,263.8867 Q255.8438,263.9867 255.8438,264.2305 L255.8438,264.8117 Q255.8438,265.0555 255.75,265.1617 Q255.6563,265.268 255.5063,265.268 Q255.3688,265.268 255.2875,265.1867 Q255.2063,265.1117 255.1625,264.9055 Q255.1438,264.7617 255.0688,264.6867 Q254.9375,264.5367 254.6938,264.4492 Q254.45,264.3617 254.2,264.3617 Q253.8938,264.3617 253.6375,264.493 Q253.3875,264.6242 253.1875,264.9242 Q252.9938,265.2242 252.9938,265.6367 L252.9938,266.0742 Q252.9938,266.568 253.35,266.8992 Q253.7063,267.2242 254.3438,267.2242 Q254.7188,267.2242 254.9813,267.1242 Q255.1375,267.0617 255.3063,266.8867 Q255.4125,266.7805 255.4688,266.7492 Q255.5313,266.718 255.6125,266.718 Q255.7438,266.718 255.8438,266.8242 Q255.95,266.9242 255.95,267.0617 Q255.95,267.1992 255.8125,267.3617 Q255.6125,267.593 255.2938,267.7242 Q254.8625,267.9055 254.3438,267.9055 Q253.7375,267.9055 253.2563,267.6555 Q252.8625,267.4555 252.5875,267.0305 Q252.3125,266.5992 252.3125,266.0867 L252.3125,265.6242 Q252.3125,265.093 252.5563,264.6367 Q252.8063,264.1742 253.2438,263.9305 Q253.6813,263.6805 254.175,263.6805 Q254.4688,263.6805 254.725,263.7492 Q254.9875,263.8117 255.2063,263.9555 Z " fill="#000000"/><text fill="#000000" font-family="sans-serif" font-size="5.6" lengthAdjust="spacing" textLength="38.8" x="262.3" y="267.9242">UserDetailsImpl</text><line style="stroke:#181818;stroke-width:0.20000000000000004;" x1="200" x2="350.4" y1="272.0055" y2="272.0055"/><rect fill="none" height="2.4" style="stroke:#C82930;stroke-width:0.4000000000000001;" width="2.4" x="202.8" y="276.7297"/><text fill="#000000" font-family="sans-serif" font-size="5.6" lengthAdjust="spacing" textLength="18.8" x="207.6" y="279.6484">Long id</text><rect fill="none" height="2.4" style="stroke:#C82930;stroke-width:0.4000000000000001;" width="2.4" x="202.8" y="284.1781"/><text fill="#000000" font-family="sans-serif" font-size="5.6" lengthAdjust="spacing" textLength="28.4" x="207.6" y="287.0969">String login</text><rect fill="none" height="2.4" style="stroke:#C82930;stroke-width:0.4000000000000001;" width="2.4" x="202.8" y="291.6266"/><text fill="#000000" font-family="sans-serif" font-size="5.6" lengthAdjust="spacing" textLength="40.4" x="207.6" y="294.5453">String password</text><rect fill="none" height="2.4" style="stroke:#C82930;stroke-width:0.4000000000000001;" width="2.4" x="202.8" y="299.075"/><text fill="#000000" font-family="sans-serif" font-size="5.6" lengthAdjust="spacing" textLength="128.4" x="207.6" y="301.9938">Collection&lt;? extends GrantedAuthority&gt; authorities</text><rect fill="none" height="2.4" style="stroke:#C82930;stroke-width:0.4000000000000001;" width="2.4" x="202.8" y="306.5234"/><text fill="#000000" font-family="sans-serif" font-size="5.6" lengthAdjust="spacing" textLength="79.6" x="207.6" y="309.4422">ApplicationUser applicationUser</text><line style="stroke:#181818;stroke-width:0.20000000000000004;" x1="200" x2="350.4" y1="312.4477" y2="312.4477"/><ellipse cx="204" cy="318.3719" fill="#84BE84" rx="1.2" ry="1.2" style="stroke:#038048;stroke-width:0.4000000000000001;"/><text fill="#000000" font-family="sans-serif" font-size="5.6" lengthAdjust="spacing" text-decoration="underline" textLength="95.6" x="207.6" y="320.0906">UserDetailsImpl build(ApplicationUser)</text><ellipse cx="204" cy="325.8203" fill="#84BE84" rx="1.2" ry="1.2" style="stroke:#038048;stroke-width:0.4000000000000001;"/><text fill="#000000" font-family="sans-serif" font-size="5.6" lengthAdjust="spacing" textLength="140.8" x="207.6" y="327.5391">Collection&lt;? extends GrantedAuthority&gt; getAuthorities()</text><ellipse cx="204" cy="333.2688" fill="#84BE84" rx="1.2" ry="1.2" style="stroke:#038048;stroke-width:0.4000000000000001;"/><text fill="#000000" font-family="sans-serif" font-size="5.6" lengthAdjust="spacing" textLength="52.8" x="207.6" y="334.9875">String getPassword()</text><ellipse cx="204" cy="340.7172" fill="#84BE84" rx="1.2" ry="1.2" style="stroke:#038048;stroke-width:0.4000000000000001;"/><text fill="#000000" font-family="sans-serif" font-size="5.6" lengthAdjust="spacing" textLength="54" x="207.6" y="342.4359">String getUsername()</text><ellipse cx="204" cy="348.1656" fill="#84BE84" rx="1.2" ry="1.2" style="stroke:#038048;stroke-width:0.4000000000000001;"/><text fill="#000000" font-family="sans-serif" font-size="5.6" lengthAdjust="spacing" textLength="79.2" x="207.6" y="349.8844">boolean isAccountNonExpired()</text><ellipse cx="204" cy="355.6141" fill="#84BE84" rx="1.2" ry="1.2" style="stroke:#038048;stroke-width:0.4000000000000001;"/><text fill="#000000" font-family="sans-serif" font-size="5.6" lengthAdjust="spacing" textLength="78.8" x="207.6" y="357.3328">boolean isAccountNonLocked()</text><ellipse cx="204" cy="363.0625" fill="#84BE84" rx="1.2" ry="1.2" style="stroke:#038048;stroke-width:0.4000000000000001;"/><text fill="#000000" font-family="sans-serif" font-size="5.6" lengthAdjust="spacing" textLength="87.6" x="207.6" y="364.7813">boolean isCredentialsNonExpired()</text><ellipse cx="204" cy="370.5109" fill="#84BE84" rx="1.2" ry="1.2" style="stroke:#038048;stroke-width:0.4000000000000001;"/><text fill="#000000" font-family="sans-serif" font-size="5.6" lengthAdjust="spacing" textLength="50.8" x="207.6" y="372.2297">boolean isEnabled()</text></g><!--class JpaRepository--><g id="elem_JpaRepository"><rect fill="#F1F1F1" height="19.2" id="JpaRepository" rx="1" ry="1" style="stroke:#181818;stroke-width:0.20000000000000004;" width="48.8" x="975.6" y="107.2055"/><ellipse cx="981.6" cy="113.6055" fill="#ADD1B2" rx="4.4" ry="4.4" style="stroke:#181818;stroke-width:0.4000000000000001;"/><path d="M982.7063,111.9555 Q982.7688,111.868 982.8438,111.8242 Q982.9188,111.7805 983.0063,111.7805 Q983.1563,111.7805 983.25,111.8867 Q983.3438,111.9867 983.3438,112.2305 L983.3438,112.8117 Q983.3438,113.0555 983.25,113.1617 Q983.1563,113.268 983.0063,113.268 Q982.8688,113.268 982.7875,113.1867 Q982.7063,113.1117 982.6625,112.9055 Q982.6438,112.7617 982.5688,112.6867 Q982.4375,112.5367 982.1938,112.4492 Q981.95,112.3617 981.7,112.3617 Q981.3938,112.3617 981.1375,112.493 Q980.8875,112.6242 980.6875,112.9242 Q980.4938,113.2242 980.4938,113.6367 L980.4938,114.0742 Q980.4938,114.568 980.85,114.8992 Q981.2063,115.2242 981.8438,115.2242 Q982.2188,115.2242 982.4813,115.1242 Q982.6375,115.0617 982.8063,114.8867 Q982.9125,114.7805 982.9688,114.7492 Q983.0313,114.718 983.1125,114.718 Q983.2438,114.718 983.3438,114.8242 Q983.45,114.9242 983.45,115.0617 Q983.45,115.1992 983.3125,115.3617 Q983.1125,115.593 982.7938,115.7242 Q982.3625,115.9055 981.8438,115.9055 Q981.2375,115.9055 980.7563,115.6555 Q980.3625,115.4555 980.0875,115.0305 Q979.8125,114.5992 979.8125,114.0867 L979.8125,113.6242 Q979.8125,113.093 980.0563,112.6367 Q980.3063,112.1742 980.7438,111.9305 Q981.1813,111.6805 981.675,111.6805 Q981.9688,111.6805 982.225,111.7492 Q982.4875,111.8117 982.7063,111.9555 Z " fill="#000000"/><text fill="#000000" font-family="sans-serif" font-size="5.6" lengthAdjust="spacing" textLength="36" x="987.2" y="115.9242">JpaRepository</text><line style="stroke:#181818;stroke-width:0.20000000000000004;" x1="976" x2="1024" y1="120.0055" y2="120.0055"/><line style="stroke:#181818;stroke-width:0.20000000000000004;" x1="976" x2="1024" y1="123.2055" y2="123.2055"/></g><!--class UserDetailsService--><g id="elem_UserDetailsService"><rect fill="#F1F1F1" height="19.2" id="UserDetailsService" rx="1" ry="1" style="stroke:#181818;stroke-width:0.20000000000000004;" width="60.4" x="854.2" y="107.2055"/><ellipse cx="860.2" cy="113.6055" fill="#ADD1B2" rx="4.4" ry="4.4" style="stroke:#181818;stroke-width:0.4000000000000001;"/><path d="M861.3063,111.9555 Q861.3688,111.868 861.4438,111.8242 Q861.5188,111.7805 861.6063,111.7805 Q861.7563,111.7805 861.85,111.8867 Q861.9438,111.9867 861.9438,112.2305 L861.9438,112.8117 Q861.9438,113.0555 861.85,113.1617 Q861.7563,113.268 861.6063,113.268 Q861.4688,113.268 861.3875,113.1867 Q861.3063,113.1117 861.2625,112.9055 Q861.2438,112.7617 861.1688,112.6867 Q861.0375,112.5367 860.7938,112.4492 Q860.55,112.3617 860.3,112.3617 Q859.9938,112.3617 859.7375,112.493 Q859.4875,112.6242 859.2875,112.9242 Q859.0938,113.2242 859.0938,113.6367 L859.0938,114.0742 Q859.0938,114.568 859.45,114.8992 Q859.8063,115.2242 860.4438,115.2242 Q860.8188,115.2242 861.0813,115.1242 Q861.2375,115.0617 861.4063,114.8867 Q861.5125,114.7805 861.5688,114.7492 Q861.6313,114.718 861.7125,114.718 Q861.8438,114.718 861.9438,114.8242 Q862.05,114.9242 862.05,115.0617 Q862.05,115.1992 861.9125,115.3617 Q861.7125,115.593 861.3938,115.7242 Q860.9625,115.9055 860.4438,115.9055 Q859.8375,115.9055 859.3563,115.6555 Q858.9625,115.4555 858.6875,115.0305 Q858.4125,114.5992 858.4125,114.0867 L858.4125,113.6242 Q858.4125,113.093 858.6563,112.6367 Q858.9063,112.1742 859.3438,111.9305 Q859.7813,111.6805 860.275,111.6805 Q860.5688,111.6805 860.825,111.7492 Q861.0875,111.8117 861.3063,111.9555 Z " fill="#000000"/><text fill="#000000" font-family="sans-serif" font-size="5.6" lengthAdjust="spacing" textLength="47.6" x="865.8" y="115.9242">UserDetailsService</text><line style="stroke:#181818;stroke-width:0.20000000000000004;" x1="854.6" x2="914.2" y1="120.0055" y2="120.0055"/><line style="stroke:#181818;stroke-width:0.20000000000000004;" x1="854.6" x2="914.2" y1="123.2055" y2="123.2055"/></g><!--class UserDetails--><g id="elem_UserDetails"><rect fill="#F1F1F1" height="19.2" id="UserDetails" rx="1" ry="1" style="stroke:#181818;stroke-width:0.20000000000000004;" width="41.6" x="798.4" y="107.2055"/><ellipse cx="804.4" cy="113.6055" fill="#ADD1B2" rx="4.4" ry="4.4" style="stroke:#181818;stroke-width:0.4000000000000001;"/><path d="M805.5063,111.9555 Q805.5688,111.868 805.6438,111.8242 Q805.7188,111.7805 805.8063,111.7805 Q805.9563,111.7805 806.05,111.8867 Q806.1438,111.9867 806.1438,112.2305 L806.1438,112.8117 Q806.1438,113.0555 806.05,113.1617 Q805.9563,113.268 805.8063,113.268 Q805.6688,113.268 805.5875,113.1867 Q805.5063,113.1117 805.4625,112.9055 Q805.4438,112.7617 805.3688,112.6867 Q805.2375,112.5367 804.9938,112.4492 Q804.75,112.3617 804.5,112.3617 Q804.1938,112.3617 803.9375,112.493 Q803.6875,112.6242 803.4875,112.9242 Q803.2938,113.2242 803.2938,113.6367 L803.2938,114.0742 Q803.2938,114.568 803.65,114.8992 Q804.0063,115.2242 804.6438,115.2242 Q805.0188,115.2242 805.2813,115.1242 Q805.4375,115.0617 805.6063,114.8867 Q805.7125,114.7805 805.7688,114.7492 Q805.8313,114.718 805.9125,114.718 Q806.0438,114.718 806.1438,114.8242 Q806.25,114.9242 806.25,115.0617 Q806.25,115.1992 806.1125,115.3617 Q805.9125,115.593 805.5938,115.7242 Q805.1625,115.9055 804.6438,115.9055 Q804.0375,115.9055 803.5563,115.6555 Q803.1625,115.4555 802.8875,115.0305 Q802.6125,114.5992 802.6125,114.0867 L802.6125,113.6242 Q802.6125,113.093 802.8563,112.6367 Q803.1063,112.1742 803.5438,111.9305 Q803.9813,111.6805 804.475,111.6805 Q804.7688,111.6805 805.025,111.7492 Q805.2875,111.8117 805.5063,111.9555 Z " fill="#000000"/><text fill="#000000" font-family="sans-serif" font-size="5.6" lengthAdjust="spacing" textLength="28.8" x="810" y="115.9242">UserDetails</text><line style="stroke:#181818;stroke-width:0.20000000000000004;" x1="798.8" x2="839.6" y1="120.0055" y2="120.0055"/><line style="stroke:#181818;stroke-width:0.20000000000000004;" x1="798.8" x2="839.6" y1="123.2055" y2="123.2055"/></g><!--class WebMvcConfigurer--><g id="elem_WebMvcConfigurer"><rect fill="#F1F1F1" height="19.2" id="WebMvcConfigurer" rx="1" ry="1" style="stroke:#181818;stroke-width:0.20000000000000004;" width="61.2" x="666.6" y="107.2055"/><ellipse cx="672.6" cy="113.6055" fill="#ADD1B2" rx="4.4" ry="4.4" style="stroke:#181818;stroke-width:0.4000000000000001;"/><path d="M673.7063,111.9555 Q673.7688,111.868 673.8438,111.8242 Q673.9188,111.7805 674.0063,111.7805 Q674.1563,111.7805 674.25,111.8867 Q674.3438,111.9867 674.3438,112.2305 L674.3438,112.8117 Q674.3438,113.0555 674.25,113.1617 Q674.1563,113.268 674.0063,113.268 Q673.8688,113.268 673.7875,113.1867 Q673.7063,113.1117 673.6625,112.9055 Q673.6438,112.7617 673.5688,112.6867 Q673.4375,112.5367 673.1938,112.4492 Q672.95,112.3617 672.7,112.3617 Q672.3938,112.3617 672.1375,112.493 Q671.8875,112.6242 671.6875,112.9242 Q671.4938,113.2242 671.4938,113.6367 L671.4938,114.0742 Q671.4938,114.568 671.85,114.8992 Q672.2063,115.2242 672.8438,115.2242 Q673.2188,115.2242 673.4813,115.1242 Q673.6375,115.0617 673.8063,114.8867 Q673.9125,114.7805 673.9688,114.7492 Q674.0313,114.718 674.1125,114.718 Q674.2438,114.718 674.3438,114.8242 Q674.45,114.9242 674.45,115.0617 Q674.45,115.1992 674.3125,115.3617 Q674.1125,115.593 673.7938,115.7242 Q673.3625,115.9055 672.8438,115.9055 Q672.2375,115.9055 671.7563,115.6555 Q671.3625,115.4555 671.0875,115.0305 Q670.8125,114.5992 670.8125,114.0867 L670.8125,113.6242 Q670.8125,113.093 671.0563,112.6367 Q671.3063,112.1742 671.7438,111.9305 Q672.1813,111.6805 672.675,111.6805 Q672.9688,111.6805 673.225,111.7492 Q673.4875,111.8117 673.7063,111.9555 Z " fill="#000000"/><text fill="#000000" font-family="sans-serif" font-size="5.6" lengthAdjust="spacing" textLength="48.4" x="678.2" y="115.9242">WebMvcConfigurer</text><line style="stroke:#181818;stroke-width:0.20000000000000004;" x1="667" x2="727.4" y1="120.0055" y2="120.0055"/><line style="stroke:#181818;stroke-width:0.20000000000000004;" x1="667" x2="727.4" y1="123.2055" y2="123.2055"/></g><!--reverse link JpaRepository to GenreRepository--><g id="link_JpaRepository_GenreRepository"><path codeLine="51" d="M1031.688,117.0849 C1123.736,117.1289 1440.324,121.9935 1514.4,187.2055 C1550.42,218.9175 1551.004,283.5135 1549.86,307.5335 " fill="none" id="JpaRepository-backto-GenreRepository" style="stroke:#181818;stroke-width:0.4000000000000001;"/><polygon fill="none" points="1024.488,117.0815,1031.688,119.4815,1031.688,114.6815,1024.488,117.0815" style="stroke:#181818;stroke-width:0.4000000000000001;"/></g><!--reverse link JpaRepository to ReviewRepository--><g id="link_JpaRepository_ReviewRepository"><path codeLine="52" d="M1031.69,119.7732 C1104.914,126.0172 1313.224,146.8735 1369.2,187.2055 C1406.788,214.2855 1427.284,267.2335 1436.16,296.3695 " fill="none" id="JpaRepository-backto-ReviewRepository" style="stroke:#181818;stroke-width:0.4000000000000001;"/><polygon fill="none" points="1024.516,119.1615,1031.4861,122.1645,1031.8939,117.3819,1024.516,119.1615" style="stroke:#181818;stroke-width:0.4000000000000001;"/></g><!--reverse link UserDetailsService to UserDetailsServiceImpl--><g id="link_UserDetailsService_UserDetailsServiceImpl"><path codeLine="53" d="M880.5902,133.4825 C876.7222,148.6625 868.484,171.3575 847.2,184.0055 C831.42,193.3815 532.776,178.1655 516.8,187.2055 C473.248,211.8455 450.556,271.0215 441.708,300.1015 " fill="none" id="UserDetailsService-backto-UserDetailsServiceImpl" style="stroke:#181818;stroke-width:0.4000000000000001;stroke-dasharray:7.0,7.0;"/><polygon fill="none" points="882.368,126.5055,878.2645,132.8899,882.9159,134.0751,882.368,126.5055" style="stroke:#181818;stroke-width:0.4000000000000001;"/></g><!--reverse link JpaRepository to GradeRepository--><g id="link_JpaRepository_GradeRepository"><path codeLine="54" d="M1031.6452,119.6889 C1076.0492,124.0729 1163.672,138.2095 1224,187.2055 C1261.36,217.5495 1282.74,272.5895 1291.576,300.1455 " fill="none" id="JpaRepository-backto-GradeRepository" style="stroke:#181818;stroke-width:0.4000000000000001;"/><polygon fill="none" points="1024.48,118.9815,1031.4094,122.0773,1031.881,117.3005,1024.48,118.9815" style="stroke:#181818;stroke-width:0.4000000000000001;"/></g><!--reverse link WebMvcConfigurer to MvcConfig--><g id="link_WebMvcConfigurer_MvcConfig"><path codeLine="55" d="M659.2643,118.3584 C562.2683,121.7144 271.588,135.8255 192.4,187.2055 C148.636,215.6015 124.416,276.9015 115.548,303.7535 " fill="none" id="WebMvcConfigurer-backto-MvcConfig" style="stroke:#181818;stroke-width:0.4000000000000001;stroke-dasharray:7.0,7.0;"/><polygon fill="none" points="666.46,118.1095,659.1813,115.9599,659.3473,120.757,666.46,118.1095" style="stroke:#181818;stroke-width:0.4000000000000001;"/></g><!--reverse link UserDetails to UserDetailsImpl--><g id="link_UserDetails_UserDetailsImpl"><path codeLine="56" d="M806.5734,131.8755 C792.8494,147.3195 767.552,172.3575 734.4,184.0055 C724.536,187.4695 367.148,182.1415 358,187.2055 C329.964,202.7175 310.02,232.1655 296.74,259.0735 " fill="none" id="UserDetails-backto-UserDetailsImpl" style="stroke:#181818;stroke-width:0.4000000000000001;stroke-dasharray:7.0,7.0;"/><polygon fill="none" points="811.356,126.4935,804.7793,130.2813,808.3674,133.4697,811.356,126.4935" style="stroke:#181818;stroke-width:0.4000000000000001;"/></g><!--reverse link JpaRepository to ApplicationUserRepository--><g id="link_JpaRepository_ApplicationUserRepository"><path codeLine="57" d="M1010.1808,132.4169 C1031.0928,163.6609 1095.428,259.7775 1122.456,300.1575 " fill="none" id="JpaRepository-backto-ApplicationUserRepository" style="stroke:#181818;stroke-width:0.4000000000000001;"/><polygon fill="none" points="1006.176,126.4335,1008.1863,133.7518,1012.1753,131.082,1006.176,126.4335" style="stroke:#181818;stroke-width:0.4000000000000001;"/></g><!--reverse link JpaRepository to FilmRepository--><g id="link_JpaRepository_FilmRepository"><path codeLine="58" d="M989.8189,132.4167 C969.5469,162.7007 908.72,253.5815 880.144,296.2695 " fill="none" id="JpaRepository-backto-FilmRepository" style="stroke:#181818;stroke-width:0.4000000000000001;"/><polygon fill="none" points="993.824,126.4335,987.8245,131.0816,991.8133,133.7517,993.824,126.4335" style="stroke:#181818;stroke-width:0.4000000000000001;"/></g><!--SRC=[lLRTJjim5BxlK_Wo2F0J8AQqC63gDbGqxN9oxTFWuTgHxRH439vznt4IshG1MgHUjBNFlx_pLwazs1dZGBYPKtXayrm1dPk5X3-MUQcpFmxiGdAW5dBZf3TMWgDNe2rC6af9dWRF0wwOS-_RuKRFP4RlW1TM-d9KNT70AVc58XVWcLJkBWhVe1bIR907n-I2cRJmzw2zv6ZVw5kBpWHO8leuoH7gDMw_IeKl7zqpgOdRf2NNtkUDRD2xnRSjZHMNcflW9L-_e-tdWTmJp0cWn78DpHVoCm-nCtKMkUTa9hM8vs68T1u-Do9HHcT7A3-Mpc-HTSComBeYE3L60TC47b6ZPQTQT8oUH8LTyzgJn93VDCzLdPCWjV9WriT1v5SCLfQKOIBGOkIQpI6vyrR6MFTDmPLb0ZePs16eEWMLfPY1wjXDmAvuVb_mjaMEoS98GPZ0v3fJM0xNJ0i5rYKTmWGo3CQMdyfVcxWnHawam5D46dEGIVrwRPe1AIEZ5F2GoBClY9m7BHn1830l8hIb2GrrJbXzHEmt2wDR3lZk9-Vnofytgc5QI2MIZe7Gi1yC90EVliOIHqHy57AQfk-GsxeBvAPAf4ivDuNsFuo-VCob1T7B7nl-iC4UeKOOMaovNXENcarLHTs_rFkxS6tiTCHYHNU8mt8S2g7jlnSoNEkPTyJtVqFelaxWgRMih3emC6EuuOJzLoqhXrs4PQDT6aOZ1kdWWdaOWby2Q2Ic2x0iWqdbjYOdbUf948nVmXIOWFhdw6st7_VoXlsEwR74mgdjrsDbN8-LmS3OZBeyO3kpM9vOkGzKCC_etvozubVIRpbR0U_it-dfvxR_uHntD-LMpyqwnubcWOP_3o8EZ2sx2OEWz9ExxO2uhs-fhOwNCAL1MO5lmcPQ6rzr8VqDqtQX51P7xKxlRrNtntrlm0-BTE-GF5m8wpFkFm00]--></g></svg>