<?xml version="1.0" encoding="us-ascii" standalone="no"?><svg xmlns="http://www.w3.org/2000/svg" xmlns:xlink="http://www.w3.org/1999/xlink" contentStyleType="text/css" height="257.1px" preserveAspectRatio="none" style="width:641px;height:257px;background:#FFFFFF;" version="1.1" viewBox="0 0 641 257" width="641.1px" zoomAndPan="magnify"><defs/><g><!--cluster com--><g id="cluster_com"><path d="M2.55,1.8041 L11.55,1.8041 A1.125,1.125 0 0 1 12.3,2.5541 L14.4,9.1904 L638.25,9.1904 A0.75,0.75 0 0 1 639,9.9404 L639,254.2541 A0.75,0.75 0 0 1 638.25,255.0041 L2.55,255.0041 A0.75,0.75 0 0 1 1.8,254.2541 L1.8,2.5541 A0.75,0.75 0 0 1 2.55,1.8041 " fill="none" style="stroke:#000000;stroke-width:0.44999999999999996;"/><line style="stroke:#000000;stroke-width:0.44999999999999996;" x1="1.8" x2="14.4" y1="9.1904" y2="9.1904"/><text fill="#000000" font-family="sans-serif" font-size="4.2" font-weight="bold" lengthAdjust="spacing" textLength="8.7" x="3" y="6.9363">com</text></g><!--cluster example--><g id="cluster_example"><path d="M9.75,15.3041 L27.75,15.3041 A1.125,1.125 0 0 1 28.5,16.0541 L30.6,22.6904 L631.05,22.6904 A0.75,0.75 0 0 1 631.8,23.4404 L631.8,247.0541 A0.75,0.75 0 0 1 631.05,247.8041 L9.75,247.8041 A0.75,0.75 0 0 1 9,247.0541 L9,16.0541 A0.75,0.75 0 0 1 9.75,15.3041 " fill="none" style="stroke:#000000;stroke-width:0.44999999999999996;"/><line style="stroke:#000000;stroke-width:0.44999999999999996;" x1="9" x2="30.6" y1="22.6904" y2="22.6904"/><text fill="#000000" font-family="sans-serif" font-size="4.2" font-weight="bold" lengthAdjust="spacing" textLength="17.7" x="10.2" y="20.4363">example</text></g><!--cluster movie_rating_service--><g id="cluster_movie_rating_service"><path d="M16.95,28.8041 L63.15,28.8041 A1.125,1.125 0 0 1 63.9,29.5541 L66,36.1904 L623.85,36.1904 A0.75,0.75 0 0 1 624.6,36.9404 L624.6,239.8541 A0.75,0.75 0 0 1 623.85,240.6041 L16.95,240.6041 A0.75,0.75 0 0 1 16.2,239.8541 L16.2,29.5541 A0.75,0.75 0 0 1 16.95,28.8041 " fill="none" style="stroke:#000000;stroke-width:0.44999999999999996;"/><line style="stroke:#000000;stroke-width:0.44999999999999996;" x1="16.2" x2="66" y1="36.1904" y2="36.1904"/><text fill="#000000" font-family="sans-serif" font-size="4.2" font-weight="bold" lengthAdjust="spacing" textLength="45.9" x="17.4" y="33.9363">movie_rating_service</text></g><!--cluster model--><g id="cluster_model"><path d="M321.75,42.3041 L334.95,42.3041 A1.125,1.125 0 0 1 335.7,43.0541 L337.8,49.6904 L616.65,49.6904 A0.75,0.75 0 0 1 617.4,50.4404 L617.4,232.6541 A0.75,0.75 0 0 1 616.65,233.4041 L321.75,233.4041 A0.75,0.75 0 0 1 321,232.6541 L321,43.0541 A0.75,0.75 0 0 1 321.75,42.3041 " fill="none" style="stroke:#000000;stroke-width:0.44999999999999996;"/><line style="stroke:#000000;stroke-width:0.44999999999999996;" x1="321" x2="337.8" y1="49.6904" y2="49.6904"/><text fill="#000000" font-family="sans-serif" font-size="4.2" font-weight="bold" lengthAdjust="spacing" textLength="12.9" x="322.2" y="47.4363">model</text></g><!--cluster enums--><g id="cluster_enums"><path d="M533.85,78.6041 L548.25,78.6041 A1.125,1.125 0 0 1 549,79.3541 L551.1,85.9904 L609.45,85.9904 A0.75,0.75 0 0 1 610.2,86.7404 L610.2,221.5541 A0.75,0.75 0 0 1 609.45,222.3041 L533.85,222.3041 A0.75,0.75 0 0 1 533.1,221.5541 L533.1,79.3541 A0.75,0.75 0 0 1 533.85,78.6041 " fill="none" style="stroke:#000000;stroke-width:0.44999999999999996;"/><line style="stroke:#000000;stroke-width:0.44999999999999996;" x1="533.1" x2="551.1" y1="85.9904" y2="85.9904"/><text fill="#000000" font-family="sans-serif" font-size="4.2" font-weight="bold" lengthAdjust="spacing" textLength="14.1" x="534.3" y="83.7363">enums</text></g><!--cluster exception--><g id="cluster_exception"><path d="M184.65,87.0041 L205.95,87.0041 A1.125,1.125 0 0 1 206.7,87.7541 L208.8,94.3904 L313.05,94.3904 A0.75,0.75 0 0 1 313.8,95.1404 L313.8,213.1541 A0.75,0.75 0 0 1 313.05,213.9041 L184.65,213.9041 A0.75,0.75 0 0 1 183.9,213.1541 L183.9,87.7541 A0.75,0.75 0 0 1 184.65,87.0041 " fill="none" style="stroke:#000000;stroke-width:0.44999999999999996;"/><line style="stroke:#000000;stroke-width:0.44999999999999996;" x1="183.9" x2="208.8" y1="94.3904" y2="94.3904"/><text fill="#000000" font-family="sans-serif" font-size="4.2" font-weight="bold" lengthAdjust="spacing" textLength="21" x="185.1" y="92.1363">exception</text></g><!--class MovieRatingServiceApplication--><g id="elem_MovieRatingServiceApplication"><rect codeLine="14" fill="#F1F1F1" height="19.9863" id="MovieRatingServiceApplication" rx="0.75" ry="0.75" style="stroke:#181818;stroke-width:0.15;" width="67.8" x="111.3" y="95.2541"/><ellipse cx="115.8" cy="100.0541" fill="#ADD1B2" rx="3.3" ry="3.3" style="stroke:#181818;stroke-width:0.3;"/><path d="M116.6297,98.8166 Q116.6766,98.751 116.7328,98.7182 Q116.7891,98.6854 116.8547,98.6854 Q116.9672,98.6854 117.0375,98.765 Q117.1078,98.84 117.1078,99.0229 L117.1078,99.4588 Q117.1078,99.6416 117.0375,99.7213 Q116.9672,99.801 116.8547,99.801 Q116.7516,99.801 116.6906,99.74 Q116.6297,99.6838 116.5969,99.5291 Q116.5828,99.4213 116.5266,99.365 Q116.4281,99.2525 116.2453,99.1869 Q116.0625,99.1213 115.875,99.1213 Q115.6453,99.1213 115.4531,99.2197 Q115.2656,99.3182 115.1156,99.5432 Q114.9703,99.7682 114.9703,100.0775 L114.9703,100.4057 Q114.9703,100.776 115.2375,101.0244 Q115.5047,101.2682 115.9828,101.2682 Q116.2641,101.2682 116.4609,101.1932 Q116.5781,101.1463 116.7047,101.015 Q116.7844,100.9354 116.8266,100.9119 Q116.8734,100.8885 116.9344,100.8885 Q117.0328,100.8885 117.1078,100.9682 Q117.1875,101.0432 117.1875,101.1463 Q117.1875,101.2494 117.0844,101.3713 Q116.9344,101.5447 116.6953,101.6432 Q116.3719,101.7791 115.9828,101.7791 Q115.5281,101.7791 115.1672,101.5916 Q114.8719,101.4416 114.6656,101.1229 Q114.4594,100.7994 114.4594,100.415 L114.4594,100.0682 Q114.4594,99.6697 114.6422,99.3275 Q114.8297,98.9807 115.1578,98.7979 Q115.4859,98.6104 115.8562,98.6104 Q116.0766,98.6104 116.2688,98.6619 Q116.4656,98.7088 116.6297,98.8166 Z " fill="#000000"/><text fill="#000000" font-family="sans-serif" font-size="4.2" lengthAdjust="spacing" textLength="58.2" x="120" y="101.7932">MovieRatingServiceApplication</text><line style="stroke:#181818;stroke-width:0.15;" x1="111.6" x2="178.8" y1="104.8541" y2="104.8541"/><line style="stroke:#181818;stroke-width:0.15;" x1="111.6" x2="178.8" y1="107.2541" y2="107.2541"/><ellipse cx="114.6" cy="111.6973" fill="#84BE84" rx="0.9" ry="0.9" style="stroke:#038048;stroke-width:0.3;"/><text fill="#000000" font-family="sans-serif" font-size="4.2" lengthAdjust="spacing" text-decoration="underline" textLength="34.5" x="117.3" y="112.9863">void main(String[])</text></g><!--class HibernateUtil--><g id="elem_HibernateUtil"><rect codeLine="24" fill="#F1F1F1" height="25.5727" id="HibernateUtil" rx="0.75" ry="0.75" style="stroke:#181818;stroke-width:0.15;" width="79.8" x="21" y="92.5541"/><ellipse cx="47.625" cy="97.3541" fill="#ADD1B2" rx="3.3" ry="3.3" style="stroke:#181818;stroke-width:0.3;"/><path d="M48.4547,96.1166 Q48.5016,96.051 48.5578,96.0182 Q48.6141,95.9854 48.6797,95.9854 Q48.7922,95.9854 48.8625,96.065 Q48.9328,96.14 48.9328,96.3229 L48.9328,96.7588 Q48.9328,96.9416 48.8625,97.0213 Q48.7922,97.101 48.6797,97.101 Q48.5766,97.101 48.5156,97.04 Q48.4547,96.9838 48.4219,96.8291 Q48.4078,96.7213 48.3516,96.665 Q48.2531,96.5525 48.0703,96.4869 Q47.8875,96.4213 47.7,96.4213 Q47.4703,96.4213 47.2781,96.5197 Q47.0906,96.6182 46.9406,96.8432 Q46.7953,97.0682 46.7953,97.3775 L46.7953,97.7057 Q46.7953,98.076 47.0625,98.3244 Q47.3297,98.5682 47.8078,98.5682 Q48.0891,98.5682 48.2859,98.4932 Q48.4031,98.4463 48.5297,98.315 Q48.6094,98.2354 48.6516,98.2119 Q48.6984,98.1885 48.7594,98.1885 Q48.8578,98.1885 48.9328,98.2682 Q49.0125,98.3432 49.0125,98.4463 Q49.0125,98.5494 48.9094,98.6713 Q48.7594,98.8447 48.5203,98.9432 Q48.1969,99.0791 47.8078,99.0791 Q47.3531,99.0791 46.9922,98.8916 Q46.6969,98.7416 46.4906,98.4229 Q46.2844,98.0994 46.2844,97.715 L46.2844,97.3682 Q46.2844,96.9697 46.4672,96.6275 Q46.6547,96.2807 46.9828,96.0979 Q47.3109,95.9104 47.6813,95.9104 Q47.9016,95.9104 48.0938,95.9619 Q48.2906,96.0088 48.4547,96.1166 Z " fill="#000000"/><text fill="#000000" font-family="sans-serif" font-size="4.2" lengthAdjust="spacing" textLength="24" x="53.775" y="99.0932">HibernateUtil</text><line style="stroke:#181818;stroke-width:0.15;" x1="21.3" x2="100.5" y1="102.1541" y2="102.1541"/><rect fill="none" height="1.8" style="stroke:#C82930;stroke-width:0.3;" width="1.8" x="23.4" y="105.6973"/><text fill="#000000" font-family="sans-serif" font-size="4.2" lengthAdjust="spacing" text-decoration="underline" textLength="59.4" x="27" y="107.8863">SessionFactory sessionFactory</text><line style="stroke:#181818;stroke-width:0.15;" x1="21.3" x2="100.5" y1="110.1404" y2="110.1404"/><rect fill="#F24D5C" height="1.8" style="stroke:#C82930;stroke-width:0.3;" width="1.8" x="23.4" y="113.6836"/><text fill="#000000" font-family="sans-serif" font-size="4.2" lengthAdjust="spacing" text-decoration="underline" textLength="72" x="27" y="115.8727">SessionFactory buildSessionFactory()</text></g><!--class Grade--><g id="elem_Grade"><rect codeLine="6" fill="#F1F1F1" height="36.7453" id="Grade" rx="0.75" ry="0.75" style="stroke:#181818;stroke-width:0.15;" width="46.8" x="325.8" y="87.0041"/><ellipse cx="341.925" cy="91.8041" fill="#ADD1B2" rx="3.3" ry="3.3" style="stroke:#181818;stroke-width:0.3;"/><path d="M342.7547,90.5666 Q342.8016,90.501 342.8578,90.4682 Q342.9141,90.4354 342.9797,90.4354 Q343.0922,90.4354 343.1625,90.515 Q343.2328,90.59 343.2328,90.7729 L343.2328,91.2088 Q343.2328,91.3916 343.1625,91.4713 Q343.0922,91.551 342.9797,91.551 Q342.8766,91.551 342.8156,91.49 Q342.7547,91.4338 342.7219,91.2791 Q342.7078,91.1713 342.6516,91.115 Q342.5531,91.0025 342.3703,90.9369 Q342.1875,90.8713 342,90.8713 Q341.7703,90.8713 341.5781,90.9697 Q341.3906,91.0682 341.2406,91.2932 Q341.0953,91.5182 341.0953,91.8275 L341.0953,92.1557 Q341.0953,92.526 341.3625,92.7744 Q341.6297,93.0182 342.1078,93.0182 Q342.3891,93.0182 342.5859,92.9432 Q342.7031,92.8963 342.8297,92.765 Q342.9094,92.6854 342.9516,92.6619 Q342.9984,92.6385 343.0594,92.6385 Q343.1578,92.6385 343.2328,92.7182 Q343.3125,92.7932 343.3125,92.8963 Q343.3125,92.9994 343.2094,93.1213 Q343.0594,93.2947 342.8203,93.3932 Q342.4969,93.5291 342.1078,93.5291 Q341.6531,93.5291 341.2922,93.3416 Q340.9969,93.1916 340.7906,92.8729 Q340.5844,92.5494 340.5844,92.165 L340.5844,91.8182 Q340.5844,91.4197 340.7672,91.0775 Q340.9547,90.7307 341.2828,90.5479 Q341.6109,90.3604 341.9813,90.3604 Q342.2016,90.3604 342.3938,90.4119 Q342.5906,90.4588 342.7547,90.5666 Z " fill="#000000"/><text fill="#000000" font-family="sans-serif" font-size="4.2" lengthAdjust="spacing" textLength="12" x="348.075" y="93.5432">Grade</text><line style="stroke:#181818;stroke-width:0.15;" x1="326.1" x2="372.3" y1="96.6041" y2="96.6041"/><rect fill="none" height="1.8" style="stroke:#C82930;stroke-width:0.3;" width="1.8" x="328.2" y="100.1473"/><text fill="#000000" font-family="sans-serif" font-size="4.2" lengthAdjust="spacing" textLength="23.7" x="331.8" y="102.3363">long gradeId</text><rect fill="none" height="1.8" style="stroke:#C82930;stroke-width:0.3;" width="1.8" x="328.2" y="105.7336"/><text fill="#000000" font-family="sans-serif" font-size="4.2" lengthAdjust="spacing" textLength="39" x="331.8" y="107.9227">ApplicationUser user</text><rect fill="none" height="1.8" style="stroke:#C82930;stroke-width:0.3;" width="1.8" x="328.2" y="111.3199"/><text fill="#000000" font-family="sans-serif" font-size="4.2" lengthAdjust="spacing" textLength="15.3" x="331.8" y="113.509">Film film</text><rect fill="none" height="1.8" style="stroke:#C82930;stroke-width:0.3;" width="1.8" x="328.2" y="116.9063"/><text fill="#000000" font-family="sans-serif" font-size="4.2" lengthAdjust="spacing" textLength="38.7" x="331.8" y="119.0953">double gradeByUser</text><line style="stroke:#181818;stroke-width:0.15;" x1="326.1" x2="372.3" y1="121.3494" y2="121.3494"/></g><!--class Genre--><g id="elem_Genre"><rect codeLine="17" fill="#F1F1F1" height="31.159" id="Genre" rx="0.75" ry="0.75" style="stroke:#181818;stroke-width:0.15;" width="42" x="383.1" y="89.7041"/><ellipse cx="396.825" cy="94.5041" fill="#ADD1B2" rx="3.3" ry="3.3" style="stroke:#181818;stroke-width:0.3;"/><path d="M397.6547,93.2666 Q397.7016,93.201 397.7578,93.1682 Q397.8141,93.1354 397.8797,93.1354 Q397.9922,93.1354 398.0625,93.215 Q398.1328,93.29 398.1328,93.4729 L398.1328,93.9088 Q398.1328,94.0916 398.0625,94.1713 Q397.9922,94.251 397.8797,94.251 Q397.7766,94.251 397.7156,94.19 Q397.6547,94.1338 397.6219,93.9791 Q397.6078,93.8713 397.5516,93.815 Q397.4531,93.7025 397.2703,93.6369 Q397.0875,93.5713 396.9,93.5713 Q396.6703,93.5713 396.4781,93.6697 Q396.2906,93.7682 396.1406,93.9932 Q395.9953,94.2182 395.9953,94.5275 L395.9953,94.8557 Q395.9953,95.226 396.2625,95.4744 Q396.5297,95.7182 397.0078,95.7182 Q397.2891,95.7182 397.4859,95.6432 Q397.6031,95.5963 397.7297,95.465 Q397.8094,95.3854 397.8516,95.3619 Q397.8984,95.3385 397.9594,95.3385 Q398.0578,95.3385 398.1328,95.4182 Q398.2125,95.4932 398.2125,95.5963 Q398.2125,95.6994 398.1094,95.8213 Q397.9594,95.9947 397.7203,96.0932 Q397.3969,96.2291 397.0078,96.2291 Q396.5531,96.2291 396.1922,96.0416 Q395.8969,95.8916 395.6906,95.5729 Q395.4844,95.2494 395.4844,94.865 L395.4844,94.5182 Q395.4844,94.1197 395.6672,93.7775 Q395.8547,93.4307 396.1828,93.2479 Q396.5109,93.0604 396.8812,93.0604 Q397.1016,93.0604 397.2938,93.1119 Q397.4906,93.1588 397.6547,93.2666 Z " fill="#000000"/><text fill="#000000" font-family="sans-serif" font-size="4.2" lengthAdjust="spacing" textLength="12" x="402.975" y="96.2432">Genre</text><line style="stroke:#181818;stroke-width:0.15;" x1="383.4" x2="424.8" y1="99.3041" y2="99.3041"/><rect fill="none" height="1.8" style="stroke:#C82930;stroke-width:0.3;" width="1.8" x="385.5" y="102.8473"/><text fill="#000000" font-family="sans-serif" font-size="4.2" lengthAdjust="spacing" textLength="23.7" x="389.1" y="105.0363">long genreId</text><rect fill="none" height="1.8" style="stroke:#C82930;stroke-width:0.3;" width="1.8" x="385.5" y="108.4336"/><text fill="#000000" font-family="sans-serif" font-size="4.2" lengthAdjust="spacing" textLength="34.2" x="389.1" y="110.6227">String genreName</text><rect fill="none" height="1.8" style="stroke:#C82930;stroke-width:0.3;" width="1.8" x="385.5" y="114.0199"/><text fill="#000000" font-family="sans-serif" font-size="4.2" lengthAdjust="spacing" textLength="28.8" x="389.1" y="116.209">List&lt;Film&gt; films</text><line style="stroke:#181818;stroke-width:0.15;" x1="383.4" x2="424.8" y1="118.4631" y2="118.4631"/></g><!--class Film--><g id="elem_Film"><rect codeLine="28" fill="#F1F1F1" height="103.7813" id="Film" rx="0.75" ry="0.75" style="stroke:#181818;stroke-width:0.15;" width="91.8" x="435.6" y="53.4041"/><ellipse cx="476.325" cy="58.2041" fill="#ADD1B2" rx="3.3" ry="3.3" style="stroke:#181818;stroke-width:0.3;"/><path d="M477.1547,56.9666 Q477.2016,56.901 477.2578,56.8682 Q477.3141,56.8354 477.3797,56.8354 Q477.4922,56.8354 477.5625,56.915 Q477.6328,56.99 477.6328,57.1729 L477.6328,57.6088 Q477.6328,57.7916 477.5625,57.8713 Q477.4922,57.951 477.3797,57.951 Q477.2766,57.951 477.2156,57.89 Q477.1547,57.8338 477.1219,57.6791 Q477.1078,57.5713 477.0516,57.515 Q476.9531,57.4025 476.7703,57.3369 Q476.5875,57.2713 476.4,57.2713 Q476.1703,57.2713 475.9781,57.3697 Q475.7906,57.4682 475.6406,57.6932 Q475.4953,57.9182 475.4953,58.2275 L475.4953,58.5557 Q475.4953,58.926 475.7625,59.1744 Q476.0297,59.4182 476.5078,59.4182 Q476.7891,59.4182 476.9859,59.3432 Q477.1031,59.2963 477.2297,59.165 Q477.3094,59.0854 477.3516,59.0619 Q477.3984,59.0385 477.4594,59.0385 Q477.5578,59.0385 477.6328,59.1182 Q477.7125,59.1932 477.7125,59.2963 Q477.7125,59.3994 477.6094,59.5213 Q477.4594,59.6947 477.2203,59.7932 Q476.8969,59.9291 476.5078,59.9291 Q476.0531,59.9291 475.6922,59.7416 Q475.3969,59.5916 475.1906,59.2729 Q474.9844,58.9494 474.9844,58.565 L474.9844,58.2182 Q474.9844,57.8197 475.1672,57.4775 Q475.3547,57.1307 475.6828,56.9479 Q476.0109,56.7604 476.3812,56.7604 Q476.6016,56.7604 476.7938,56.8119 Q476.9906,56.8588 477.1547,56.9666 Z " fill="#000000"/><text fill="#000000" font-family="sans-serif" font-size="4.2" lengthAdjust="spacing" textLength="7.8" x="482.475" y="59.9432">Film</text><line style="stroke:#181818;stroke-width:0.15;" x1="435.9" x2="527.1" y1="63.0041" y2="63.0041"/><rect fill="none" height="1.8" style="stroke:#C82930;stroke-width:0.3;" width="1.8" x="438" y="66.5473"/><text fill="#000000" font-family="sans-serif" font-size="4.2" lengthAdjust="spacing" textLength="18.9" x="441.6" y="68.7363">long filmId</text><rect fill="none" height="1.8" style="stroke:#C82930;stroke-width:0.3;" width="1.8" x="438" y="72.1336"/><text fill="#000000" font-family="sans-serif" font-size="4.2" lengthAdjust="spacing" textLength="29.4" x="441.6" y="74.3227">String filmName</text><rect fill="none" height="1.8" style="stroke:#C82930;stroke-width:0.3;" width="1.8" x="438" y="77.7199"/><text fill="#000000" font-family="sans-serif" font-size="4.2" lengthAdjust="spacing" textLength="35.1" x="441.6" y="79.909">String filmImageUrl</text><rect fill="none" height="1.8" style="stroke:#C82930;stroke-width:0.3;" width="1.8" x="438" y="83.3062"/><text fill="#000000" font-family="sans-serif" font-size="4.2" lengthAdjust="spacing" textLength="28.2" x="441.6" y="85.4953">String trailerUrl</text><rect fill="none" height="1.8" style="stroke:#C82930;stroke-width:0.3;" width="1.8" x="438" y="88.8926"/><text fill="#000000" font-family="sans-serif" font-size="4.2" lengthAdjust="spacing" textLength="33" x="441.6" y="91.0816">String description</text><rect fill="none" height="1.8" style="stroke:#C82930;stroke-width:0.3;" width="1.8" x="438" y="94.4789"/><text fill="#000000" font-family="sans-serif" font-size="4.2" lengthAdjust="spacing" textLength="26.7" x="441.6" y="96.668">String director</text><rect fill="none" height="1.8" style="stroke:#C82930;stroke-width:0.3;" width="1.8" x="438" y="100.0652"/><text fill="#000000" font-family="sans-serif" font-size="4.2" lengthAdjust="spacing" textLength="26.4" x="441.6" y="102.2543">String country</text><rect fill="none" height="1.8" style="stroke:#C82930;stroke-width:0.3;" width="1.8" x="438" y="105.6516"/><text fill="#000000" font-family="sans-serif" font-size="4.2" lengthAdjust="spacing" textLength="33.3" x="441.6" y="107.8406">Date releaseDate</text><rect fill="none" height="1.8" style="stroke:#C82930;stroke-width:0.3;" width="1.8" x="438" y="111.2379"/><text fill="#000000" font-family="sans-serif" font-size="4.2" lengthAdjust="spacing" textLength="24.9" x="441.6" y="113.427">long duration</text><rect fill="none" height="1.8" style="stroke:#C82930;stroke-width:0.3;" width="1.8" x="438" y="116.8242"/><text fill="#000000" font-family="sans-serif" font-size="4.2" lengthAdjust="spacing" textLength="42" x="441.6" y="119.0133">double averageRating</text><rect fill="none" height="1.8" style="stroke:#C82930;stroke-width:0.3;" width="1.8" x="438" y="122.4105"/><text fill="#000000" font-family="sans-serif" font-size="4.2" lengthAdjust="spacing" textLength="52.5" x="441.6" y="124.5996">List&lt;ApplicationUser&gt; users</text><rect fill="none" height="1.8" style="stroke:#C82930;stroke-width:0.3;" width="1.8" x="438" y="127.9969"/><text fill="#000000" font-family="sans-serif" font-size="4.2" lengthAdjust="spacing" textLength="37.8" x="441.6" y="130.1859">List&lt;Grade&gt; grades</text><rect fill="none" height="1.8" style="stroke:#C82930;stroke-width:0.3;" width="1.8" x="438" y="133.5832"/><text fill="#000000" font-family="sans-serif" font-size="4.2" lengthAdjust="spacing" textLength="40.2" x="441.6" y="135.7723">List&lt;Review&gt; reviews</text><rect fill="none" height="1.8" style="stroke:#C82930;stroke-width:0.3;" width="1.8" x="438" y="139.1695"/><text fill="#000000" font-family="sans-serif" font-size="4.2" lengthAdjust="spacing" textLength="37.8" x="441.6" y="141.3586">List&lt;Genre&gt; genres</text><line style="stroke:#181818;stroke-width:0.15;" x1="435.9" x2="527.1" y1="143.6127" y2="143.6127"/><ellipse cx="438.9" cy="148.0559" fill="#84BE84" rx="0.9" ry="0.9" style="stroke:#038048;stroke-width:0.3;"/><text fill="#000000" font-family="sans-serif" font-size="4.2" lengthAdjust="spacing" textLength="84" x="441.6" y="149.3449">void addUserWhoLikedFilm(ApplicationUser)</text><ellipse cx="438.9" cy="153.6422" fill="#84BE84" rx="0.9" ry="0.9" style="stroke:#038048;stroke-width:0.3;"/><text fill="#000000" font-family="sans-serif" font-size="4.2" lengthAdjust="spacing" textLength="70.8" x="441.6" y="154.9313">void calculateAndSetAverageRating()</text></g><!--class ApplicationUser--><g id="elem_ApplicationUser"><rect codeLine="51" fill="#F1F1F1" height="53.5043" id="ApplicationUser" rx="0.75" ry="0.75" style="stroke:#181818;stroke-width:0.15;" width="47.7" x="325.95" y="175.2041"/><ellipse cx="334.365" cy="180.0041" fill="#ADD1B2" rx="3.3" ry="3.3" style="stroke:#181818;stroke-width:0.3;"/><path d="M335.1947,178.7666 Q335.2416,178.701 335.2978,178.6682 Q335.3541,178.6354 335.4197,178.6354 Q335.5322,178.6354 335.6025,178.715 Q335.6728,178.79 335.6728,178.9729 L335.6728,179.4088 Q335.6728,179.5916 335.6025,179.6713 Q335.5322,179.751 335.4197,179.751 Q335.3166,179.751 335.2556,179.69 Q335.1947,179.6338 335.1619,179.4791 Q335.1478,179.3713 335.0916,179.315 Q334.9931,179.2025 334.8103,179.1369 Q334.6275,179.0713 334.44,179.0713 Q334.2103,179.0713 334.0181,179.1697 Q333.8306,179.2682 333.6806,179.4932 Q333.5353,179.7182 333.5353,180.0275 L333.5353,180.3557 Q333.5353,180.726 333.8025,180.9744 Q334.0697,181.2182 334.5478,181.2182 Q334.8291,181.2182 335.0259,181.1432 Q335.1431,181.0963 335.2697,180.965 Q335.3494,180.8854 335.3916,180.8619 Q335.4384,180.8385 335.4994,180.8385 Q335.5978,180.8385 335.6728,180.9182 Q335.7525,180.9932 335.7525,181.0963 Q335.7525,181.1994 335.6494,181.3213 Q335.4994,181.4947 335.2603,181.5932 Q334.9369,181.7291 334.5478,181.7291 Q334.0931,181.7291 333.7322,181.5416 Q333.4369,181.3916 333.2306,181.0729 Q333.0244,180.7494 333.0244,180.365 L333.0244,180.0182 Q333.0244,179.6197 333.2072,179.2775 Q333.3947,178.9307 333.7228,178.7479 Q334.0509,178.5604 334.4213,178.5604 Q334.6416,178.5604 334.8337,178.6119 Q335.0306,178.6588 335.1947,178.7666 Z " fill="#000000"/><text fill="#000000" font-family="sans-serif" font-size="4.2" lengthAdjust="spacing" textLength="29.4" x="339.435" y="181.7432">ApplicationUser</text><line style="stroke:#181818;stroke-width:0.15;" x1="326.25" x2="373.35" y1="184.8041" y2="184.8041"/><rect fill="none" height="1.8" style="stroke:#C82930;stroke-width:0.3;" width="1.8" x="328.35" y="188.3473"/><text fill="#000000" font-family="sans-serif" font-size="4.2" lengthAdjust="spacing" textLength="12.6" x="331.95" y="190.5363">long id</text><rect fill="none" height="1.8" style="stroke:#C82930;stroke-width:0.3;" width="1.8" x="328.35" y="193.9336"/><text fill="#000000" font-family="sans-serif" font-size="4.2" lengthAdjust="spacing" textLength="21.3" x="331.95" y="196.1227">String login</text><rect fill="none" height="1.8" style="stroke:#C82930;stroke-width:0.3;" width="1.8" x="328.35" y="199.5199"/><text fill="#000000" font-family="sans-serif" font-size="4.2" lengthAdjust="spacing" textLength="30.3" x="331.95" y="201.709">String password</text><rect fill="none" height="1.8" style="stroke:#C82930;stroke-width:0.3;" width="1.8" x="328.35" y="205.1063"/><text fill="#000000" font-family="sans-serif" font-size="4.2" lengthAdjust="spacing" textLength="19.8" x="331.95" y="207.2953">ERole role</text><rect fill="none" height="1.8" style="stroke:#C82930;stroke-width:0.3;" width="1.8" x="328.35" y="210.6926"/><text fill="#000000" font-family="sans-serif" font-size="4.2" lengthAdjust="spacing" textLength="39.9" x="331.95" y="212.8816">Set&lt;Review&gt; reviews</text><rect fill="none" height="1.8" style="stroke:#C82930;stroke-width:0.3;" width="1.8" x="328.35" y="216.2789"/><text fill="#000000" font-family="sans-serif" font-size="4.2" lengthAdjust="spacing" textLength="37.5" x="331.95" y="218.468">Set&lt;Grade&gt; grades</text><rect fill="none" height="1.8" style="stroke:#C82930;stroke-width:0.3;" width="1.8" x="328.35" y="221.8652"/><text fill="#000000" font-family="sans-serif" font-size="4.2" lengthAdjust="spacing" textLength="28.8" x="331.95" y="224.0543">List&lt;Film&gt; films</text><line style="stroke:#181818;stroke-width:0.15;" x1="326.25" x2="373.35" y1="226.3084" y2="226.3084"/></g><!--class Review--><g id="elem_Review"><rect codeLine="60" fill="#F1F1F1" height="42.3316" id="Review" rx="0.75" ry="0.75" style="stroke:#181818;stroke-width:0.15;" width="46.8" x="384.3" y="180.7541"/><ellipse cx="399.675" cy="185.5541" fill="#ADD1B2" rx="3.3" ry="3.3" style="stroke:#181818;stroke-width:0.3;"/><path d="M400.5047,184.3166 Q400.5516,184.251 400.6078,184.2182 Q400.6641,184.1854 400.7297,184.1854 Q400.8422,184.1854 400.9125,184.265 Q400.9828,184.34 400.9828,184.5229 L400.9828,184.9588 Q400.9828,185.1416 400.9125,185.2213 Q400.8422,185.301 400.7297,185.301 Q400.6266,185.301 400.5656,185.24 Q400.5047,185.1838 400.4719,185.0291 Q400.4578,184.9213 400.4016,184.865 Q400.3031,184.7525 400.1203,184.6869 Q399.9375,184.6213 399.75,184.6213 Q399.5203,184.6213 399.3281,184.7197 Q399.1406,184.8182 398.9906,185.0432 Q398.8453,185.2682 398.8453,185.5775 L398.8453,185.9057 Q398.8453,186.276 399.1125,186.5244 Q399.3797,186.7682 399.8578,186.7682 Q400.1391,186.7682 400.3359,186.6932 Q400.4531,186.6463 400.5797,186.515 Q400.6594,186.4354 400.7016,186.4119 Q400.7484,186.3885 400.8094,186.3885 Q400.9078,186.3885 400.9828,186.4682 Q401.0625,186.5432 401.0625,186.6463 Q401.0625,186.7494 400.9594,186.8713 Q400.8094,187.0447 400.5703,187.1432 Q400.2469,187.2791 399.8578,187.2791 Q399.4031,187.2791 399.0422,187.0916 Q398.7469,186.9416 398.5406,186.6229 Q398.3344,186.2994 398.3344,185.915 L398.3344,185.5682 Q398.3344,185.1697 398.5172,184.8275 Q398.7047,184.4807 399.0328,184.2979 Q399.3609,184.1104 399.7313,184.1104 Q399.9516,184.1104 400.1438,184.1619 Q400.3406,184.2088 400.5047,184.3166 Z " fill="#000000"/><text fill="#000000" font-family="sans-serif" font-size="4.2" lengthAdjust="spacing" textLength="13.5" x="405.825" y="187.2932">Review</text><line style="stroke:#181818;stroke-width:0.15;" x1="384.6" x2="430.8" y1="190.3541" y2="190.3541"/><rect fill="none" height="1.8" style="stroke:#C82930;stroke-width:0.3;" width="1.8" x="386.7" y="193.8973"/><text fill="#000000" font-family="sans-serif" font-size="4.2" lengthAdjust="spacing" textLength="24.6" x="390.3" y="196.0863">long reviewId</text><rect fill="none" height="1.8" style="stroke:#C82930;stroke-width:0.3;" width="1.8" x="386.7" y="199.4836"/><text fill="#000000" font-family="sans-serif" font-size="4.2" lengthAdjust="spacing" textLength="15.3" x="390.3" y="201.6727">Film film</text><rect fill="none" height="1.8" style="stroke:#C82930;stroke-width:0.3;" width="1.8" x="386.7" y="205.0699"/><text fill="#000000" font-family="sans-serif" font-size="4.2" lengthAdjust="spacing" textLength="39" x="390.3" y="207.259">ApplicationUser user</text><rect fill="none" height="1.8" style="stroke:#C82930;stroke-width:0.3;" width="1.8" x="386.7" y="210.6563"/><text fill="#000000" font-family="sans-serif" font-size="4.2" lengthAdjust="spacing" textLength="25.8" x="390.3" y="212.8453">String header</text><rect fill="none" height="1.8" style="stroke:#C82930;stroke-width:0.3;" width="1.8" x="386.7" y="216.2426"/><text fill="#000000" font-family="sans-serif" font-size="4.2" lengthAdjust="spacing" textLength="24.3" x="390.3" y="218.4316">String review</text><line style="stroke:#181818;stroke-width:0.15;" x1="384.6" x2="430.8" y1="220.6857" y2="220.6857"/></g><!--class ERole--><g id="elem_ERole"><rect codeLine="1" fill="#F1F1F1" height="31.159" id="ERole" rx="0.75" ry="0.75" style="stroke:#181818;stroke-width:0.15;" width="26.7" x="538.05" y="89.7041"/><ellipse cx="545.115" cy="94.5041" fill="#EB937F" rx="3.3" ry="3.3" style="stroke:#181818;stroke-width:0.3;"/><path d="M544.7728,94.7432 L544.7728,95.4932 L546.0713,95.4932 L546.0713,95.2166 Q546.0713,95.0338 546.1416,94.9541 Q546.2166,94.8744 546.3291,94.8744 Q546.4416,94.8744 546.5119,94.9541 Q546.5822,95.0338 546.5822,95.2166 L546.5822,96.0041 L544.1822,96.0041 Q543.9947,96.0041 543.915,95.9338 Q543.84,95.8635 543.84,95.7463 Q543.84,95.6338 543.9197,95.5635 Q543.9994,95.4932 544.1822,95.4932 L544.2619,95.4932 L544.2619,93.4963 L544.1822,93.4963 Q543.9947,93.4963 543.915,93.426 Q543.84,93.3557 543.84,93.2385 Q543.84,93.126 543.915,93.0557 Q543.9947,92.9854 544.1822,92.9854 L546.4697,92.9854 L546.4697,93.7635 Q546.4697,93.9463 546.3994,94.026 Q546.3338,94.101 546.2166,94.101 Q546.1041,94.101 546.0337,94.026 Q545.9634,93.9463 545.9634,93.7635 L545.9634,93.4963 L544.7728,93.4963 L544.7728,94.2322 L545.2181,94.2322 Q545.2181,94.0354 545.2556,93.9791 Q545.3353,93.8572 545.4759,93.8572 Q545.5884,93.8572 545.6587,93.9369 Q545.7291,94.0119 545.7291,94.1947 L545.7291,94.7854 Q545.7291,94.9494 545.6916,95.0057 Q545.6119,95.1229 545.4759,95.1229 Q545.3353,95.1229 545.2556,95.001 Q545.2181,94.9447 545.2181,94.7432 L544.7728,94.7432 Z " fill="#000000"/><text fill="#000000" font-family="sans-serif" font-size="4.2" lengthAdjust="spacing" textLength="11.4" x="549.885" y="96.2432">ERole</text><line style="stroke:#181818;stroke-width:0.15;" x1="538.35" x2="564.45" y1="99.3041" y2="99.3041"/><ellipse cx="541.35" cy="103.7473" fill="none" rx="0.9" ry="0.9" style="stroke:#038048;stroke-width:0.3;"/><text fill="#000000" font-family="sans-serif" font-size="4.2" lengthAdjust="spacing" textLength="11.1" x="544.05" y="105.0363">USER</text><ellipse cx="541.35" cy="109.3336" fill="none" rx="0.9" ry="0.9" style="stroke:#038048;stroke-width:0.3;"/><text fill="#000000" font-family="sans-serif" font-size="4.2" lengthAdjust="spacing" textLength="12.6" x="544.05" y="110.6227">ADMIN</text><rect fill="none" height="1.8" style="stroke:#C82930;stroke-width:0.3;" width="1.8" x="540.45" y="114.0199"/><text fill="#000000" font-family="sans-serif" font-size="4.2" lengthAdjust="spacing" textLength="18.9" x="544.05" y="116.209">String title</text><line style="stroke:#181818;stroke-width:0.15;" x1="538.35" x2="564.45" y1="118.4631" y2="118.4631"/></g><!--class EventType--><g id="elem_EventType"><rect codeLine="46" fill="#F1F1F1" height="31.159" id="EventType" rx="0.75" ry="0.75" style="stroke:#181818;stroke-width:0.15;" width="30" x="575.4" y="89.7041"/><ellipse cx="579.9" cy="94.5041" fill="#EB937F" rx="3.3" ry="3.3" style="stroke:#181818;stroke-width:0.3;"/><path d="M579.5578,94.7432 L579.5578,95.4932 L580.8562,95.4932 L580.8562,95.2166 Q580.8562,95.0338 580.9266,94.9541 Q581.0016,94.8744 581.1141,94.8744 Q581.2266,94.8744 581.2969,94.9541 Q581.3672,95.0338 581.3672,95.2166 L581.3672,96.0041 L578.9672,96.0041 Q578.7797,96.0041 578.7,95.9338 Q578.625,95.8635 578.625,95.7463 Q578.625,95.6338 578.7047,95.5635 Q578.7844,95.4932 578.9672,95.4932 L579.0469,95.4932 L579.0469,93.4963 L578.9672,93.4963 Q578.7797,93.4963 578.7,93.426 Q578.625,93.3557 578.625,93.2385 Q578.625,93.126 578.7,93.0557 Q578.7797,92.9854 578.9672,92.9854 L581.2547,92.9854 L581.2547,93.7635 Q581.2547,93.9463 581.1844,94.026 Q581.1188,94.101 581.0016,94.101 Q580.8891,94.101 580.8188,94.026 Q580.7484,93.9463 580.7484,93.7635 L580.7484,93.4963 L579.5578,93.4963 L579.5578,94.2322 L580.0031,94.2322 Q580.0031,94.0354 580.0406,93.9791 Q580.1203,93.8572 580.2609,93.8572 Q580.3734,93.8572 580.4438,93.9369 Q580.5141,94.0119 580.5141,94.1947 L580.5141,94.7854 Q580.5141,94.9494 580.4766,95.0057 Q580.3969,95.1229 580.2609,95.1229 Q580.1203,95.1229 580.0406,95.001 Q580.0031,94.9447 580.0031,94.7432 L579.5578,94.7432 Z " fill="#000000"/><text fill="#000000" font-family="sans-serif" font-size="4.2" lengthAdjust="spacing" textLength="20.4" x="584.1" y="96.2432">EventType</text><line style="stroke:#181818;stroke-width:0.15;" x1="575.7" x2="605.1" y1="99.3041" y2="99.3041"/><ellipse cx="578.7" cy="103.7473" fill="none" rx="0.9" ry="0.9" style="stroke:#038048;stroke-width:0.3;"/><text fill="#000000" font-family="sans-serif" font-size="4.2" lengthAdjust="spacing" textLength="8.7" x="581.4" y="105.0363">LIKE</text><ellipse cx="578.7" cy="109.3336" fill="none" rx="0.9" ry="0.9" style="stroke:#038048;stroke-width:0.3;"/><text fill="#000000" font-family="sans-serif" font-size="4.2" lengthAdjust="spacing" textLength="15.9" x="581.4" y="110.6227">REVIEW</text><ellipse cx="578.7" cy="114.9199" fill="none" rx="0.9" ry="0.9" style="stroke:#038048;stroke-width:0.3;"/><text fill="#000000" font-family="sans-serif" font-size="4.2" lengthAdjust="spacing" textLength="14.7" x="581.4" y="116.209">GRADE</text><line style="stroke:#181818;stroke-width:0.15;" x1="575.7" x2="605.1" y1="118.4631" y2="118.4631"/></g><!--class Operation--><g id="elem_Operation"><rect codeLine="67" fill="#F1F1F1" height="31.159" id="Operation" rx="0.75" ry="0.75" style="stroke:#181818;stroke-width:0.15;" width="28.5" x="538.05" y="186.3041"/><ellipse cx="542.55" cy="191.1041" fill="#EB937F" rx="3.3" ry="3.3" style="stroke:#181818;stroke-width:0.3;"/><path d="M542.2078,191.3432 L542.2078,192.0932 L543.5063,192.0932 L543.5063,191.8166 Q543.5063,191.6338 543.5766,191.5541 Q543.6516,191.4744 543.7641,191.4744 Q543.8766,191.4744 543.9469,191.5541 Q544.0172,191.6338 544.0172,191.8166 L544.0172,192.6041 L541.6172,192.6041 Q541.4297,192.6041 541.35,192.5338 Q541.275,192.4635 541.275,192.3463 Q541.275,192.2338 541.3547,192.1635 Q541.4344,192.0932 541.6172,192.0932 L541.6969,192.0932 L541.6969,190.0963 L541.6172,190.0963 Q541.4297,190.0963 541.35,190.026 Q541.275,189.9557 541.275,189.8385 Q541.275,189.726 541.35,189.6557 Q541.4297,189.5854 541.6172,189.5854 L543.9047,189.5854 L543.9047,190.3635 Q543.9047,190.5463 543.8344,190.626 Q543.7688,190.701 543.6516,190.701 Q543.5391,190.701 543.4688,190.626 Q543.3984,190.5463 543.3984,190.3635 L543.3984,190.0963 L542.2078,190.0963 L542.2078,190.8322 L542.6531,190.8322 Q542.6531,190.6354 542.6906,190.5791 Q542.7703,190.4572 542.9109,190.4572 Q543.0234,190.4572 543.0938,190.5369 Q543.1641,190.6119 543.1641,190.7947 L543.1641,191.3854 Q543.1641,191.5494 543.1266,191.6057 Q543.0469,191.7229 542.9109,191.7229 Q542.7703,191.7229 542.6906,191.601 Q542.6531,191.5447 542.6531,191.3432 L542.2078,191.3432 Z " fill="#000000"/><text fill="#000000" font-family="sans-serif" font-size="4.2" lengthAdjust="spacing" textLength="18.9" x="546.75" y="192.8432">Operation</text><line style="stroke:#181818;stroke-width:0.15;" x1="538.35" x2="566.25" y1="195.9041" y2="195.9041"/><ellipse cx="541.35" cy="200.3473" fill="none" rx="0.9" ry="0.9" style="stroke:#038048;stroke-width:0.3;"/><text fill="#000000" font-family="sans-serif" font-size="4.2" lengthAdjust="spacing" textLength="17.7" x="544.05" y="201.6363">REMOVE</text><ellipse cx="541.35" cy="205.9336" fill="none" rx="0.9" ry="0.9" style="stroke:#038048;stroke-width:0.3;"/><text fill="#000000" font-family="sans-serif" font-size="4.2" lengthAdjust="spacing" textLength="8.7" x="544.05" y="207.2227">ADD</text><ellipse cx="541.35" cy="211.5199" fill="none" rx="0.9" ry="0.9" style="stroke:#038048;stroke-width:0.3;"/><text fill="#000000" font-family="sans-serif" font-size="4.2" lengthAdjust="spacing" textLength="16.5" x="544.05" y="212.809">UPDATE</text><line style="stroke:#181818;stroke-width:0.15;" x1="538.35" x2="566.25" y1="215.0631" y2="215.0631"/></g><!--class FilmNotFoundException--><g id="elem_FilmNotFoundException"><rect codeLine="12" fill="#F1F1F1" height="14.4" id="FilmNotFoundException" rx="0.75" ry="0.75" style="stroke:#181818;stroke-width:0.15;" width="54.3" x="188.85" y="194.7041"/><ellipse cx="193.35" cy="199.5041" fill="#ADD1B2" rx="3.3" ry="3.3" style="stroke:#181818;stroke-width:0.3;"/><path d="M194.1797,198.2666 Q194.2266,198.201 194.2828,198.1682 Q194.3391,198.1354 194.4047,198.1354 Q194.5172,198.1354 194.5875,198.215 Q194.6578,198.29 194.6578,198.4729 L194.6578,198.9088 Q194.6578,199.0916 194.5875,199.1713 Q194.5172,199.251 194.4047,199.251 Q194.3016,199.251 194.2406,199.19 Q194.1797,199.1338 194.1469,198.9791 Q194.1328,198.8713 194.0766,198.815 Q193.9781,198.7025 193.7953,198.6369 Q193.6125,198.5713 193.425,198.5713 Q193.1953,198.5713 193.0031,198.6697 Q192.8156,198.7682 192.6656,198.9932 Q192.5203,199.2182 192.5203,199.5275 L192.5203,199.8557 Q192.5203,200.226 192.7875,200.4744 Q193.0547,200.7182 193.5328,200.7182 Q193.8141,200.7182 194.0109,200.6432 Q194.1281,200.5963 194.2547,200.465 Q194.3344,200.3854 194.3766,200.3619 Q194.4234,200.3385 194.4844,200.3385 Q194.5828,200.3385 194.6578,200.4182 Q194.7375,200.4932 194.7375,200.5963 Q194.7375,200.6994 194.6344,200.8213 Q194.4844,200.9947 194.2453,201.0932 Q193.9219,201.2291 193.5328,201.2291 Q193.0781,201.2291 192.7172,201.0416 Q192.4219,200.8916 192.2156,200.5729 Q192.0094,200.2494 192.0094,199.865 L192.0094,199.5182 Q192.0094,199.1197 192.1922,198.7775 Q192.3797,198.4307 192.7078,198.2479 Q193.0359,198.0604 193.4063,198.0604 Q193.6266,198.0604 193.8188,198.1119 Q194.0156,198.1588 194.1797,198.2666 Z " fill="#000000"/><text fill="#000000" font-family="sans-serif" font-size="4.2" lengthAdjust="spacing" textLength="44.7" x="197.55" y="201.2432">FilmNotFoundException</text><line style="stroke:#181818;stroke-width:0.15;" x1="189.15" x2="242.85" y1="204.3041" y2="204.3041"/><line style="stroke:#181818;stroke-width:0.15;" x1="189.15" x2="242.85" y1="206.7041" y2="206.7041"/></g><!--class UserNotFoundException--><g id="elem_UserNotFoundException"><rect codeLine="22" fill="#F1F1F1" height="14.4" id="UserNotFoundException" rx="0.75" ry="0.75" style="stroke:#181818;stroke-width:0.15;" width="55.2" x="253.8" y="194.7041"/><ellipse cx="258.3" cy="199.5041" fill="#ADD1B2" rx="3.3" ry="3.3" style="stroke:#181818;stroke-width:0.3;"/><path d="M259.1297,198.2666 Q259.1766,198.201 259.2328,198.1682 Q259.2891,198.1354 259.3547,198.1354 Q259.4672,198.1354 259.5375,198.215 Q259.6078,198.29 259.6078,198.4729 L259.6078,198.9088 Q259.6078,199.0916 259.5375,199.1713 Q259.4672,199.251 259.3547,199.251 Q259.2516,199.251 259.1906,199.19 Q259.1297,199.1338 259.0969,198.9791 Q259.0828,198.8713 259.0266,198.815 Q258.9281,198.7025 258.7453,198.6369 Q258.5625,198.5713 258.375,198.5713 Q258.1453,198.5713 257.9531,198.6697 Q257.7656,198.7682 257.6156,198.9932 Q257.4703,199.2182 257.4703,199.5275 L257.4703,199.8557 Q257.4703,200.226 257.7375,200.4744 Q258.0047,200.7182 258.4828,200.7182 Q258.7641,200.7182 258.9609,200.6432 Q259.0781,200.5963 259.2047,200.465 Q259.2844,200.3854 259.3266,200.3619 Q259.3734,200.3385 259.4344,200.3385 Q259.5328,200.3385 259.6078,200.4182 Q259.6875,200.4932 259.6875,200.5963 Q259.6875,200.6994 259.5844,200.8213 Q259.4344,200.9947 259.1953,201.0932 Q258.8719,201.2291 258.4828,201.2291 Q258.0281,201.2291 257.6672,201.0416 Q257.3719,200.8916 257.1656,200.5729 Q256.9594,200.2494 256.9594,199.865 L256.9594,199.5182 Q256.9594,199.1197 257.1422,198.7775 Q257.3297,198.4307 257.6578,198.2479 Q257.9859,198.0604 258.3563,198.0604 Q258.5766,198.0604 258.7688,198.1119 Q258.9656,198.1588 259.1297,198.2666 Z " fill="#000000"/><text fill="#000000" font-family="sans-serif" font-size="4.2" lengthAdjust="spacing" textLength="45.6" x="262.5" y="201.2432">UserNotFoundException</text><line style="stroke:#181818;stroke-width:0.15;" x1="254.1" x2="308.7" y1="204.3041" y2="204.3041"/><line style="stroke:#181818;stroke-width:0.15;" x1="254.1" x2="308.7" y1="206.7041" y2="206.7041"/></g><!--class RuntimeException--><g id="elem_RuntimeException"><rect fill="#F1F1F1" height="14.4" id="RuntimeException" rx="0.75" ry="0.75" style="stroke:#181818;stroke-width:0.15;" width="43.5" x="226.95" y="98.1041"/><ellipse cx="231.45" cy="102.9041" fill="#ADD1B2" rx="3.3" ry="3.3" style="stroke:#181818;stroke-width:0.3;"/><path d="M232.2797,101.6666 Q232.3266,101.601 232.3828,101.5682 Q232.4391,101.5354 232.5047,101.5354 Q232.6172,101.5354 232.6875,101.615 Q232.7578,101.69 232.7578,101.8729 L232.7578,102.3088 Q232.7578,102.4916 232.6875,102.5713 Q232.6172,102.651 232.5047,102.651 Q232.4016,102.651 232.3406,102.59 Q232.2797,102.5338 232.2469,102.3791 Q232.2328,102.2713 232.1766,102.215 Q232.0781,102.1025 231.8953,102.0369 Q231.7125,101.9713 231.525,101.9713 Q231.2953,101.9713 231.1031,102.0697 Q230.9156,102.1682 230.7656,102.3932 Q230.6203,102.6182 230.6203,102.9275 L230.6203,103.2557 Q230.6203,103.626 230.8875,103.8744 Q231.1547,104.1182 231.6328,104.1182 Q231.9141,104.1182 232.1109,104.0432 Q232.2281,103.9963 232.3547,103.865 Q232.4344,103.7854 232.4766,103.7619 Q232.5234,103.7385 232.5844,103.7385 Q232.6828,103.7385 232.7578,103.8182 Q232.8375,103.8932 232.8375,103.9963 Q232.8375,104.0994 232.7344,104.2213 Q232.5844,104.3947 232.3453,104.4932 Q232.0219,104.6291 231.6328,104.6291 Q231.1781,104.6291 230.8172,104.4416 Q230.5219,104.2916 230.3156,103.9729 Q230.1094,103.6494 230.1094,103.265 L230.1094,102.9182 Q230.1094,102.5197 230.2922,102.1775 Q230.4797,101.8307 230.8078,101.6479 Q231.1359,101.4604 231.5063,101.4604 Q231.7266,101.4604 231.9188,101.5119 Q232.1156,101.5588 232.2797,101.6666 Z " fill="#000000"/><text fill="#000000" font-family="sans-serif" font-size="4.2" lengthAdjust="spacing" textLength="33.9" x="235.65" y="104.6432">RuntimeException</text><line style="stroke:#181818;stroke-width:0.15;" x1="227.25" x2="270.15" y1="107.7041" y2="107.7041"/><line style="stroke:#181818;stroke-width:0.15;" x1="227.25" x2="270.15" y1="110.1041" y2="110.1041"/></g><!--reverse link RuntimeException to FilmNotFoundException--><g id="link_RuntimeException_FilmNotFoundException"><path codeLine="74" d="M244.6071,117.6188 C238.5891,135.2888 224.418,176.8901 218.373,194.6321 " fill="none" id="RuntimeException-backto-FilmNotFoundException" style="stroke:#181818;stroke-width:0.3;"/><polygon fill="none" points="246.348,112.5071,242.9032,117.0385,246.311,118.1991,246.348,112.5071" style="stroke:#181818;stroke-width:0.3;"/></g><!--reverse link RuntimeException to UserNotFoundException--><g id="link_RuntimeException_UserNotFoundException"><path codeLine="75" d="M252.7929,117.6188 C258.8109,135.2888 272.982,176.8901 279.027,194.6321 " fill="none" id="RuntimeException-backto-UserNotFoundException" style="stroke:#181818;stroke-width:0.3;"/><polygon fill="none" points="251.052,112.5071,251.089,118.1991,254.4968,117.0385,251.052,112.5071" style="stroke:#181818;stroke-width:0.3;"/></g><!--SRC=[lLLTRzem57tFh_0ZrGI_e4BAHEZGW5QXj0_JL1dxZbfruiXsQ57N_xvxdG06iGcej1VRzyI-FZxt8r3M1HEcwC4RBoeDlSAi53nPxbMvV79WLqeGA47t0FUwNfOR3Umz-SBOV9RbDAU3oMYQTDdCMpp5lF8Qaez4QExSgSvlB9VajikqGHzBCaSIpRIgj19un9HpFC9g710UAbsmNpZWMffwWPp2cQzhsdNwxV0ce2BdFV8uDNvewb9c6nGPdUngGc0Ui5a3HTo3Ok_Eeo4-sCeeoGgkoawZsO-VLsSB1gMD1ICp2DP68G1JNW12O-NyDRsl7oHpbyX3idvAdczg0RRa7kPUwK1yAySCd4DlGowyiMlczin_R5pKIijzh7Esa26JjZgIFh6CPBSgHiYeu4kOMnqblULAWzt393XXLH0g0fK5Ohf314hgmpi7g0wpe84xeFM6bAmjRxsqkSvNO952assR21-KIZ_KYjjy3HNMRwfa2-Q0khpsyLAQTtifUVfD3ZbCt92lN4fo-_Xinke59EdMERZoQhDNS2rgZKz8ImoGJsEw8KHmVkDPGUdlrrNRVCQZxndDUVOmoXvfTPEdW-pSw1-sbsqYg2W9j5cgA8GL-dyrbZOqtT3YG9_XcA247jN-ee9iM3UtxCWsjuMyZHlZNtfd-undG3QHtJYvA3Qt5TXTcyEOJ6uVikRNC0X_Yhj1Ua-nIP8pMawETQ4As7MRwz_TxgTR-dzbSBHh_W40]--></g></svg>