<svg xmlns="http://www.w3.org/2000/svg" version="1.1" xmlns:xlink="http://www.w3.org/1999/xlink" width="512" height="512" x="0" y="0" viewBox="0 0 512 512" style="enable-background:new 0 0 512 512" xml:space="preserve" class=""><g><path d="M479.645 206.59H164.672l303.112-92.67c8.45-2.583 13.206-11.528 10.623-19.979l-25.259-82.619A15.999 15.999 0 0 0 433.17.699h-.001L27.678 124.67a16.003 16.003 0 0 0-10.623 19.979l24.561 80.332v239.448c0 26.23 21.341 47.571 47.571 47.571h358.886c26.231 0 47.572-21.341 47.572-47.571V222.59c0-8.836-7.164-16-16-16zM227.344 97.088l78.188-23.905 51.695 41.075-78.188 23.904zm14.55 52.432-78.188 23.904-51.695-41.075 78.188-23.905zm-167.029-5.814 51.696 41.075-58.323 17.831-15.904-52.017zm319.509-40.804-51.695-41.075 84.546-25.848 15.903 52.018zm69.271 361.527c0 8.586-6.985 15.571-15.572 15.571H89.187c-8.586 0-15.571-6.985-15.571-15.571V238.59h390.029zm-252.254-34.421a15.991 15.991 0 0 0 16 0l98.478-56.856a16.002 16.002 0 0 0 0-27.712l-98.478-56.856a16.002 16.002 0 0 0-24 13.856v113.713a16 16 0 0 0 8 13.855zm24-99.857 50.478 29.144-50.478 29.144z" fill="#000000" opacity="1" data-original="#000000" class=""></path></g></svg>