<svg width="30" height="30" viewBox="0 0 30 30" fill="none" xmlns="http://www.w3.org/2000/svg">
<path d="M29.7159 28.3679L21.9703 20.7461C23.9986 18.5424 25.2449 15.628 25.2449 12.421C25.2439 5.56064 19.5931 0 12.622 0C5.65081 0 0 5.56064 0 12.421C0 19.2814 5.65081 24.842 12.622 24.842C15.634 24.842 18.3965 23.8002 20.5665 22.0683L28.3422 29.7201C28.7211 30.0933 29.3362 30.0933 29.7151 29.7201C29.8052 29.632 29.8768 29.5269 29.9257 29.4109C29.9747 29.2948 29.9999 29.1701 30 29.0441C30.0001 28.9182 29.975 28.7935 29.9262 28.6773C29.8774 28.5612 29.806 28.456 29.7159 28.3679ZM12.622 22.931C6.7236 22.931 1.94207 18.2255 1.94207 12.421C1.94207 6.61651 6.7236 1.91105 12.622 1.91105C18.5204 1.91105 23.3019 6.61651 23.3019 12.421C23.3019 18.2255 18.5204 22.931 12.622 22.931Z" fill="#B5C6B8"/>
</svg>
