<svg xmlns="http://www.w3.org/2000/svg" version="1.1" xmlns:xlink="http://www.w3.org/1999/xlink" width="512" height="512" x="0" y="0" viewBox="0 0 32 32" style="enable-background:new 0 0 512 512" xml:space="preserve" class=""><g><path d="M23 12H11V8.71A4.71 4.71 0 0 1 15.71 4h.58A4.71 4.71 0 0 1 21 8.71a1 1 0 0 0 2 0A6.72 6.72 0 0 0 16.29 2h-.58A6.72 6.72 0 0 0 9 8.71V12a3 3 0 0 0-3 3v9.3a5.71 5.71 0 0 0 5.7 5.7h8.6a5.71 5.71 0 0 0 5.7-5.7V15a3 3 0 0 0-3-3Zm1 12.3a3.7 3.7 0 0 1-3.7 3.7h-8.6A3.7 3.7 0 0 1 8 24.3V15a1 1 0 0 1 1-1h14a1 1 0 0 1 1 1Zm-7-3.58V24a1 1 0 0 1-2 0v-3.28a2 2 0 1 1 2 0Z" data-name="13-Unlock" fill="#000000" opacity="1" data-original="#000000" class=""></path></g></svg>