<svg width="301" height="40" viewBox="0 0 301 40" fill="none" xmlns="http://www.w3.org/2000/svg">
<path d="M28.9985 17.1049V17.1049C25.7922 17.1049 25.1735 12.5572 28.2561 11.675V11.675C28.785 11.5237 29.0827 10.9995 28.921 10.5044L27.34 5.66341C27.3016 5.54567 27.2387 5.43618 27.1551 5.34118C27.0714 5.24618 26.9686 5.16754 26.8525 5.10974C26.7364 5.05194 26.6092 5.01612 26.4783 5.00432C26.3474 4.99252 26.2153 5.00497 26.0895 5.04096C26.0895 5.04096 26.0895 5.04097 26.0895 5.04097V5.04097C26.0895 5.04097 26.0894 5.04097 26.0894 5.04097L0.708641 12.3049C0.454662 12.3776 0.24194 12.5418 0.117249 12.7613C-0.00744119 12.9809 -0.0338903 13.2378 0.0437177 13.4755L1.28726 17.2829C1.4819 17.8789 1.58106 18.5019 1.58106 19.1288V32.2126C1.58106 33.7495 2.91685 35 4.55866 35H27.0223C28.6642 35 30 33.7495 30 32.2126V18.0424C30 17.5247 29.5516 17.1049 28.9985 17.1049ZM15.8065 12.6228C14.7419 11.8309 15.0462 10.1622 16.3218 9.79708L17.3388 9.506C17.8188 9.36865 18.3353 9.46284 18.7358 9.76076V9.76076C19.8004 10.5526 19.4961 12.2214 18.2205 12.5865L17.2035 12.8775C16.7236 13.0149 16.2071 12.9207 15.8065 12.6228V12.6228ZM11.5168 11.8269C12.5814 12.6188 12.2771 14.2875 11.0014 14.6526L9.98446 14.9436C9.50455 15.081 8.98804 14.9868 8.58751 14.6889V14.6889C7.52286 13.897 7.82719 12.2282 9.10283 11.8631L10.1198 11.5721C10.5997 11.4347 11.1163 11.5289 11.5168 11.8269V11.8269ZM3.20711 13.5505C3.49394 13.4684 3.80264 13.5247 4.04204 13.7028L4.83438 14.2921C5.67931 14.9206 5.43779 16.2449 4.42541 16.5347V16.5347C3.76789 16.7228 3.07932 16.3572 2.86698 15.707L2.56039 14.7684C2.39191 14.2525 2.68538 13.6999 3.20711 13.5505V13.5505ZM24.4226 10.8115C23.9427 10.9488 23.4262 10.8547 23.0257 10.5567V10.5567C21.961 9.76486 22.2654 8.09611 23.541 7.73103L24.233 7.53298C25.0615 7.29586 25.9292 7.75665 26.1967 8.57585V8.57585C26.4786 9.43899 25.9876 10.3636 25.1146 10.6135L24.4226 10.8115ZM27.997 32.2126C27.997 32.7157 27.5598 33.125 27.0223 33.125H4.55866C4.02124 33.125 3.58403 32.7157 3.58403 32.2126V24.9252C3.58403 21.6417 6.24583 18.9799 9.52933 18.9799H22.0517C25.3352 18.9799 27.997 21.6417 27.997 24.9252V32.2126ZM12.2078 30.1958C12.36 30.2781 12.5327 30.3215 12.7085 30.3215C12.8843 30.3215 13.057 30.2781 13.2092 30.1958L19.3732 26.8644C19.5254 26.7821 19.6518 26.6637 19.7397 26.5212C19.8276 26.3787 19.8738 26.217 19.8738 26.0525C19.8738 25.888 19.8276 25.7263 19.7397 25.5838C19.6518 25.4413 19.5254 25.3229 19.3732 25.2406L13.2092 21.9092C13.057 21.827 12.8843 21.7837 12.7085 21.7837C12.5327 21.7837 12.3601 21.827 12.2078 21.9093C12.0556 21.9916 11.9292 22.1099 11.8413 22.2524C11.7534 22.3949 11.7071 22.5565 11.707 22.7211V29.384C11.707 29.5485 11.7533 29.7102 11.8412 29.8527C11.9291 29.9952 12.0555 30.1135 12.2078 30.1958ZM13.71 26.0524C13.71 25.2813 14.5339 24.7901 15.2123 25.1567V25.1567C15.9243 25.5416 15.9243 26.5633 15.2123 26.9482V26.9482C14.5339 27.3148 13.71 26.8236 13.71 26.0524V26.0524Z" fill="#222831"/>
<path d="M47.112 20.004L45.936 30H40.952L44.116 9.42L52.46 21.376L60.832 9.42L63.996 30H59.012L57.836 20.004L52.46 28.18L47.112 20.004ZM65.8335 23.56C65.8335 22.1973 66.1508 21.012 66.7855 20.004C67.4202 18.996 68.2975 18.212 69.4175 17.652C70.5375 17.092 71.7975 16.812 73.1975 16.812C74.5975 16.812 75.8482 17.092 76.9495 17.652C78.0695 18.212 78.9468 18.996 79.5815 20.004C80.2348 21.012 80.5615 22.1973 80.5615 23.56C80.5615 24.904 80.2348 26.08 79.5815 27.088C78.9468 28.096 78.0695 28.88 76.9495 29.44C75.8482 30 74.5975 30.28 73.1975 30.28C71.7975 30.28 70.5375 30 69.4175 29.44C68.2975 28.88 67.4202 28.096 66.7855 27.088C66.1508 26.08 65.8335 24.904 65.8335 23.56ZM70.1735 23.56C70.1735 24.232 70.3135 24.8107 70.5935 25.296C70.8735 25.7627 71.2375 26.1267 71.6855 26.388C72.1335 26.6493 72.6375 26.78 73.1975 26.78C73.7388 26.78 74.2335 26.6493 74.6815 26.388C75.1482 26.1267 75.5122 25.7627 75.7735 25.296C76.0535 24.8107 76.1935 24.232 76.1935 23.56C76.1935 22.888 76.0535 22.3093 75.7735 21.824C75.5122 21.3387 75.1482 20.9653 74.6815 20.704C74.2335 20.4427 73.7388 20.312 73.1975 20.312C72.6375 20.312 72.1335 20.4427 71.6855 20.704C71.2375 20.9653 70.8735 21.3387 70.5935 21.824C70.3135 22.3093 70.1735 22.888 70.1735 23.56ZM80.959 17.12H85.467L88.435 24.26L91.375 17.12H95.883L88.435 31.512L80.959 17.12ZM97.2086 12.276C97.2086 11.604 97.4513 11.0627 97.9366 10.652C98.4219 10.2227 99.0006 10.008 99.6726 10.008C100.363 10.008 100.942 10.2227 101.409 10.652C101.894 11.0627 102.137 11.604 102.137 12.276C102.137 12.948 101.894 13.4987 101.409 13.928C100.942 14.3573 100.363 14.572 99.6726 14.572C99.0006 14.572 98.4219 14.3573 97.9366 13.928C97.4513 13.4987 97.2086 12.948 97.2086 12.276ZM97.6286 17.12H101.717V30H97.6286V17.12ZM111.751 30.28C110.258 30.28 108.96 30.0093 107.859 29.468C106.776 28.908 105.936 28.124 105.339 27.116C104.742 26.108 104.443 24.9227 104.443 23.56C104.443 22.1787 104.732 20.984 105.311 19.976C105.89 18.968 106.72 18.1933 107.803 17.652C108.904 17.1107 110.202 16.84 111.695 16.84C113.188 16.84 114.448 17.1013 115.475 17.624C116.502 18.128 117.286 18.8653 117.827 19.836C118.368 20.8067 118.639 21.9827 118.639 23.364C118.639 23.5693 118.639 23.7747 118.639 23.98C118.639 24.1667 118.62 24.3253 118.583 24.456H106.823V22.104H114.775L113.767 23.392C113.86 23.2613 113.935 23.1027 113.991 22.916C114.066 22.7107 114.103 22.5427 114.103 22.412C114.103 21.852 114 21.3667 113.795 20.956C113.59 20.5453 113.3 20.228 112.927 20.004C112.554 19.78 112.115 19.668 111.611 19.668C110.976 19.668 110.444 19.808 110.015 20.088C109.586 20.368 109.259 20.7973 109.035 21.376C108.83 21.936 108.718 22.6453 108.699 23.504C108.699 24.288 108.811 24.96 109.035 25.52C109.259 26.08 109.595 26.5093 110.043 26.808C110.491 27.088 111.042 27.228 111.695 27.228C112.442 27.228 113.076 27.088 113.599 26.808C114.14 26.528 114.57 26.108 114.887 25.548L118.667 26.472C117.995 27.7413 117.08 28.6933 115.923 29.328C114.784 29.9627 113.394 30.28 111.751 30.28ZM126.57 21.124H131.47L137.602 30H132.058L126.57 21.124ZM121.67 10.4H126.402V30H121.67V10.4ZM124.638 14.404V10.4H128.81C130.49 10.4 131.89 10.6707 133.01 11.212C134.13 11.7533 134.979 12.5093 135.558 13.48C136.136 14.432 136.426 15.5427 136.426 16.812C136.426 18.0627 136.136 19.1733 135.558 20.144C134.979 21.096 134.13 21.8427 133.01 22.384C131.89 22.9253 130.49 23.196 128.81 23.196H124.638V19.528H128.474C129.108 19.528 129.65 19.4347 130.098 19.248C130.564 19.0427 130.919 18.7533 131.162 18.38C131.404 17.988 131.526 17.5213 131.526 16.98C131.526 16.4387 131.404 15.9813 131.162 15.608C130.919 15.216 130.564 14.9173 130.098 14.712C129.65 14.5067 129.108 14.404 128.474 14.404H124.638ZM142.655 25.968C142.655 26.304 142.739 26.5933 142.907 26.836C143.075 27.06 143.299 27.2373 143.579 27.368C143.859 27.48 144.167 27.536 144.503 27.536C144.988 27.536 145.436 27.4333 145.847 27.228C146.257 27.0227 146.593 26.7147 146.855 26.304C147.116 25.8933 147.247 25.3893 147.247 24.792L147.695 26.472C147.695 27.2933 147.471 27.9933 147.023 28.572C146.575 29.132 145.996 29.5613 145.287 29.86C144.577 30.14 143.812 30.28 142.991 30.28C142.169 30.28 141.404 30.1307 140.695 29.832C140.004 29.5147 139.444 29.048 139.015 28.432C138.604 27.816 138.399 27.0693 138.399 26.192C138.399 24.96 138.837 23.9893 139.715 23.28C140.592 22.552 141.833 22.188 143.439 22.188C144.223 22.188 144.923 22.2627 145.539 22.412C146.173 22.5613 146.715 22.748 147.163 22.972C147.611 23.196 147.947 23.4293 148.171 23.672V25.548C147.723 25.212 147.2 24.96 146.603 24.792C146.024 24.6053 145.408 24.512 144.755 24.512C144.251 24.512 143.849 24.568 143.551 24.68C143.252 24.792 143.028 24.96 142.879 25.184C142.729 25.3893 142.655 25.6507 142.655 25.968ZM140.779 21.068L139.351 18.24C140.079 17.8853 140.956 17.5493 141.983 17.232C143.009 16.9147 144.129 16.756 145.343 16.756C146.481 16.756 147.499 16.924 148.395 17.26C149.291 17.5773 150 18.044 150.523 18.66C151.045 19.276 151.307 20.032 151.307 20.928V30H147.247V21.88C147.247 21.5627 147.191 21.292 147.079 21.068C146.985 20.8253 146.836 20.62 146.631 20.452C146.425 20.284 146.164 20.1627 145.847 20.088C145.548 20.0133 145.203 19.976 144.811 19.976C144.232 19.976 143.663 20.0413 143.103 20.172C142.561 20.3027 142.085 20.4613 141.675 20.648C141.264 20.816 140.965 20.956 140.779 21.068ZM152.96 17.12H161.584V20.62H152.96V17.12ZM155.228 12.64H159.288V30H155.228V12.64ZM163.134 12.276C163.134 11.604 163.377 11.0627 163.862 10.652C164.348 10.2227 164.926 10.008 165.598 10.008C166.289 10.008 166.868 10.2227 167.334 10.652C167.82 11.0627 168.062 11.604 168.062 12.276C168.062 12.948 167.82 13.4987 167.334 13.928C166.868 14.3573 166.289 14.572 165.598 14.572C164.926 14.572 164.348 14.3573 163.862 13.928C163.377 13.4987 163.134 12.948 163.134 12.276ZM163.554 17.12H167.642V30H163.554V17.12ZM179.497 22.16C179.497 21.3947 179.347 20.8067 179.049 20.396C178.769 19.9853 178.293 19.78 177.621 19.78C177.173 19.78 176.781 19.8733 176.445 20.06C176.109 20.2467 175.847 20.5173 175.661 20.872C175.474 21.2267 175.381 21.656 175.381 22.16V30H171.125V17.12H175.381V19.052C175.754 18.3427 176.258 17.792 176.893 17.4C177.546 17.008 178.349 16.812 179.301 16.812C180.906 16.812 182.073 17.2413 182.801 18.1C183.529 18.9587 183.893 20.1627 183.893 21.712V30H179.497V22.16ZM186.754 30.924H190.842C190.898 31.4467 191.047 31.8853 191.29 32.24C191.551 32.5947 191.897 32.856 192.326 33.024C192.755 33.2107 193.241 33.304 193.782 33.304C194.379 33.304 194.921 33.164 195.406 32.884C195.891 32.6227 196.274 32.2213 196.554 31.68C196.853 31.1573 197.002 30.504 197.002 29.72V17.12H201.062V29.72C201.062 31.3627 200.735 32.6973 200.082 33.724C199.447 34.7507 198.598 35.4973 197.534 35.964C196.47 36.4493 195.275 36.692 193.95 36.692C192.363 36.692 191.047 36.4493 190.002 35.964C188.975 35.4787 188.201 34.7973 187.678 33.92C187.155 33.0613 186.847 32.0627 186.754 30.924ZM186.474 23.392C186.474 21.936 186.763 20.7227 187.342 19.752C187.939 18.7813 188.705 18.0533 189.638 17.568C190.571 17.0827 191.561 16.84 192.606 16.84C193.689 16.84 194.641 17.1013 195.462 17.624C196.302 18.128 196.965 18.8653 197.45 19.836C197.935 20.8067 198.178 21.992 198.178 23.392C198.178 24.7733 197.935 25.9587 197.45 26.948C196.965 27.9187 196.302 28.6653 195.462 29.188C194.641 29.692 193.689 29.944 192.606 29.944C191.561 29.944 190.571 29.7013 189.638 29.216C188.705 28.712 187.939 27.9747 187.342 27.004C186.763 26.0333 186.474 24.8293 186.474 23.392ZM190.926 23.392C190.926 24.0453 191.066 24.6147 191.346 25.1C191.626 25.5667 191.999 25.9213 192.466 26.164C192.933 26.4067 193.446 26.528 194.006 26.528C194.491 26.528 194.958 26.416 195.406 26.192C195.873 25.9493 196.255 25.5947 196.554 25.128C196.853 24.6613 197.002 24.0827 197.002 23.392C197.002 22.8693 196.909 22.412 196.722 22.02C196.554 21.628 196.321 21.3013 196.022 21.04C195.742 20.7787 195.425 20.5827 195.07 20.452C194.715 20.3213 194.361 20.256 194.006 20.256C193.446 20.256 192.933 20.3773 192.466 20.62C191.999 20.8627 191.626 21.2173 191.346 21.684C191.066 22.1507 190.926 22.72 190.926 23.392ZM206.896 23.112C207.288 23.8213 207.727 24.4373 208.212 24.96C208.716 25.4827 209.257 25.884 209.836 26.164C210.433 26.444 211.059 26.584 211.712 26.584C212.403 26.584 212.972 26.416 213.42 26.08C213.868 25.7253 214.092 25.2493 214.092 24.652C214.092 24.148 213.961 23.7467 213.7 23.448C213.439 23.1307 213.019 22.832 212.44 22.552C211.861 22.272 211.096 21.9547 210.144 21.6C209.677 21.432 209.136 21.1987 208.52 20.9C207.923 20.6013 207.353 20.2187 206.812 19.752C206.271 19.2667 205.823 18.688 205.468 18.016C205.113 17.3253 204.936 16.4947 204.936 15.524C204.936 14.3667 205.235 13.368 205.832 12.528C206.448 11.688 207.269 11.0533 208.296 10.624C209.341 10.176 210.499 9.952 211.768 9.952C213.075 9.952 214.204 10.1667 215.156 10.596C216.127 11.0253 216.929 11.5667 217.564 12.22C218.199 12.8733 218.684 13.536 219.02 14.208L215.408 16.224C215.128 15.7573 214.801 15.356 214.428 15.02C214.073 14.6653 213.672 14.3947 213.224 14.208C212.795 14.0027 212.328 13.9 211.824 13.9C211.152 13.9 210.639 14.0493 210.284 14.348C209.929 14.628 209.752 14.9827 209.752 15.412C209.752 15.86 209.92 16.252 210.256 16.588C210.611 16.924 211.105 17.232 211.74 17.512C212.393 17.792 213.177 18.0907 214.092 18.408C214.783 18.6693 215.427 18.9773 216.024 19.332C216.621 19.668 217.144 20.0787 217.592 20.564C218.059 21.0493 218.423 21.6093 218.684 22.244C218.945 22.8787 219.076 23.6067 219.076 24.428C219.076 25.4173 218.871 26.304 218.46 27.088C218.068 27.8533 217.527 28.4973 216.836 29.02C216.164 29.5427 215.389 29.9347 214.512 30.196C213.653 30.476 212.767 30.616 211.852 30.616C210.583 30.616 209.397 30.392 208.296 29.944C207.213 29.4773 206.271 28.852 205.468 28.068C204.665 27.284 204.04 26.4253 203.592 25.492L206.896 23.112ZM228.372 30.28C226.879 30.28 225.581 30.0093 224.48 29.468C223.397 28.908 222.557 28.124 221.96 27.116C221.363 26.108 221.064 24.9227 221.064 23.56C221.064 22.1787 221.353 20.984 221.932 19.976C222.511 18.968 223.341 18.1933 224.424 17.652C225.525 17.1107 226.823 16.84 228.316 16.84C229.809 16.84 231.069 17.1013 232.096 17.624C233.123 18.128 233.907 18.8653 234.448 19.836C234.989 20.8067 235.26 21.9827 235.26 23.364C235.26 23.5693 235.26 23.7747 235.26 23.98C235.26 24.1667 235.241 24.3253 235.204 24.456H223.444V22.104H231.396L230.388 23.392C230.481 23.2613 230.556 23.1027 230.612 22.916C230.687 22.7107 230.724 22.5427 230.724 22.412C230.724 21.852 230.621 21.3667 230.416 20.956C230.211 20.5453 229.921 20.228 229.548 20.004C229.175 19.78 228.736 19.668 228.232 19.668C227.597 19.668 227.065 19.808 226.636 20.088C226.207 20.368 225.88 20.7973 225.656 21.376C225.451 21.936 225.339 22.6453 225.32 23.504C225.32 24.288 225.432 24.96 225.656 25.52C225.88 26.08 226.216 26.5093 226.664 26.808C227.112 27.088 227.663 27.228 228.316 27.228C229.063 27.228 229.697 27.088 230.22 26.808C230.761 26.528 231.191 26.108 231.508 25.548L235.288 26.472C234.616 27.7413 233.701 28.6933 232.544 29.328C231.405 29.9627 230.015 30.28 228.372 30.28ZM242.043 17.12V30H237.871V17.12H242.043ZM245.767 21.488C245.543 21.264 245.3 21.0867 245.039 20.956C244.796 20.8253 244.488 20.76 244.115 20.76C243.704 20.76 243.34 20.872 243.023 21.096C242.705 21.32 242.463 21.6467 242.295 22.076C242.127 22.5053 242.043 23.028 242.043 23.644L241.035 22.16C241.035 21.1333 241.231 20.2187 241.623 19.416C242.033 18.6133 242.565 17.9787 243.219 17.512C243.872 17.0453 244.553 16.812 245.263 16.812C245.729 16.812 246.177 16.9053 246.607 17.092C247.036 17.2787 247.363 17.54 247.587 17.876L245.767 21.488ZM248.494 17.12H253.002L255.97 24.26L258.91 17.12H263.418L255.97 31.512L248.494 17.12ZM264.744 12.276C264.744 11.604 264.986 11.0627 265.472 10.652C265.957 10.2227 266.536 10.008 267.208 10.008C267.898 10.008 268.477 10.2227 268.944 10.652C269.429 11.0627 269.672 11.604 269.672 12.276C269.672 12.948 269.429 13.4987 268.944 13.928C268.477 14.3573 267.898 14.572 267.208 14.572C266.536 14.572 265.957 14.3573 265.472 13.928C264.986 13.4987 264.744 12.948 264.744 12.276ZM265.164 17.12H269.252V30H265.164V17.12ZM276.29 23.56C276.29 24.2507 276.439 24.848 276.738 25.352C277.037 25.8373 277.447 26.22 277.97 26.5C278.511 26.78 279.09 26.92 279.706 26.92C280.229 26.92 280.723 26.8453 281.19 26.696C281.675 26.528 282.114 26.304 282.506 26.024C282.917 25.744 283.253 25.3987 283.514 24.988V29.104C283.066 29.4587 282.506 29.748 281.834 29.972C281.162 30.1773 280.341 30.28 279.37 30.28C277.951 30.28 276.673 30 275.534 29.44C274.414 28.88 273.527 28.096 272.874 27.088C272.239 26.08 271.922 24.904 271.922 23.56C271.922 22.1973 272.239 21.0213 272.874 20.032C273.527 19.024 274.414 18.24 275.534 17.68C276.673 17.12 277.951 16.84 279.37 16.84C280.341 16.84 281.162 16.952 281.834 17.176C282.506 17.3813 283.066 17.6427 283.514 17.96V22.104C283.253 21.6933 282.907 21.348 282.478 21.068C282.067 20.788 281.619 20.5733 281.134 20.424C280.649 20.2747 280.173 20.2 279.706 20.2C279.09 20.2 278.511 20.3493 277.97 20.648C277.447 20.9467 277.037 21.348 276.738 21.852C276.439 22.356 276.29 22.9253 276.29 23.56ZM293.122 30.28C291.629 30.28 290.331 30.0093 289.23 29.468C288.147 28.908 287.307 28.124 286.71 27.116C286.113 26.108 285.814 24.9227 285.814 23.56C285.814 22.1787 286.103 20.984 286.682 19.976C287.261 18.968 288.091 18.1933 289.174 17.652C290.275 17.1107 291.573 16.84 293.066 16.84C294.559 16.84 295.819 17.1013 296.846 17.624C297.873 18.128 298.657 18.8653 299.198 19.836C299.739 20.8067 300.01 21.9827 300.01 23.364C300.01 23.5693 300.01 23.7747 300.01 23.98C300.01 24.1667 299.991 24.3253 299.954 24.456H288.194V22.104H296.146L295.138 23.392C295.231 23.2613 295.306 23.1027 295.362 22.916C295.437 22.7107 295.474 22.5427 295.474 22.412C295.474 21.852 295.371 21.3667 295.166 20.956C294.961 20.5453 294.671 20.228 294.298 20.004C293.925 19.78 293.486 19.668 292.982 19.668C292.347 19.668 291.815 19.808 291.386 20.088C290.957 20.368 290.63 20.7973 290.406 21.376C290.201 21.936 290.089 22.6453 290.07 23.504C290.07 24.288 290.182 24.96 290.406 25.52C290.63 26.08 290.966 26.5093 291.414 26.808C291.862 27.088 292.413 27.228 293.066 27.228C293.813 27.228 294.447 27.088 294.97 26.808C295.511 26.528 295.941 26.108 296.258 25.548L300.038 26.472C299.366 27.7413 298.451 28.6933 297.294 29.328C296.155 29.9627 294.765 30.28 293.122 30.28Z" fill="#222831"/>
</svg>
